<svg id="Mellemgrund" xmlns="http://www.w3.org/2000/svg" width="1920" height="1080" viewBox="0 0 1920 1080"><defs><style>.cls-1{fill:#232c2d;}.cls-2{fill:gray;}.cls-3{fill:#698fb5;}.cls-4{fill:#ccc;}.cls-5{fill:#dbdbdb;}.cls-6{fill:#999898;}.cls-7{fill:#a73f24;}.cls-8{fill:#682517;}</style></defs><title>scene_mellemgrund</title><ellipse class="cls-1" cx="1269.12" cy="892.5" rx="11.95" ry="15.58"/><ellipse class="cls-1" cx="1338.7" cy="879.82" rx="13.08" ry="13.76"/><ellipse class="cls-1" cx="1196.36" cy="879.82" rx="13.08" ry="13.76"/><rect class="cls-2" x="1259.29" y="716.91" width="19.14" height="135.6"/><rect class="cls-3" x="1175.14" y="729.57" width="187.42" height="32.81" rx="15" ry="15"/><rect class="cls-3" x="1175.14" y="561.09" width="187.42" height="117.14" rx="50" ry="50"/><rect class="cls-4" x="1232.51" y="603.57" width="72.69" height="38.66" rx="10" ry="10"/><rect class="cls-5" x="1257.5" y="610.01" width="22.7" height="145.25" rx="10.38" ry="10.38"/><rect class="cls-5" x="1184.96" y="852.5" width="164.58" height="17.5"/><rect class="cls-4" x="1259.34" y="852.57" width="19.02" height="27.66" rx="5" ry="5"/><rect class="cls-5" x="1218.47" y="976.65" width="33.41" height="365.23"/><rect class="cls-6" x="1218.47" y="975.19" width="33.41" height="27.99"/><rect class="cls-7" x="1180.96" y="930.54" width="896.04" height="46.11"/><rect class="cls-8" x="1180.96" y="972.45" width="896.04" height="4.2"/><rect class="cls-5" x="848.24" y="727.78" width="28.3" height="294.05"/><rect class="cls-5" x="144.78" y="727.78" width="28.3" height="294.05"/><rect class="cls-6" x="848.24" y="726.54" width="28.3" height="23.71"/><rect class="cls-6" x="144.78" y="726.54" width="28.3" height="23.71"/><rect class="cls-7" x="113" y="688.72" width="795.17" height="39.06"/><rect class="cls-8" x="113" y="724.22" width="795.17" height="3.56"/></svg>
