<svg id="forgrund" xmlns="http://www.w3.org/2000/svg" width="1920" height="1080" viewBox="0 0 1920 1080"><defs><style>.cls-1{fill:#698fb5;}.cls-2{fill:#ccc;}.cls-3{fill:#dbdbdb;}.cls-4{fill:#232c2d;}.cls-5{fill:gray;}.cls-6{fill:#999898;}.cls-7{fill:#a73f24;}.cls-8{fill:#682517;}</style></defs><title>scene_forgrund</title><rect class="cls-1" x="1583.74" y="941.63" width="308.92" height="193.08" rx="50" ry="50"/><rect class="cls-2" x="1678.3" y="1011.65" width="119.82" height="63.72" rx="10" ry="10"/><rect class="cls-3" x="1719.49" y="1022.27" width="37.42" height="239.42" rx="10.38" ry="10.38"/><ellipse class="cls-4" cx="611.1" cy="1042.48" rx="15.74" ry="20.52"/><ellipse class="cls-4" cx="702.76" cy="1025.78" rx="17.23" ry="18.13"/><ellipse class="cls-4" cx="515.26" cy="1025.78" rx="17.23" ry="18.13"/><rect class="cls-5" x="598.15" y="811.18" width="25.21" height="178.61"/><rect class="cls-1" x="487.31" y="827.86" width="246.88" height="43.21" rx="15" ry="15"/><rect class="cls-1" x="487.31" y="605.94" width="246.88" height="154.3" rx="50" ry="50"/><rect class="cls-2" x="562.88" y="661.89" width="95.75" height="50.92" rx="10" ry="10"/><rect class="cls-3" x="595.8" y="670.38" width="29.9" height="191.33" rx="10.38" ry="10.38"/><rect class="cls-3" x="500.25" y="989.8" width="216.79" height="23.05"/><rect class="cls-2" x="598.22" y="989.88" width="25.05" height="36.44" rx="5" ry="5"/><rect class="cls-3" x="278.54" y="985.09" width="46.54" height="508.83"/><rect class="cls-6" x="278.54" y="983.06" width="46.54" height="38.99"/><rect class="cls-7" x="-871.24" y="920.86" width="1248.32" height="64.23"/><rect class="cls-8" x="-871.24" y="979.24" width="1248.32" height="5.85"/></svg>
