<svg xmlns="http://www.w3.org/2000/svg" width="650" height="2160" viewBox="0 0 650 2160"><defs><style>.cls-1{isolation:isolate;}.cls-2{fill:#ce926a;}.cls-3{fill:#ba805a;}.cls-4{fill:#ff5cd1;}.cls-5{fill:#d8afa4;mix-blend-mode:multiply;}.cls-6{fill:#e8ae87;}.cls-7{fill:#895247;}.cls-8{fill:#ff79eb;}.cls-9{fill:#f2f2f2;}.cls-10{fill:#7a509b;}.cls-11{fill:#e5ff2c;}</style></defs><title>spritesheet_zara</title><g class="cls-1"><g id="zara_sidder_forfra"><path class="cls-2" d="M380.94,1573.06c6.28,1.4,13.06-.88,20-2.3,4.6-.94,22.55-4.62,39.5.94a54.75,54.75,0,0,1,16.11,8.51l.08,3.06c-.22,2.12-.93,5.53-3.59,7.76-3.27,2.74-7.72,2.2-12,1.61-25.08-3.42-25-3.5-26.37-3.46-10.56.31-20.19,4.52-23.33,5.9-6.58,2.88-8.91,5-14.78,5.56-5.57.5-11.24-1.58-14.9-3.72a10.17,10.17,0,0,1-4.41-4.58c-1.46-3.33-.46-6.61.38-9.27.66-2.08,2.95-9.29,8.73-11a16.81,16.81,0,0,1,4.93-.22A49.39,49.39,0,0,1,380.94,1573.06Z"/><path class="cls-2" d="M432.22,1496.92c-1.18,1.64-.91,7.61-1,9.8a17.51,17.51,0,0,0,2.42,9.59c.78,1.29,2,2.51,2.32,4,.48,2.19,0,5.13.2,7.44.35,4.74-.14,23.5.39,28.31s.46,10,1.19,14.77c.77,5,1.89,9.54,3.05,14.55,1.24,5.35,8,7.82,12.08,6.72,3.3-.89,3.61-8.63,4-12.44.87-8.11.08-14.94-1-22.87-.83-6.06-1.23-25.9-2.34-31.88-1-5.33-.46-14-.82-19.43,4.06,4.47,6.58,9.73,17,4.29,5.12-2.66-1.3-13-4.61-16.37,1.92-3.13,4.68-12.52,2.71-15.84-3.23-5.45-10.49-3.3-14,.06a30.15,30.15,0,0,0-6.57,10c-.2-7.61,3.22-14.67,3.35-22.51,0-2.74,0-6.59-1.61-8.69-3.28-4.38-9.61-1.22-12.8,1.54C427.2,1465.78,429.6,1486.1,432.22,1496.92Z"/><path class="cls-2" d="M314,1573.4c-8.12,0-16.24.43-24,2.45a92.06,92.06,0,0,0-9.6,3.17c-3.31,1.27-3.53,1.92-3.55,5.31,0,6.82-1.3,16.6,1.58,22.59,3.18,6.61,14.65,10.19,20.94,12.25,12.24,4,27.73,4,40.51,3,6.79-.55,15.08-3.82,19.32-8.68a38,38,0,0,1,3.82-4c1.86-1.67,1.76-1.46,2.24-3.51.77-3.25,1.57-6.58,2.3-10,1.25-5.81,1.72-12-.53-17.44-3-7.35-14.2-6.64-21-6.64C340.84,1572,314.3,1569.66,314,1573.4Z"/><path class="cls-3" d="M290.13,1552a143.73,143.73,0,0,1,15.17,22.44c2.19,4.21,4.47,8,6.59,12.1,3.45,6.63,4.16,9.06,6.18,9.35,3.24.46,7.4-4.8,8.56-9.88,1-4.52-.4-8.41-2.84-15-2.08-5.63-2.85-5.41-4.27-9.79-2.82-8.71-.68-12.41-2.9-14.84S308.21,1543.23,290.13,1552Z"/><path class="cls-4" d="M215.65,1430.76s-6-34.15,11.32-46.63,38.74-26.94,55.46-10c0,0,11.23-16.85,31.32-11.63s35.3,9.64,49.16,28.85,35.8,82.17-5.67,113C340.33,1516.93,199.32,1548.63,215.65,1430.76Z"/><path class="cls-2" d="M387.59,1423c-24.88-7.67-41.48,12.7-41.48,12.7s-10.37-45-61.84-41.84c-37.12,2.28-49.64,25.36-53.64,39.2-8.27-6.84-22.59-15-33.3-1.83-14.93,18.43,2.6,49.63,33.86,43.09-3.34,17.53-.64,29.7,2.34,37.48,4.77,12.46,8,15.19,24.91,40,9.76,14.27,10.41,13.88,12.94,16.3a19.81,19.81,0,0,0,2.14,1.59c7.78,4.85,40.27-12.35,50.29-19,22.06-14.67,32.94-20.29,34.83-30.32.58-3.09.67-7.11.79-12.69a204.69,204.69,0,0,0-1-23.06c-.35-4.3-.88-10-1.7-16.75,0,0,21.71,1.21,31.91-2.11S412.47,1430.64,387.59,1423Z"/><path class="cls-4" d="M234.31,1352.52c-3-6.29-8-11-13.51-15.14-8.75-6.52-18.64-5.73-29.52-4.85-13.76,1.11-25.4,14.79-31.83,25.47-7.94,13.19-10.36,26.12-8.92,41.16.56,5.77,1.29,11.37,4.09,16.39,1.68,3,3.88,5.68,5.39,8.76,1.24-11.33,11.61-22.16,19-30.42,3.56-4,8.07-11.32,14.4-11.83,2.52-.2,7.74,2,10.16,2.83,4.2,1.4,8.43,3,12.72,4.07,3.37-3.63,9.15-6.83,13.15-10.32C236.7,1372.3,238.13,1360.52,234.31,1352.52Z"/><path class="cls-4" d="M347.6,1365.31c2.86-2.35,2.95-7.19,3.44-10.77.77-5.63,1-12.84,3.85-17.93,4.42-8,14.12-12.47,22.85-14.6,14.1-3.46,28.33.8,40.49,8.11s18.28,15.88,21.48,29.39c3.71,15.64,5.12,35.93-8.21,48.27a53.39,53.39,0,0,0,.35-21.12c-3.08-15.17-13.43-19.47-29.89-19-8.42.26-13.94,3-21.26,6.57-4.21,2.08-10,6.57-14.22,4.82-1.49-.61-2.15-2.36-3.54-3.13-3.61-2-10.3-1.69-13.26-4.76a21.71,21.71,0,0,1-1.41-3.08c-.25-.48.2-1.61,0-1.95Z"/><path d="M241.67,1378.87a2.41,2.41,0,0,0,.19-1.36c-.15-2-.77-4-1.07-6-.19-1.25-1.52-3.8-3-4.28-1.3-.41-2.77.48-3.94,1a53.08,53.08,0,0,0-7.2,3.7,43.76,43.76,0,0,0-9.66,8.8c-2.56,3.12-7.62,8.64-3.59,12.27,1.74,1.58,6.42,1.59,8.69.81s3.77-3.21,5.36-4.7c3.36-3.15,6.79-6.54,11.19-8.61C240.18,1379.71,241.25,1379.64,241.67,1378.87Z"/><path d="M371.93,1385c-1.35-3.94-6.35-8.93-9.6-11.68a55.05,55.05,0,0,0-16.21-9.23,7,7,0,0,0-2.89-.5l.1-.21-.14.21c-3.57.22-5.44,3.84-4.93,7.6l-2.12,3.28s18.05,10.24,21,18.22C360.8,1390.46,374.6,1392.81,371.93,1385Z"/><path d="M268.06,1444.49c-7-1.42-5.28,15.33-5,18.11.42,3.94,3.82,8.9,6.61,2.91,1.38-3,.47-6.64.67-10.15C270.57,1451.65,271.53,1444.84,268.06,1444.49Z"/><path d="M296.82,1444c-6.89-2.09-6.61,14.74-6.56,17.54.07,4,3,9.22,6.33,3.53,1.64-2.81,1.05-6.56,1.56-10C298.69,1451.35,300.26,1444.67,296.82,1444Z"/><path class="cls-5" d="M276.14,1471.61a3,3,0,0,1,1.34,2.75,13.54,13.54,0,0,1-.68,2.72c-.31.87-.62,1.72-1,2.53l-.45,1.22-.46,1.28a49.67,49.67,0,0,1-5.2,9.74l-.1,0c.73-3.5,1.89-6.86,2.71-10.23l.33-1.26L273,1479c.25-.86.55-1.7.79-2.52s.44-1.63.65-2.4a6.36,6.36,0,0,1,1.55-2.46Z"/><path class="cls-5" d="M267.84,1493.71a4.92,4.92,0,0,0-3.12,1.83,4.41,4.41,0,0,0-.74,2.83,5.34,5.34,0,0,0,.58,2.26l-.11.06a4.45,4.45,0,0,1-1.73-1.82,3.71,3.71,0,0,1,0-3.57,4.11,4.11,0,0,1,2.26-1.62A4.76,4.76,0,0,1,267.84,1493.71Z"/><path class="cls-5" d="M284.19,1493.48a5.76,5.76,0,0,1,3.67,1.18,4.9,4.9,0,0,1,1.67,2.54,5.26,5.26,0,0,1-1.15,4.49,8.11,8.11,0,0,0-1.05-4.71,14.91,14.91,0,0,0-1.6-2A16.78,16.78,0,0,0,284.19,1493.48Z"/><path class="cls-6" d="M301.49,1520.77a14.94,14.94,0,0,0,5.85-2.64,13.75,13.75,0,0,1-3.2,11.22c-4.55,5-11,4.27-11.56,4.2,0,0-5.26-5.77-5.58-6.3s-.11-4.2-.11-4.38a3.81,3.81,0,0,1,.94-1.83C290.05,1518.58,295.28,1522,301.49,1520.77Z"/><path class="cls-7" d="M306.57,1511.52c.15.39,1.56,4.41-.75,7.66a7.27,7.27,0,0,1-3.7,2.77,6.87,6.87,0,0,1-2.66.3,46.06,46.06,0,0,0-15-2.51,47.93,47.93,0,0,0-27.14,8.77c6.31.19,9.22,2.11,10.69,4,1.17,1.5,1.38,2.91,3,3.71s2.74,0,7.39-1c3.12-.62,6-1.4,9.2-2a26.26,26.26,0,0,0,6.66-1.93,15.78,15.78,0,0,1,4.18-1.87c.27-.54,1.48-.89,1.82-1.51.24-.43.19-.92.44-1.37l.12-.22a15.61,15.61,0,0,0,2.43-1.4,15,15,0,0,0,3.44-3.26C309.29,1518,306.76,1512,306.57,1511.52Z"/><path class="cls-6" d="M258.5,1520.62c1.12-.59,3.24-1.37,8-2.47a55.26,55.26,0,0,1,10-1.09c1.43-.07,2.7-.06,4.16,0,4.66.07,11.3.79,16.29,2.92,1.41.59,5.17,1.62,4.38,2.07s-5.66.19-8.47.07c-8.73-.38-15.15,2-22.39,3.87-1.62.41-3.19.93-5.55,1.51a37.79,37.79,0,0,1-3.88.86c-2.08.33-3.14.49-4,.11a4.26,4.26,0,0,1-2.46-4.17C254.86,1522.59,256.5,1521.67,258.5,1520.62Z"/><path class="cls-6" d="M267.82,1535.49a6.27,6.27,0,0,1,2.41-2,12.5,12.5,0,0,1,2.58-.9,49.87,49.87,0,0,1,6.95-1.22c4.62-.39,12-.83,18.71-4,3-1.41,5.85-3.36,6.6-2.56.28.3.19.9-.19,1.86-2,5-6.95,7.82-7.8,8.29a29,29,0,0,1-7.92,2.78,60.11,60.11,0,0,1-7.45,1.07,33.5,33.5,0,0,1-9.55,0c-2.11-.35-3.78-.9-4.25-2.15A2.36,2.36,0,0,1,267.82,1535.49Z"/><path class="cls-5" d="M228.57,1446.58a9.81,9.81,0,0,0-5.83-5.84c-3.81-1.26-10.83-1.17-13.7,1.75,4.61-.1,7.76.21,11.65,2.42,3.61,2.06,5.09,4.84,5.66,8.57C227.8,1452.25,228.57,1447.77,228.57,1446.58Z"/><path class="cls-5" d="M353.2,1445.05a9.78,9.78,0,0,1,4.76-6.74c3.54-1.89,10.47-3,13.8-.59-4.56.68-7.61,1.52-11.08,4.36-3.22,2.63-4.2,5.62-4.14,9.4C354.92,1450.5,353.39,1446.22,353.2,1445.05Z"/><path class="cls-8" d="M325.15,1783.83c-.14,1.5-.32,3-.57,4.42-.5,2.85-1.24,5.62-1.85,8.37l-18.39,83.18c-3.11,14,0,30.68,6.93,37l4.31,3.93c6.91,6.3,15.11,0,18.22-14.07l10.77-48.74c2.21-10,3.94-23.11,8.47-29.85,4.11-6.11,9.81-7.86,12.57-17.38,2.48-8.53,1.33-20.41-.53-29.06-3.25-15.07-11.06-20.38-18.32-23.75-5-2.32-10.61-3.22-15.72-1.25-3.52,1.36-3.59,4-4.5,9.79C325.66,1772,325.71,1778.07,325.15,1783.83Z"/><polygon points="303.63 1884.44 337.24 1892.04 329.99 1924.06 295.14 1920.35 303.63 1884.44"/><path class="cls-9" d="M299.56,1897c-.14-2.37,7.47-2.29,8.6-2.31,4.77-.09,8.82,2.23,13.17,4,3.61,1.42,8.85,2.59,11.36,5.74,2.91,3.65,5,8.94,7.23,13,1.65,2.95,4.46,7,4.75,10.32.52,6-4.35,10-8.92,12.89-3.81,2.39-8.63,5-13,5.88a32.11,32.11,0,0,1-6.43.23c-2.76,0-5.8.35-8.51-.29a29.53,29.53,0,0,1-17.18-10.76c-3.45-4.47-4.55-12.22-3.92-17.68.4-3.53,2.59-6.71,4.56-9.55,1.45-2.1,3.12-4.08,4.68-6.11C297.07,1900.8,297.86,1899,299.56,1897Z"/><path class="cls-8" d="M264.3,1775.61l11.37,123.22c.94,10.16-2.39,20-7.39,21.92l-18,6.83c-5,1.9-9.86-4.85-10.8-15l-11.37-123.22c-.94-10.16,2.39-20,7.39-21.92l18-6.83C258.5,1758.7,263.36,1765.46,264.3,1775.61Z"/><polygon points="274.62 1886.38 237.3 1892.4 242.96 1940.51 281.52 1926.54 274.62 1886.38"/><path class="cls-9" d="M236.78,1902.12c-1.22-2.31,6.45-5.72,7.57-6.26,4.75-2.27,9.87-1.79,15-2.07,4.28-.23,10.06-1.46,14,.56,4.59,2.33,9.07,6.69,13.21,9.72,3,2.21,7.66,5,9.5,8.18,3.25,5.75.22,12.06-3.05,17-2.73,4.13-6.37,8.94-10.38,11.86a35.46,35.46,0,0,1-6.34,3.18c-2.78,1.27-5.66,3-8.68,3.6A32.61,32.61,0,0,1,245.5,1945c-5.51-2.92-10.16-10.18-12-16-1.21-3.72-.48-7.92.2-11.67.49-2.77,1.26-5.53,1.89-8.27C236,1907.08,236,1904.88,236.78,1902.12Z"/><path class="cls-2" d="M254.83,1600.3c-1.85,6.16-7.16,11-11.78,16.29-3.07,3.54-15.07,17.4-18.53,34.89a54.79,54.79,0,0,0-.47,18.22l2.63,1.57c1.95.84,5.28,1.89,8.52.67,4-1.51,5.7-5.66,7.3-9.71,9.3-23.54,9.19-23.49,9.91-24.69,5.43-9,13.82-15.38,16.56-17.45,5.74-4.32,8.76-5.3,12.09-10.16,3.17-4.61,4.13-10.57,4.06-14.81a10.13,10.13,0,0,0-1.83-6.08c-2.2-2.92-5.54-3.65-8.28-4.21-2.13-.45-9.54-2-13.85,2.22a16.79,16.79,0,0,0-2.61,4.19A49.93,49.93,0,0,0,254.83,1600.3Z"/><path class="cls-10" d="M370.13,1684q1.29-8.7,2.57-17.4c.25-1.73.06-6.73,1.2-8.12a49.37,49.37,0,0,0,9.21-17.63c1.15-4.06,3.62-13.18.79-23.42-.34-1-.73-1.93-1.18-2.91a39.72,39.72,0,0,0-11.45-14.46,111.64,111.64,0,0,0-.27-18.68c-.76-7.67-1.78-9.73-3.42-11.05-4.29-3.48-11.41-.75-12.63-.27.31,3.11.68,7,1.05,11.58.77,9.37.81,12.39-1.05,15.53a15.12,15.12,0,0,1-3.94,4.21c-5,4-10.55,4.77-14.21,5.26-13.62,1.81-20.43,2.72-29.74,2.63-17.84-.17-20.87-2.47-22.36-4-3.85-3.8-4.8-9.33-5.27-12.1a29.39,29.39,0,0,1,1.06-14,49.59,49.59,0,0,0-16.06,3.69,35,35,0,0,0-.26,13.68c1.42,7.54,4.84,10.86,7.11,21.58a16.91,16.91,0,0,1-1.32,10c-3.23,7.73-1.49,21.92-10,39.73-8.78,18.36-26.29,28.26-36,46-10.56,19.37-13,37.93-14.37,47.41a89.49,89.49,0,0,0-.81,16c.39,10.27,1,22,9.12,29.43a25.53,25.53,0,0,0,7,4.4c11.26,5.26,23.48,1.28,35.63,1.28,14.1,0,29.32-2.38,43,.35,12.81,2.55,25.13.18,37.46-3.49,10.19-3,22.36-3.5,29.48-12.9,2.8-3.69,3.47-9.75,4.54-14.35a50.47,50.47,0,0,0,1.16-14.25c-.49-9.75-4.07-20-7.52-29a34.08,34.08,0,0,0-4.74-8.35,38.59,38.59,0,0,1-.36-7.26C364.39,1709.92,368.2,1697.13,370.13,1684Z"/><path class="cls-2" d="M245.79,1681.72c7.14.61,13.81,4.81,20.85,8.24,4.69,2.28,23,11.21,42.74,11.2a65.78,65.78,0,0,0,19.64-3l.93-2.84a10.61,10.61,0,0,0-1.74-8.35c-2.77-3.56-7.7-4.41-12.51-5.18-27.91-4.47-27.82-4.37-29.31-4.83-11.27-3.51-20.47-10.39-23.48-12.64-6.29-4.7-8.2-7.43-14.37-9.72a33.23,33.23,0,0,0-17-1.07,10.67,10.67,0,0,0-6,2.93c-2.48,2.68-2.3,6-2.12,8.79.14,2.15.63,9.59,6.38,12.94a21.82,21.82,0,0,0,5.24,1.72A64,64,0,0,0,245.79,1681.72Z"/><path class="cls-2" d="M307.32,1690.23c-4,8.73,3.61,19.87,11.58,23.15,7,2.9,11,1.41,10.53-6.21-.52,3.94,8,5.54,10.43,6.41,6.95,2.42,12.77,2.58,20,1.83,4.33-.46,9.85-.82,8.86-6.55-.48-2.76-3.16-5.08-5.66-6.25,3.21,2.86,13.69,1,15.49-2.74,2.52-5.19-3.8-9.33-7.66-11.34-7.69-4-15.61-4.62-24.19-4.62-8,0-19.21-1.49-26.4,2.11C316.11,1685.68,310.81,1688.32,307.32,1690.23Z"/><path class="cls-11" d="M327.15,1619.09s11.4,30.35-23.33,33.25c0,0,31.57,3,29.38,23.59,0,0-1.84-26.31,28-26.84C361.18,1649.09,336.53,1653.72,327.15,1619.09Z"/></g><g id="zara_sidder_bagfra"><path class="cls-8" d="M289.33,703.83c.14,1.5.32,3,.57,4.42.5,2.85,1.24,5.62,1.85,8.37l18.39,83.18c3.11,14,0,30.68-6.93,37l-4.31,3.93c-6.91,6.3-15.11,0-18.22-14.07l-10.77-48.74c-2.21-10-3.94-23.11-8.47-29.85-4.11-6.11-9.81-7.86-12.57-17.38-2.48-8.53-1.33-20.41.53-29.06,3.24-15.07,11.06-20.38,18.32-23.75,5-2.32,10.61-3.22,15.72-1.25,3.52,1.36,3.59,4,4.5,9.79C288.82,692,288.77,698.07,289.33,703.83Z"/><polygon points="310.85 804.44 277.24 812.04 284.49 844.06 319.34 840.35 310.85 804.44"/><path class="cls-9" d="M314.92,817c.14-2.37-7.47-2.29-8.6-2.31-4.78-.09-8.82,2.23-13.17,3.95-3.61,1.42-8.85,2.59-11.36,5.74-2.91,3.65-5,8.94-7.23,13-1.65,3-4.46,7-4.75,10.32-.52,6,4.35,10,8.92,12.89,3.81,2.39,8.63,5,13,5.88a32.11,32.11,0,0,0,6.43.23c2.76,0,5.8.35,8.51-.29a29.53,29.53,0,0,0,17.18-10.76c3.45-4.47,4.55-12.22,3.92-17.68-.4-3.53-2.59-6.71-4.56-9.55-1.45-2.1-3.12-4.08-4.68-6.11C317.41,820.8,316.62,819,314.92,817Z"/><path class="cls-8" d="M350.18,695.61,338.81,818.83c-.94,10.16,2.39,20,7.39,21.92l18,6.83c5,1.9,9.86-4.85,10.8-15l11.37-123.22c.94-10.16-2.39-20-7.39-21.92l-18-6.83C356,678.7,351.12,685.46,350.18,695.61Z"/><polygon points="339.86 806.38 377.18 812.4 371.52 860.51 332.96 846.54 339.86 806.38"/><path class="cls-9" d="M377.69,822.12c1.23-2.31-6.44-5.72-7.56-6.26-4.75-2.27-9.87-1.79-15-2.07-4.28-.23-10.06-1.46-14,.56-4.59,2.33-9.07,6.69-13.21,9.72-3,2.21-7.66,4.95-9.5,8.18-3.25,5.75-.22,12.06,3.05,17,2.73,4.13,6.37,8.94,10.38,11.86a35.46,35.46,0,0,0,6.34,3.18c2.78,1.27,5.66,3,8.68,3.6A32.61,32.61,0,0,0,369,865c5.51-2.92,10.16-10.18,12-16,1.21-3.72.48-7.92-.2-11.67-.49-2.77-1.26-5.53-1.89-8.27C378.45,827.08,378.5,824.88,377.69,822.12Z"/><path class="cls-2" d="M261.25,609.84c7.7-1.29,16.08.38,24.61,1.35,5.67.65,27.83,3.17,48.56-1.73a83.09,83.09,0,0,0,19.63-7.28l0-2.47a8.47,8.47,0,0,0-4.57-6.17c-4.08-2.14-9.54-1.59-14.84-1C303.9,595.92,304,596,302.31,596c-13,0-24.92-3.15-28.81-4.18-8.15-2.17-11.06-3.85-18.29-4.13A46.18,46.18,0,0,0,237,591c-2.81,1.15-4.46,2.44-5.33,3.81-1.73,2.73-.43,5.35.66,7.48.86,1.66,3.82,7.43,11,8.66a32.85,32.85,0,0,0,6.07.06A93.45,93.45,0,0,0,261.25,609.84Z"/><path class="cls-2" d="M328.17,618.46C326.85,629,338.5,638.15,347.94,639c8.34.73,12-2.13,9-10,.74,4.3,10.18,3.2,13.06,3.29,8.09.26,14.26-1.48,21.62-4.66,4.39-1.9,10.07-4.1,7.14-9.79-1.41-2.74-5-4.29-8-4.71,4.32,2,14.7-3.46,15.37-8,.94-6.29-7-8.55-11.78-9.39-9.39-1.67-17.91.28-26.91,3.1-8.42,2.64-20.67,4.75-27,10.9C335.9,610.8,331.21,615.31,328.17,618.46Z"/><path class="cls-2" d="M265.31,543c-2.05,5.11-7.88,9.09-13,13.51-3.38,2.94-16.59,14.42-20.4,28.93a34.66,34.66,0,0,0-.51,15.1l2.89,1.31a16.51,16.51,0,0,0,9.38.55c4.39-1.25,6.27-4.69,8-8,10.24-19.52,10.12-19.48,10.91-20.47,6-7.51,15.21-12.76,18.22-14.47,6.31-3.59,9.64-4.39,13.31-8.42a18.06,18.06,0,0,0,4.46-12.28,7,7,0,0,0-2-5.05c-2.41-2.41-6.09-3-9.1-3.49-2.35-.37-10.5-1.64-15.24,1.84a14.38,14.38,0,0,0-2.88,3.48A35.88,35.88,0,0,0,265.31,543Z"/><path class="cls-2" d="M410.58,631.21c-7.71-1.85-16.09.55-24.62,1.95-5.67.92-27.83,4.56-48.56-2.5a69.8,69.8,0,0,1-19.63-10.46l0-3.56c.31-2.44,1.26-6.38,4.57-8.87,4.08-3.07,9.54-2.28,14.84-1.44,30.77,4.87,30.65,4.95,32.37,4.95,13,0,24.91-4.53,28.81-6,8.15-3.11,11.06-5.54,18.28-5.94,6.87-.38,13.79,2.24,18.25,4.85,2.81,1.65,2.77,3.69,3.64,5.65,1.73,3.93.93,7.44-.17,10.5-2.15,6,1.35,9.79-9.76,12.53-1.38.34-2.94.26-6.07.09A64.75,64.75,0,0,1,410.58,631.21Z"/><path class="cls-2" d="M343.16,619c1.31,11.36-10.33,21.33-19.77,22.22-8.34.8-12-2.3-9-10.82-.75,4.67-10.18,3.47-13.07,3.57-8.08.28-14.25-1.61-21.61-5-4.4-2.06-10.07-4.44-7.15-10.61,1.42-3,5-4.64,8-5.09-4.33,2.12-14.7-3.76-15.37-8.63-.94-6.81,7.05-9.26,11.77-10.17,9.39-1.81,17.92.3,26.92,3.36,8.42,2.85,20.67,5.14,27,11.8C335.43,610.66,340.12,615.55,343.16,619Z"/><path class="cls-2" d="M404.77,541.43c2.05,7.35,7.88,13.07,13,19.43,3.37,4.22,16.58,20.74,20.39,41.6a70.9,70.9,0,0,1,.52,21.71l-2.9,1.88c-2.15,1-5.81,2.26-9.37.8-4.39-1.8-6.27-6.74-8-11.58-10.24-28.07-10.12-28-10.91-29.43-6-10.8-15.21-18.34-18.23-20.81-6.31-5.16-9.63-6.32-13.3-12.11-3.48-5.5-4.54-12.6-4.46-17.66a12.75,12.75,0,0,1,2-7.25c2.41-3.48,6.1-4.35,9.1-5,2.36-.53,10.51-2.37,15.25,2.65.91,1,1.57,2.31,2.87,5A62.72,62.72,0,0,1,404.77,541.43Z"/><path class="cls-2" d="M330.4,517.76c-8.93,0-17.87.49-26.45,2.71A101.06,101.06,0,0,0,293.39,524c-3.65,1.39-3.89,2.11-3.91,5.84,0,7.51-1.43,18.26,1.74,24.85,3.5,7.28,16.12,11.22,23,13.48,13.47,4.41,30.51,4.44,44.58,3.3,7.46-.6,16.59-4.2,21.26-9.55a41.4,41.4,0,0,1,4.2-4.35c2.05-1.84,1.94-1.61,2.47-3.86.84-3.58,1.73-7.25,2.53-11,1.38-6.39,1.9-13.16-.59-19.18-3.33-8.09-15.62-7.31-23.13-7.31C360,516.22,330.74,513.66,330.4,517.76Z"/><path class="cls-2" d="M304.15,494.21c5.85,7.24,12.43,16.46,16.69,24.69,2.41,4.64,4.92,8.84,7.25,13.31,1.75,3.37,3.63,8.15,6.4,10.84,1.86-7.17,10.54-16.22,8.28-23.7-1.51-5-4.53-10-6.28-15a47.55,47.55,0,0,1-1.84-6.78c-.36-1.87-.12-8.23-1.36-9.54-2.75-2.93-13.56-1.34-16.6-.13C312.93,489.39,309.21,491.7,304.15,494.21Z"/><path class="cls-2" d="M402.13,351.07c-27.38-8.44-36.38,15.14-36.38,15.14s-11.42-49.51-68.05-46c-40.84,2.5-54.62,27.91-59,43.13-9.1-7.53-24.86-16.56-36.64-2-16.44,20.29,2.86,54.62,37.26,47.43-3.67,19.29-.7,32.68,2.57,41.24,5.25,13.72,8.77,16.72,27.41,44,10.74,15.71,11.46,15.28,14.24,17.94a22.32,22.32,0,0,0,2.36,1.75c8.56,5.34,44.31-13.59,55.34-20.92,24.27-16.14,36.24-22.32,38.33-33.36.64-3.4.73-7.83.87-14A229.8,229.8,0,0,0,379.28,420c-.39-4.73-1-11-1.88-18.44,0,0,14.63.17,25.85-3.47S429.51,359.51,402.13,351.07Z"/><path class="cls-10" d="M293.53,524.23a54.59,54.59,0,0,0-17.66,4.06,38.36,38.36,0,0,0-.29,15.05c1.56,8.3,5.33,12,7.82,23.75a18.56,18.56,0,0,1-1.45,11c-3.56,8.51-1.64,24.13-11,43.72a88,88,0,0,1-16.8,23.75l135.52,11c.31,0,8.44-54.09,8.43-58.32,0-8.47.39-17.1-.86-25.27-.64-4.19-1.53-8.4-1.76-12.72-.29-5.64-1.69-11.15-1.86-16.58-.17-5.73.09-11.39-.48-17.12-.83-8.44-2-10.71-3.76-12.16-4.73-3.83-12.56-.83-13.9-.29.34,3.42.75,7.73,1.16,12.74.84,10.31.89,13.63-1.16,17.08a16.31,16.31,0,0,1-4.34,4.63c-5.51,4.37-11.61,5.26-15.64,5.8-15,2-22.48,3-32.72,2.89-19.63-.18-23-2.72-24.61-4.34-4.24-4.19-5.28-10.28-5.79-13.32A32.42,32.42,0,0,1,293.53,524.23Z"/><path class="cls-4" d="M222.19,360.8s-6.56-37.58,12.45-51.31,42.64-29.65,61-11c0,0,12.35-18.55,34.46-12.8,14.69,3.82,27,7.24,38.1,15.32a90.94,90.94,0,0,1,16,16.42c23.49,32.29,25.34,118.41-20.5,153.25-5.08,3.86-17,12.72-34,13.9-16.37,1.15-28.7-5.49-42.47-13.12-11.83-6.57-31.15-17.28-46.33-40.16C221.56,402,221.6,372,222.19,360.8Z"/><path class="cls-4" d="M242.72,274.71c-3.31-6.92-8.79-12.13-14.87-16.66-9.62-7.18-20.5-6.31-32.48-5.34-15.14,1.22-28,16.28-35,28-8.73,14.51-11.4,28.74-9.81,45.29.61,6.35,1.42,12.51,4.49,18,1.86,3.33,4.28,6.25,5.94,9.64,1.36-12.47,12.78-24.39,20.93-33.48,3.92-4.38,8.88-12.45,15.85-13,2.77-.23,8.52,2.22,11.17,3.11,4.63,1.54,9.28,3.26,14,4.47,3.7-4,10.06-7.51,14.46-11.35C245.35,296.47,246.93,283.51,242.72,274.71Z"/><path class="cls-4" d="M367.39,288.78c3.15-2.58,3.25-7.91,3.78-11.86.85-6.19,1.15-14.12,4.24-19.73,4.87-8.85,15.54-13.71,25.14-16.06,15.53-3.8,31.18.88,44.56,8.93s20.12,17.47,23.64,32.34c4.08,17.21,5.63,39.54-9,53.12a58.84,58.84,0,0,0,.38-23.25c-3.39-16.68-14.78-21.42-32.89-20.86-9.27.29-15.34,3.25-23.4,7.24-4.63,2.28-11,7.22-15.65,5.3-1.64-.68-2.36-2.61-3.89-3.45-4-2.18-11.34-1.85-14.59-5.24-.51-.52-1.13-2.57-1.56-3.39-.27-.52.23-1.77,0-2.14Z"/><path d="M250.82,303.7a2.66,2.66,0,0,0,.21-1.5c-.17-2.2-.85-4.45-1.18-6.65-.21-1.38-1.67-4.18-3.34-4.71-1.44-.45-3,.53-4.34,1.11a58.7,58.7,0,0,0-7.93,4.08,48,48,0,0,0-10.62,9.67c-2.82,3.44-8.39,9.51-4,13.51,1.92,1.73,7.07,1.75,9.57.88s4.15-3.52,5.9-5.16c3.69-3.47,7.47-7.2,12.32-9.48C249.19,304.63,250.36,304.55,250.82,303.7Z"/><path d="M394.16,310.46c-1.49-4.34-7-9.83-10.57-12.86a60.68,60.68,0,0,0-17.83-10.15,7.79,7.79,0,0,0-3.18-.55l.11-.23-.15.23c-3.94.24-6,4.22-5.43,8.36l-2.34,3.61s19.88,11.28,23.13,20.05C381.91,316.46,397.1,319.05,394.16,310.46Z"/><path class="cls-10" d="M260.84,643.6C254,644,248,653,245.75,658.8c-3.45,9-7,19.26-7.52,29a50.47,50.47,0,0,0,1.16,14.25c1.07,4.6,1.74,10.66,4.54,14.35,7.12,9.4,19.29,9.87,29.48,12.9,12.33,3.67,24.65,6,37.46,3.49,13.69-2.73,28.91-.35,43-.35,12.15,0,24.37,4,35.63-1.28a27,27,0,0,0,11.71-9.67c4.42-6.31,4.08-16.58,4.44-24.16.66-14-7.9-26.39-13-38.75-1.32-3.18-1.53-6.69-4.07-9.18s-5.87-3.55-9-4.52c-9.93-3-19.6-3.72-29.83-4.82-21.48-2.29-43.14-4-64.76-3.91-8,0-18.12-.55-24.26,5.28-2.06,1.95-9.3,5.93-8.83,8.35"/></g></g></svg>
