<svg xmlns="http://www.w3.org/2000/svg" width="150" height="600" viewBox="0 0 150 600"><defs><style>.cls-1{fill:#f9cc9b;}.cls-2{fill:#f4c990;}.cls-3{fill:#adadad;}.cls-4{fill:#474747;}.cls-10,.cls-16,.cls-18,.cls-19,.cls-5,.cls-7,.cls-8,.cls-9{isolation:isolate;}.cls-10,.cls-11,.cls-18,.cls-19,.cls-29,.cls-6,.cls-7,.cls-8,.cls-9{fill:#fff;}.cls-7,.cls-8{font-size:2.09px;}.cls-10,.cls-16,.cls-18,.cls-19,.cls-7,.cls-8,.cls-9{font-family:MyriadPro-Regular, Myriad Pro;}.cls-7{letter-spacing:-0.01em;}.cls-10,.cls-9{font-size:1.83px;}.cls-9{letter-spacing:-0.07em;}.cls-11,.cls-12{stroke:#666;}.cls-11,.cls-12,.cls-27{stroke-miterlimit:10;}.cls-12,.cls-27{fill:none;}.cls-13{fill:#c1c1c1;}.cls-14{fill:#45ff00;}.cls-15{fill:#f9f9f9;}.cls-16{font-size:3.02px;}.cls-17{fill:#b7b7b7;}.cls-18,.cls-19{font-size:1.06px;}.cls-18{letter-spacing:-0.01em;}.cls-20{fill:#f4d39d;}.cls-21{fill:#8e7e3a;}.cls-22{fill:#f9d9aa;}.cls-23{fill:#705d32;}.cls-24{fill:#e7da00;}.cls-25{fill:#0080b9;}.cls-26{fill:#85d2ed;}.cls-27{stroke:#000;stroke-width:0.5px;}.cls-28{fill:#d1a76b;}.cls-29{opacity:0.5;}</style></defs><title>arm_med_mobil_spritesheet</title><g id="Layer_3" data-name="Layer 3"><path class="cls-1" d="M89.84,121.68c0-3,0-4.51,0-6.52,0-4,0-9.81.13-17.49.07-6.3-4.21-7.47-9.94-8.11-2.65-.29-4.72,1-7.16,1.81C67.72,93.08,60,94.93,57,99.9c-.16,7.39,0,13.41.12,17.64.2,5.69.46,8.33.4,13.48-.07,5.74-.47,9.74-.82,13.52-1.56,17-2.34,25.53-1.57,29.5.85,4.36,3.45,17.65,14.15,21.66,7.5,2.81,17.17.38,21.92-5.57,3.49-4.36,3.33-10.3,3-22.17-.11-4.39-.55-8.35-1.44-16.27C91.18,137.51,89.93,132.14,89.84,121.68Z"/><ellipse class="cls-2" cx="72.77" cy="94.7" rx="20.24" ry="13.88" transform="translate(-34.53 42.26) rotate(-26.41)"/><rect x="33.12" y="10.21" width="46.22" height="81.55" rx="4.46" ry="4.46" transform="translate(-14.78 24.17) rotate(-21.51)"/><path class="cls-3" d="M58.81,6.66A4,4,0,0,1,64,8.9L90.6,76.47a4,4,0,0,1-2.24,5.15L53.65,95.3a4,4,0,0,1-5.16-2.24L21.86,25.49a4,4,0,0,1,2.24-5.15L58.81,6.66m-.36-.9L23.74,19.44A5,5,0,0,0,21,25.85L47.6,93.42A5,5,0,0,0,54,96.2L88.71,82.52a5,5,0,0,0,2.79-6.4L64.86,8.54A5,5,0,0,0,58.45,5.76Z"/><circle class="cls-4" cx="69.38" cy="83.63" r="2.92"/><path class="cls-4" d="M39.67,18.6,46.32,16a.35.35,0,0,1,.45.2h0a.34.34,0,0,1-.19.45l-6.66,2.62a.35.35,0,0,1-.45-.2h0A.35.35,0,0,1,39.67,18.6Z"/><circle class="cls-4" cx="37.6" cy="19.79" r="0.61"/><g class="cls-5"><path class="cls-6" d="M38.29,32.63h0l-.87,1L37,33.08l1.09-1.29.73-.29,2.49,6.33-.83.33Z"/><path class="cls-6" d="M46.54,32c.85,2.15.51,3.65-.88,4.2-1.24.49-2.54-.34-3.39-2.42s-.37-3.65.92-4.16S45.75,30,46.54,32Zm-3.4,1.45c.65,1.64,1.53,2.38,2.31,2.07s.88-1.53.24-3.14-1.41-2.43-2.3-2.08S42.46,31.76,43.14,33.48Z"/><path class="cls-6" d="M48.48,34.42a.62.62,0,0,1,.33-.84.66.66,0,1,1-.33.84ZM47.12,31a.61.61,0,0,1,.34-.84.59.59,0,0,1,.81.38.61.61,0,0,1-.34.84A.62.62,0,0,1,47.12,31Z"/><path class="cls-6" d="M53.55,29.26c.85,2.15.51,3.66-.88,4.21s-2.54-.34-3.39-2.42-.37-3.66.92-4.16S52.76,27.25,53.55,29.26Zm-3.4,1.45c.65,1.65,1.53,2.38,2.31,2.08s.88-1.53.24-3.15-1.41-2.42-2.3-2.07S49.47,29,50.15,30.71Z"/><path class="cls-6" d="M55.43,31.13A3.11,3.11,0,0,0,57,31a1.33,1.33,0,0,0,1-1.79,1.51,1.51,0,0,0-2.13-.62l-.48.19-.26-.65.48-.18c.62-.25,1.29-.88,1-1.63a1,1,0,0,0-1.48-.52,2.46,2.46,0,0,0-1.1.92l-.48-.53A3.2,3.2,0,0,1,54.94,25a1.65,1.65,0,0,1,1.83,2.75v0a1.77,1.77,0,0,1,2,1.06c.4,1,0,2.21-1.56,2.81a3.46,3.46,0,0,1-1.81.22Z"/></g><g class="cls-5"><text class="cls-7" transform="matrix(0.93, -0.37, 0.37, 0.93, 44.11, 40.58)">t</text><g class="cls-5"><path class="cls-6" d="M45.54,39.41a.51.51,0,0,1-.28.69.48.48,0,0,1-.64-.31.49.49,0,0,1,.27-.68A.49.49,0,0,1,45.54,39.41Zm-.75.31c.09.21.27.32.43.25a.34.34,0,0,0,.14-.48c-.06-.16-.22-.33-.42-.25A.35.35,0,0,0,44.79,39.72Z"/><path class="cls-6" d="M45.69,39.16l-.13-.29.15-.06.08.18h0a.32.32,0,0,1,.18-.31H46l.06.16-.06,0a.25.25,0,0,0-.14.31.16.16,0,0,0,0,.08l.19.5-.17.07Z"/><path class="cls-6" d="M46.49,39.39a.55.55,0,0,0,.25,0c.12,0,.16-.13.13-.21s-.1-.11-.24-.1-.32-.06-.36-.17a.32.32,0,0,1,.22-.41.45.45,0,0,1,.25,0v.14a.45.45,0,0,0-.22,0,.16.16,0,0,0-.11.19c0,.08.11.09.25.09a.34.34,0,0,1,.36.19c.06.17,0,.33-.24.42a.63.63,0,0,1-.29,0Z"/><path class="cls-6" d="M47.62,37.55l.45,1.14c0,.08.07.18.1.24L48,39l-.08-.16h0a.36.36,0,0,1-.24.31.47.47,0,0,1-.6-.32.49.49,0,0,1,.22-.67.35.35,0,0,1,.35,0h0l-.22-.56Zm.15.89,0-.07a.29.29,0,0,0-.33-.1c-.18.07-.22.27-.14.48s.23.31.42.24a.29.29,0,0,0,.17-.31s0,0,0-.07Z"/><path class="cls-6" d="M49,38.33a1.56,1.56,0,0,0,.1.22l-.15.07-.06-.12h0a.37.37,0,0,1-.23.26.28.28,0,0,1-.39-.16c-.09-.23.06-.43.43-.57v0a.21.21,0,0,0-.3-.13.45.45,0,0,0-.22.16l-.09-.1a.67.67,0,0,1,.28-.2.35.35,0,0,1,.51.24Zm-.27-.19c-.18.07-.38.19-.31.37a.15.15,0,0,0,.22.1.23.23,0,0,0,.17-.24s0,0,0-.06Z"/><path class="cls-6" d="M50.14,38a.49.49,0,0,1-.26.73.74.74,0,0,1-.35.05v-.15a.6.6,0,0,0,.31,0,.3.3,0,0,0,.17-.45l0-.1h0a.39.39,0,0,1-.24.28.45.45,0,0,1-.58-.31.47.47,0,0,1,.23-.66.32.32,0,0,1,.35,0h0l0-.14.15-.06c0,.07.05.14.09.26Zm-.34-.37,0-.07a.27.27,0,0,0-.32-.09c-.16.06-.22.25-.14.47s.23.3.42.23a.28.28,0,0,0,.17-.27.17.17,0,0,0,0-.1Z"/><path class="cls-6" d="M50.83,37.88l0-.1.08-.19c.21-.43.29-.66.21-.85a.24.24,0,0,0-.34-.15.49.49,0,0,0-.23.22l-.1-.1a.61.61,0,0,1,.3-.27.39.39,0,0,1,.54.21c.09.24,0,.49-.17.86l-.06.13h0l.57-.22,0,.14Z"/><path class="cls-6" d="M52.1,36.06l-.12.06a.55.55,0,0,0-.27.62h0a.39.39,0,0,1,.25-.27.4.4,0,0,1,.54.26.45.45,0,0,1-.24.61c-.27.11-.53,0-.66-.36a.84.84,0,0,1,0-.66.79.79,0,0,1,.33-.35l.12,0Zm.24.75a.27.27,0,0,0-.37-.19.29.29,0,0,0-.19.25.22.22,0,0,0,0,.08c.09.21.25.33.43.26A.29.29,0,0,0,52.34,36.81Z"/><path class="cls-6" d="M52.81,37a.13.13,0,0,1,.06-.17.12.12,0,0,1,.17.08.13.13,0,0,1-.07.17A.12.12,0,0,1,52.81,37Z"/><path class="cls-6" d="M54.28,36.26a.9.9,0,0,0,.1.22l-.16.06-.06-.11h0a.4.4,0,0,1-.24.26.28.28,0,0,1-.39-.16c-.09-.23.06-.43.43-.57v0a.21.21,0,0,0-.3-.14.54.54,0,0,0-.22.17l-.08-.1a.6.6,0,0,1,.28-.2c.29-.12.43,0,.51.24ZM54,36.07c-.19.07-.39.19-.32.37a.16.16,0,0,0,.23.1.26.26,0,0,0,.17-.25s0,0,0,0Z"/><path class="cls-6" d="M54.39,35.74l-.13-.3.15-.06.08.16h0a.39.39,0,0,1,.26-.32.46.46,0,0,1,.59.32.48.48,0,0,1-.23.68.34.34,0,0,1-.35,0h0l.2.51-.17.07Zm.27.19,0,.07a.31.31,0,0,0,.34.1c.18-.08.23-.26.14-.48a.33.33,0,0,0-.42-.24.29.29,0,0,0-.17.31s0,.05,0,.08Z"/></g><text class="cls-8" transform="matrix(0.93, -0.37, 0.37, 0.93, 55.62, 36.04)">r</text><text class="cls-8" transform="matrix(0.93, -0.37, 0.37, 0.93, 56.27, 35.79)">il</text></g><rect class="cls-6" x="26.24" y="30.19" width="0.83" height="0.83" transform="translate(-9.37 11.91) rotate(-21.51)"/><rect class="cls-6" x="28.02" y="28.42" width="0.83" height="1.85" transform="translate(-8.78 12.47) rotate(-21.51)"/><rect class="cls-6" x="27.15" y="29.3" width="0.83" height="1.34" transform="translate(-9.07 12.2) rotate(-21.51)"/><rect class="cls-6" x="28.95" y="27.63" width="0.83" height="2.27" transform="translate(-8.5 12.77) rotate(-21.51)"/><g class="cls-5"><text class="cls-9" transform="matrix(0.93, -0.37, 0.37, 0.93, 31.09, 28.96)">T</text><text class="cls-10" transform="matrix(0.93, -0.37, 0.37, 0.93, 31.82, 28.68)">elenor</text></g><path class="cls-11" d="M61.05,15.45l-2,.8a.26.26,0,0,0-.15.34l.19.48a.27.27,0,0,0,.34.15h0l2-.8Z"/><path class="cls-12" d="M61.07,15.46l2-.79a.27.27,0,0,1,.34.15l.18.46a.27.27,0,0,1-.15.34h0l-2,.78Z"/><rect class="cls-13" x="35.02" y="40.62" width="38.55" height="10.73" rx="3.89" ry="3.89" transform="translate(-13.08 23.11) rotate(-21.51)"/><path d="M66.76,42.32l-1.11-2.81.4-.16,1.45,1.07a8.57,8.57,0,0,1,.86.71h0c-.18-.37-.32-.7-.49-1.14l-.47-1.17.34-.14,1.11,2.81-.36.14L67,40.56a9.65,9.65,0,0,1-.89-.73h0c.16.34.3.68.48,1.14l.48,1.2Z"/><path d="M70.94,40l.24.54-.32.13-.16-.32h0a.81.81,0,0,1-.52.64c-.32.12-.77.09-1-.61l-.47-1.18.37-.14.44,1.11c.15.38.37.6.7.47a.57.57,0,0,0,.35-.53.51.51,0,0,0,0-.2L70,38.71l.37-.14Z"/><rect class="cls-14" x="37.2" y="46.51" width="8.53" height="9.06" rx="4.26" ry="4.26" transform="translate(-15.83 18.76) rotate(-21.51)"/><ellipse class="cls-15" cx="41.09" cy="50.15" rx="3.08" ry="2.38" transform="translate(-15.53 18.56) rotate(-21.51)"/><polygon class="cls-15" points="40.23 53.74 41.23 52.55 39.71 52.2 40.23 53.74"/><g class="cls-5"><path d="M47.08,49.71l1-.4.08.21-.77.3.25.63.71-.28.08.2-.71.29.34.86-.25.09Z"/></g><text class="cls-16" transform="matrix(0.93, -0.37, 0.37, 0.93, 48.93, 51.23)">r</text><g class="cls-5"><path d="M50.85,50.05a3,3,0,0,0,.15.31l-.22.09-.09-.16h0a.54.54,0,0,1-.33.37.41.41,0,0,1-.57-.23c-.13-.33.09-.62.61-.83v0a.3.3,0,0,0-.43-.19.72.72,0,0,0-.32.24l-.12-.14a.93.93,0,0,1,.41-.3.51.51,0,0,1,.73.35Zm-.38-.28c-.27.1-.56.27-.46.53a.24.24,0,0,0,.33.15.36.36,0,0,0,.24-.36.19.19,0,0,0,0-.08Z"/><path d="M53.29,49.4a1.49,1.49,0,0,1-.47.28,1,1,0,0,1-1.32-.59,1,1,0,0,1,.6-1.39,1.39,1.39,0,0,1,.49-.1l0,.23a1,1,0,0,0-.42.07A.76.76,0,0,0,51.76,49a.74.74,0,0,0,1,.47,1.17,1.17,0,0,0,.37-.23Z"/><path d="M52.82,47.33l.25-.09.79,2-.25.1Z"/><path d="M55.1,48.37a3.26,3.26,0,0,0,.15.32l-.22.09-.09-.17h0a.52.52,0,0,1-.34.36.42.42,0,0,1-.57-.22c-.13-.33.1-.63.62-.83v0a.29.29,0,0,0-.43-.19.72.72,0,0,0-.32.24l-.12-.14a.9.9,0,0,1,.4-.3.52.52,0,0,1,.74.35Zm-.38-.27c-.28.1-.57.27-.46.53a.24.24,0,0,0,.32.15.36.36,0,0,0,.25-.36.2.2,0,0,0,0-.09Z"/></g><text class="cls-16" transform="matrix(0.93, -0.37, 0.37, 0.93, 55.44, 48.67)">r</text><g class="cls-5"><path d="M57.36,47.48a3.26,3.26,0,0,0,.15.32l-.22.09-.09-.17h0a.52.52,0,0,1-.34.36.42.42,0,0,1-.57-.22c-.13-.33.09-.63.62-.83v0a.3.3,0,0,0-.43-.2.81.81,0,0,0-.32.25L56,46.91a1,1,0,0,1,.4-.29.52.52,0,0,1,.74.35ZM57,47.2c-.28.11-.56.28-.46.54a.24.24,0,0,0,.32.15.37.37,0,0,0,.25-.37.19.19,0,0,0,0-.08Z"/><path d="M58.14,46.6l1-1.19.08.19-.89,1h0l1.32.12.07.2-1.57-.16Z"/><path d="M60,46.48a1,1,0,0,0,.45,0,.39.39,0,0,0,.28-.52.45.45,0,0,0-.62-.18l-.14.06-.08-.19.14-.05c.18-.07.38-.26.29-.47a.29.29,0,0,0-.43-.15.72.72,0,0,0-.32.26L59.46,45a.89.89,0,0,1,.43-.33.48.48,0,0,1,.7.23.51.51,0,0,1-.17.57h0a.5.5,0,0,1,.59.31c.12.29,0,.64-.45.81a1,1,0,0,1-.52.07Z"/></g><g class="cls-5"><path d="M45.79,46.4a2.56,2.56,0,0,1,.44-.22.81.81,0,0,1,.57-.07.45.45,0,0,1,.29.28.47.47,0,0,1-.16.54h0a.53.53,0,0,1,.58.32.52.52,0,0,1,0,.44,1,1,0,0,1-.58.44,2.48,2.48,0,0,1-.39.13ZM46.7,48l.21-.07c.26-.1.46-.29.35-.56s-.37-.28-.64-.18l-.2.08Zm-.35-.91.22-.09c.26-.1.35-.3.28-.48s-.29-.24-.54-.15l-.21.11Z"/><path d="M48.69,46.39l-.74.29.27.69L49,47l.08.21-1.07.42-.75-1.9,1-.4.08.2-.78.31.24.6.74-.29Z"/><path d="M49.29,46.84a.85.85,0,0,0,.49-.05c.25-.1.34-.29.27-.48s-.21-.24-.51-.23-.61-.08-.71-.35a.59.59,0,0,1,.41-.76,1,1,0,0,1,.45-.07v.23a.75.75,0,0,0-.39,0c-.26.1-.3.3-.25.43s.22.22.53.21.59.09.7.37a.62.62,0,0,1-.45.81,1,1,0,0,1-.53.07Z"/><path d="M50.08,44.68l.24-.1.36.92h0c0-.09.05-.18.07-.26l.3-.94.31-.12L51,45.25l1.17.8-.29.11-1-.68-.1.28.28.72-.24.1Z"/><path d="M53,44.7l-.73.29.27.68.82-.32.08.21L52.35,46l-.75-1.9,1-.41.08.21-.78.3.24.61.73-.29Z"/><path d="M53,43.56a3.32,3.32,0,0,1,.5-.25,1.24,1.24,0,0,1,.87-.07,1,1,0,0,1,.54.58,1.09,1.09,0,0,1,0,.85,1.23,1.23,0,0,1-.73.6l-.46.16Zm.91,1.58.25-.08a.79.79,0,0,0,.49-1.13.73.73,0,0,0-1.06-.43,1.43,1.43,0,0,0-.28.14Z"/></g><ellipse class="cls-1" cx="60.1" cy="104.36" rx="6.67" ry="13.16" transform="translate(-57.33 131.07) rotate(-72.87)"/><path class="cls-2" d="M56,109.38c-1.43.79-4.75-1.73-6.23-2.67a20.39,20.39,0,0,1-5.48-5.78,8.53,8.53,0,0,1-1.23-3.12c-.18-1-.18-1.35-.39-1.59a1.87,1.87,0,0,0-1.27-.46c-1.84-.16-4.51-2.42-5.63-3.84a8,8,0,0,1-.84-8,7.78,7.78,0,0,1-4.48-1,10.54,10.54,0,0,1-3.86-4.21c-.72-1.23-2-3.48-1.61-5.9a5.26,5.26,0,0,1,2.36-3.43,2.77,2.77,0,0,1,1.93-.53c1.53.23,2.75,1.92,3.26,2.45A147.28,147.28,0,0,1,42.55,83c3.22,4.16,7,7.91,9.94,12.22,2.06,3,1.9,4.7,2.91,7.87C55.9,104.64,57.19,107.89,56,109.38Z"/><path class="cls-2" d="M42.59,91.18a13.61,13.61,0,0,1,2.8-2.82c4.68-3.49,10.81-3.63,13.69-.31s1.43,8.85-3.25,12.35a14.58,14.58,0,0,1-3.56,1.94Z"/><path class="cls-2" d="M26.64,72.79c-.8-.91-1.05-2-.58-2.53a13.65,13.65,0,0,1,2-1.85c4.68-3.49,10.81-3.64,13.69-.31S43.2,77,38.52,80.45a13.91,13.91,0,0,1-2.38,1.43c-.65.32-1.75-.15-2.54-1.07Z"/><path class="cls-2" d="M33.67,80.9a12.91,12.91,0,0,1,2.8-2.82c4.68-3.5,10.81-3.64,13.69-.31s1.43,8.85-3.25,12.34a13.84,13.84,0,0,1-3.57,1.94Z"/><path class="cls-2" d="M98.43,71.67c-1.39-2.13-1.83-2.56-5-7.08-1.51-2.15-1.68-2.5-2.18-3.17-3.31-4.48-10.82-9.18-14.18-7-3.69,2.44-3.32,9.5.83,15.77a23.52,23.52,0,0,0,2,2.63,23.94,23.94,0,0,0-5.08,10.33C72.69,92.62,76.34,101,83,102S96.47,90.72,98.8,86.62a14.48,14.48,0,0,0,1.73-4.36A13.87,13.87,0,0,0,98.43,71.67Z"/><path class="cls-1" d="M89.84,321.68c0-3,0-4.51,0-6.52,0-4,0-9.81.13-17.49.07-6.3-4.21-7.47-9.94-8.11-2.65-.29-4.72,1-7.16,1.81C67.72,293.08,60,294.93,57,299.9c-.16,7.39,0,13.41.12,17.64.2,5.69.46,8.33.4,13.48-.07,5.74-.47,9.74-.82,13.52-1.56,17-2.34,25.53-1.57,29.5.85,4.36,3.45,17.65,14.15,21.66,7.5,2.81,17.17.38,21.92-5.57,3.49-4.36,3.33-10.3,3-22.17-.11-4.39-.55-8.35-1.44-16.27C91.18,337.51,89.93,332.14,89.84,321.68Z"/><ellipse class="cls-2" cx="72.77" cy="294.7" rx="20.24" ry="13.88" transform="translate(-123.5 63.14) rotate(-26.41)"/><rect x="33.12" y="210.21" width="46.22" height="81.55" rx="4.46" ry="4.46" transform="translate(-88.13 38.11) rotate(-21.51)"/><path class="cls-3" d="M58.81,206.66A4,4,0,0,1,64,208.9L90.6,276.47a4,4,0,0,1-2.24,5.15L53.65,295.3a4,4,0,0,1-5.16-2.24L21.86,225.49a4,4,0,0,1,2.24-5.15l34.71-13.68m-.36-.9L23.74,219.44A5,5,0,0,0,21,225.85L47.6,293.42A5,5,0,0,0,54,296.2l34.71-13.68a5,5,0,0,0,2.79-6.4L64.86,208.54A5,5,0,0,0,58.45,205.76Z"/><circle class="cls-4" cx="69.38" cy="283.63" r="2.92"/><rect class="cls-6" x="26.24" y="230.19" width="0.83" height="0.83" transform="translate(-82.71 25.84) rotate(-21.51)"/><rect class="cls-6" x="28.02" y="228.42" width="0.83" height="1.85" transform="translate(-82.13 26.41) rotate(-21.51)"/><rect class="cls-6" x="27.15" y="229.3" width="0.83" height="1.34" transform="translate(-82.42 26.13) rotate(-21.51)"/><rect class="cls-6" x="28.95" y="227.63" width="0.83" height="2.27" transform="translate(-81.85 26.71) rotate(-21.51)"/><g class="cls-5"><text class="cls-9" transform="matrix(0.93, -0.37, 0.37, 0.93, 31.09, 228.96)">T</text><text class="cls-10" transform="matrix(0.93, -0.37, 0.37, 0.93, 31.82, 228.68)">elenor</text></g><rect class="cls-17" x="24.79" y="219.88" width="43.53" height="12.95" transform="translate(-79.76 32.83) rotate(-21.51)"/><g class="cls-5"><path class="cls-6" d="M41.29,223.51h0l-.35.42-.17-.24.44-.52.3-.11,1,2.55-.33.14Z"/><path class="cls-6" d="M44.63,223.27c.34.87.2,1.48-.36,1.7s-1-.14-1.37-1-.15-1.48.37-1.68S44.31,222.45,44.63,223.27Zm-1.38.59c.27.66.62,1,.93.83s.36-.61.1-1.27-.56-1-.93-.84S43,223.16,43.25,223.86Z"/><path class="cls-6" d="M44.86,222.85a.25.25,0,1,1,.47-.18.25.25,0,0,1-.14.33A.24.24,0,0,1,44.86,222.85Zm.55,1.39a.25.25,0,0,1,.13-.34.24.24,0,0,1,.33.15.25.25,0,1,1-.46.19Z"/><path class="cls-6" d="M47.46,222.15c.34.87.21,1.48-.36,1.7s-1-.13-1.36-1-.15-1.47.36-1.68S47.14,221.34,47.46,222.15Zm-1.37.59c.26.66.61,1,.93.84s.35-.62.1-1.27-.57-1-.93-.84S45.81,222,46.09,222.74Z"/><path class="cls-6" d="M48.92,220.47l-1,.38.16.7.2-.1a1.18,1.18,0,0,1,.61-.08.78.78,0,0,1,.62.51,1,1,0,0,1-.61,1.25,1.34,1.34,0,0,1-.7.09v-.29a1.28,1.28,0,0,0,.6-.08.61.61,0,0,0,.39-.79c-.13-.33-.45-.47-1-.27a2,2,0,0,0-.35.16l-.32-1.29,1.23-.48Z"/></g><g class="cls-5"><text class="cls-18" transform="translate(42.68 227.25) rotate(-21.51)">t</text><g class="cls-5"><path class="cls-6" d="M43.46,226.69a.25.25,0,1,1-.46.19.26.26,0,0,1,.14-.35A.24.24,0,0,1,43.46,226.69Zm-.37.15c0,.1.13.16.21.13a.17.17,0,0,0,.07-.24c0-.08-.11-.17-.21-.13A.17.17,0,0,0,43.09,226.84Z"/><path class="cls-6" d="M43.54,226.56c0-.06,0-.1-.06-.15l.07,0,0,.09h0a.15.15,0,0,1,.1-.15h0l0,.08h0a.14.14,0,0,0-.07.16s0,0,0,0l.1.25-.08,0Z"/><path class="cls-6" d="M43.94,226.67a.2.2,0,0,0,.13,0c.06,0,.08-.06.06-.1s-.05-.06-.12-.06-.16,0-.18-.08a.15.15,0,0,1,.11-.2.22.22,0,0,1,.13,0v.07a.23.23,0,0,0-.11,0,.08.08,0,0,0-.05.1s.05,0,.12,0,.16,0,.18.1,0,.16-.12.21a.36.36,0,0,1-.14,0Z"/><path class="cls-6" d="M44.51,225.75l.23.57a.43.43,0,0,0,0,.12l-.08,0,0-.08h0a.17.17,0,0,1-.12.16.27.27,0,0,1-.18-.5.17.17,0,0,1,.17,0h0l-.11-.28Zm.08.45s0,0,0,0a.14.14,0,0,0-.16,0,.17.17,0,0,0-.07.24.17.17,0,0,0,.21.12.13.13,0,0,0,.08-.15s0,0,0,0Z"/><path class="cls-6" d="M45.22,226.14a1.17,1.17,0,0,0,.05.11l-.07,0,0-.06h0a.18.18,0,0,1-.12.12.13.13,0,0,1-.19-.08c-.05-.11,0-.21.21-.28h0s-.06-.11-.15-.07a.24.24,0,0,0-.11.08l0-.05a.3.3,0,0,1,.14-.1.18.18,0,0,1,.26.12Zm-.13-.1c-.1,0-.2.1-.16.19a.07.07,0,0,0,.11.05.14.14,0,0,0,.09-.12v0Z"/><path class="cls-6" d="M45.78,226a.26.26,0,0,1,0,.24.32.32,0,0,1-.15.13.35.35,0,0,1-.17,0v-.07a.5.5,0,0,0,.16,0c.09,0,.13-.11.09-.23l0,0h0c0,.06,0,.11-.12.14a.22.22,0,0,1-.29-.15.26.26,0,0,1,.12-.34.18.18,0,0,1,.18,0h0l0-.08.08,0a.43.43,0,0,0,0,.13Zm-.17-.18a.05.05,0,0,0,0,0,.12.12,0,0,0-.15,0c-.09,0-.12.12-.07.23a.15.15,0,0,0,.2.11.13.13,0,0,0,.09-.13s0,0,0,0Z"/><path class="cls-6" d="M46.14,225.91l0,0,0-.09c.1-.22.14-.33.1-.43a.12.12,0,0,0-.17-.08.23.23,0,0,0-.11.11l-.06-.05a.27.27,0,0,1,.16-.13.19.19,0,0,1,.27.1.62.62,0,0,1-.09.43l0,.07h0l.29-.11,0,.07Z"/><path class="cls-6" d="M46.78,225l-.06,0a.29.29,0,0,0-.14.31h0a.24.24,0,0,1,.13-.13.2.2,0,0,1,.27.13.23.23,0,0,1-.12.31.26.26,0,0,1-.33-.18.42.42,0,0,1,0-.33.37.37,0,0,1,.17-.18l.06,0Zm.12.38c0-.09-.11-.13-.19-.09a.14.14,0,0,0-.09.12v0c.05.11.13.17.22.13A.14.14,0,0,0,46.9,225.37Z"/><path class="cls-6" d="M47.13,225.46a.07.07,0,0,1,0-.09.07.07,0,0,1,.08,0,.07.07,0,0,1,0,.09A.07.07,0,0,1,47.13,225.46Z"/><path class="cls-6" d="M47.87,225.09l.06.12-.08,0,0-.06h0a.22.22,0,0,1-.12.13.14.14,0,0,1-.2-.08c0-.12,0-.22.21-.29h0a.1.1,0,0,0-.15-.07.31.31,0,0,0-.11.09l0,0a.4.4,0,0,1,.14-.11.18.18,0,0,1,.25.13Zm-.13-.09c-.09,0-.19.09-.16.18a.1.1,0,0,0,.12.06.14.14,0,0,0,.08-.13,0,0,0,0,0,0,0Z"/><path class="cls-6" d="M47.94,224.83l-.07-.15.08,0,0,.08h0a.19.19,0,0,1,.13-.16.24.24,0,0,1,.3.16.25.25,0,0,1-.12.34.17.17,0,0,1-.18,0h0l.1.25-.08,0Zm.13.1,0,0a.16.16,0,0,0,.17,0c.09,0,.11-.13.07-.24s-.12-.16-.21-.12a.15.15,0,0,0-.09.16,0,0,0,0,0,0,0Z"/></g><text class="cls-19" transform="translate(48.49 224.96) rotate(-21.51)">r</text><g class="cls-5"><path class="cls-6" d="M48.8,224.16a.05.05,0,0,1,0,.07.05.05,0,1,1,0-.07Zm.15.64-.19-.47.09,0,.18.47Z"/><path class="cls-6" d="M48.9,224l.09,0,.27.7-.08,0Z"/></g></g><g class="cls-5"><g class="cls-5"><path d="M42.93,232.43a2.1,2.1,0,0,1-.73.44,1.49,1.49,0,0,1-2.06-.93,1.59,1.59,0,0,1,.94-2.17,1.79,1.79,0,0,1,.76-.14l0,.35a1.33,1.33,0,0,0-.64.11,1.18,1.18,0,0,0-.68,1.68,1.16,1.16,0,0,0,1.61.75,1.5,1.5,0,0,0,.58-.38Z"/><path d="M42.2,229.2l.39-.15,1.23,3.13-.38.15Z"/><path d="M45.77,230.82a3.36,3.36,0,0,0,.23.5l-.35.14-.13-.26h0a.84.84,0,0,1-.52.58.67.67,0,0,1-.9-.35c-.2-.52.15-1,1-1.31v0a.48.48,0,0,0-.68-.3,1.13,1.13,0,0,0-.5.38l-.19-.22a1.49,1.49,0,0,1,.63-.47.83.83,0,0,1,1.16.55Zm-.6-.43c-.43.16-.88.42-.71.84a.36.36,0,0,0,.5.22.59.59,0,0,0,.39-.56.5.5,0,0,0,0-.13Z"/></g><g class="cls-5"><path d="M46,229.62c-.1-.26-.19-.47-.28-.66l.34-.13.18.41h0a.7.7,0,0,1,.41-.71l.11,0,.14.37a.51.51,0,0,0-.14,0,.59.59,0,0,0-.32.7.82.82,0,0,0,.06.19l.45,1.13-.39.15Z"/></g><g class="cls-5"><path d="M49.31,229.42a2.92,2.92,0,0,0,.24.5l-.35.14-.14-.26h0a.83.83,0,0,1-.53.57.66.66,0,0,1-.9-.35c-.2-.52.15-1,1-1.3l0,0a.47.47,0,0,0-.68-.3,1.19,1.19,0,0,0-.5.37l-.19-.22a1.49,1.49,0,0,1,.64-.46.81.81,0,0,1,1.15.55Zm-.6-.43c-.43.16-.88.43-.71.84a.36.36,0,0,0,.5.23.57.57,0,0,0,.39-.56l0-.14Z"/><path d="M50.53,228l1.63-1.86.12.31L50.9,228h0l2.07.18.12.31-2.46-.25Z"/><path d="M53.49,227.86a1.48,1.48,0,0,0,.71-.08.6.6,0,0,0,.43-.81c-.17-.4-.59-.42-1-.28l-.21.09-.12-.3.22-.08c.28-.11.58-.39.44-.74s-.31-.37-.67-.23a1.12,1.12,0,0,0-.5.42l-.22-.24a1.55,1.55,0,0,1,.67-.52.75.75,0,0,1,.83,1.25h0a.81.81,0,0,1,.93.49,1,1,0,0,1-.71,1.27,1.71,1.71,0,0,1-.82.1Z"/></g></g><rect class="cls-6" x="36.51" y="230.61" width="43.53" height="51.02" transform="translate(-89.85 39.21) rotate(-21.51)"/><path class="cls-20" d="M52.52,242.71c4.12-1.62,5.67-7.49,3.45-13.1l-14.91,5.88C43.27,241.1,48.4,244.33,52.52,242.71Z"/><path class="cls-21" d="M50.32,237.12a2.42,2.42,0,0,1-2.73-.31.88.88,0,0,0,.06.27c.32.8,1.6,1,2.87.55s2-1.56,1.72-2.36a.72.72,0,0,0-.14-.24C52.18,235.79,51.45,236.67,50.32,237.12Z"/><rect class="cls-20" x="49.61" y="238.39" width="5.82" height="8.63" rx="1.06" ry="1.06" transform="translate(-85.34 36.16) rotate(-21.51)"/><path class="cls-20" d="M78.27,247.48l-2-5.19a26.16,26.16,0,0,1-7-.48c-2.53-.53-4-1.25-6.25-.81-1.18.23-1.29.52-3.53,1.44-1.49.61-1.49.5-6.19,2a51.23,51.23,0,0,0-7.06,2.73,10.08,10.08,0,0,0-1.5.88A10.68,10.68,0,0,0,42,251a54.11,54.11,0,0,1-6.27,7.28l1.92,4.87q2-1.8,4.16-3.87c1.78-1.74,3.41-3.46,4.9-5.12a22.63,22.63,0,0,1,4.35,9.93c.49,3,.38,6.89,2.94,8.56a4.35,4.35,0,0,0,1.37.6l16.07-6.33a1.05,1.05,0,0,0,.59-1.37,15.36,15.36,0,0,0-2-6.09,19,19,0,0,0-2.26-2.93c-1.43-1.71-2.94-4.61-3.13-9.78l12.63.84Z"/><circle class="cls-22" cx="61.6" cy="250.73" r="5.33"/><circle class="cls-23" cx="61.6" cy="250.73" r="1.01"/><path class="cls-24" d="M40.75,235.8l.69,1.75.25-.09-.51-1.24a.13.13,0,1,0-.26.06h0a5.46,5.46,0,0,0,.95,2.46.13.13,0,0,0,.19,0,.14.14,0,0,0,0-.15l-1-2.83-.25.1A27.28,27.28,0,0,0,43,240.6c.08.13.28,0,.23-.13L42.69,239a.12.12,0,0,0-.17-.07.13.13,0,0,0-.08.17A7.18,7.18,0,0,0,44.35,242a.14.14,0,0,0,.19,0,.17.17,0,0,0,0-.12,25.81,25.81,0,0,0-1.69-3c-.08-.13-.28,0-.23.13a5.14,5.14,0,0,0,1.51,2.36.13.13,0,0,0,.18,0,.12.12,0,0,0,0-.15,24.07,24.07,0,0,0-3.66-3.89.13.13,0,0,0-.18,0,.11.11,0,0,0,0,.12A28.25,28.25,0,0,0,43,242.2c.08.13.26,0,.22-.13L42.13,238l-.24.1a30.68,30.68,0,0,1,1,3.52l.26-.07a29.32,29.32,0,0,1-1.56-4.48.12.12,0,0,0-.17-.07.14.14,0,0,0-.08.1l-.18,3.5.25,0a16.32,16.32,0,0,1-.68-4.23c0-.14-.26-.15-.27,0l-.05,1.48.26,0a3.21,3.21,0,0,1,0-1.74h-.27a18.59,18.59,0,0,0,.42,2.79c0,.14.24.17.26,0a4.72,4.72,0,0,0,0-1.3l-.26,0c.26,1.56.6,3.1,1,4.62l.25-.1a2.92,2.92,0,0,1-.14-1.73l-.25,0,1.14,2.87c.07.16.29.06.25-.1a8,8,0,0,1-.24-2.49h-.26a26.24,26.24,0,0,0,1.12,3.56.12.12,0,0,0,.17.07.13.13,0,0,0,.08-.13L43.68,242l-.26.06,1.23,2.76c.05.13.28.09.25-.07-.27-1.31-.53-2.62-.76-3.94l-.26.06a16.46,16.46,0,0,0,1.59,3.53c.08.14.26,0,.22-.13a10.8,10.8,0,0,0-1.45-3.34.15.15,0,0,0-.19,0,.1.1,0,0,0,0,.05,3.34,3.34,0,0,0,.05,1.8c.12.81.24,1.61.35,2.41l.26-.06c-.88-1.92-1.76-3.83-2.75-5.69-.06-.12-.28-.1-.26.06a20.82,20.82,0,0,0,1.5,4.89.13.13,0,0,0,.25-.1l-1.19-3a.14.14,0,0,0-.16-.1.13.13,0,0,0-.09.16h0c.07.79.12,1.57.13,2.36l.26-.07L41.24,241a.13.13,0,0,0-.17-.07.12.12,0,0,0-.07.17c.28.92.59,1.84.91,2.74a.15.15,0,0,0,.18.08l0,0c.38-.26.3-.73.34-1.14a3.12,3.12,0,0,1,.75-1.71L43,241q.69,1.38,1.29,2.79l.25-.1L42.93,240a.14.14,0,0,0-.18-.08.13.13,0,0,0-.07.17,5,5,0,0,0,.81,1.55c.1.14.29,0,.21-.16-.69-1.17-1.44-2.32-2.23-3.43-.07-.11-.27,0-.24.09a11.31,11.31,0,0,0,.79,2.34.13.13,0,0,0,.25-.1l-.77-2-.23.12.81,1.06a.13.13,0,0,0,.24-.06,4.28,4.28,0,0,0-.16-1.28l-.24.09a1.53,1.53,0,0,0,.8,1c.13.07.22-.1.16-.2a22.88,22.88,0,0,0-1.64-2.5.13.13,0,0,0-.23.06l0,1.4.26,0a6.68,6.68,0,0,1-.54-2.24.13.13,0,0,0-.25,0,2.51,2.51,0,0,0,.22,1.72c.33.88.66,1.76,1,2.62a22.5,22.5,0,0,0,1.14,2.31c.25.44.57,1.25,1.18,1.24.1,0,.13-.1.11-.18l-1-3.75-.25.09L44,242.46l.25-.09a32.86,32.86,0,0,0-4-5.67.13.13,0,0,0-.19,0,.11.11,0,0,0,0,.11c.06,1.57,1.71,3,1.13,4.58-.06.16.18.27.24.11.62-1.71-1-3.08-1.11-4.72l-.24.09A33,33,0,0,1,44,242.46c.08.15.31.07.24-.09l-1.14-2.67a.13.13,0,0,0-.25.1l1,3.76.11-.18c-.34,0-.59-.54-.73-.77s-.38-.67-.56-1c-.33-.62-.62-1.27-.9-1.92s-.5-1.27-.75-1.91a3,3,0,0,1-.37-1.91l-.25,0a7,7,0,0,0,.55,2.31c0,.11.25.11.25,0l.05-1.4-.24.06a22.88,22.88,0,0,1,1.64,2.5l.16-.2a1.25,1.25,0,0,1-.66-.81c-.05-.17-.3-.07-.25.1a4,4,0,0,1,.14,1.15l.23-.06-.81-1.06a.13.13,0,0,0-.18,0,.14.14,0,0,0,0,.16l.77,2,.25-.1a11.27,11.27,0,0,1-.78-2.27l-.23.09c.79,1.12,1.53,2.26,2.23,3.44l.21-.16a5.17,5.17,0,0,1-.78-1.49l-.24.1,1.59,3.68c.07.15.31,0,.24-.1-.4-.94-.83-1.87-1.28-2.79a.14.14,0,0,0-.18-.07.1.1,0,0,0,0,0,3.46,3.46,0,0,0-.69,1.28,3.11,3.11,0,0,0-.11.68c0,.28,0,.65-.23.84l.2,0c-.33-.91-.64-1.82-.92-2.74l-.25.1,1.12,2.67a.14.14,0,0,0,.17.08.15.15,0,0,0,.09-.14c0-.78-.06-1.57-.14-2.35l-.26.06,1.19,3,.24-.09a20.37,20.37,0,0,1-1.48-4.82l-.25.07c1,1.85,1.87,3.77,2.74,5.68.06.13.28.09.26-.06l-.3-2.06a4.22,4.22,0,0,1-.12-2l-.23,0a10.61,10.61,0,0,1,1.43,3.27l.22-.13a16.75,16.75,0,0,1-1.54-3.46.15.15,0,0,0-.17-.1.13.13,0,0,0-.09.17h0c.23,1.32.49,2.63.77,3.94l.25-.06-1.22-2.76a.14.14,0,0,0-.17-.07.14.14,0,0,0-.09.14l.28,2.16.26-.06a26.7,26.7,0,0,1-1.11-3.49c0-.13-.25-.17-.26,0a8.38,8.38,0,0,0,.25,2.64l.25-.1-1.15-2.87a.14.14,0,0,0-.18-.07.11.11,0,0,0-.07.1,3.24,3.24,0,0,0,.15,1.87c.07.16.29.06.25-.1-.4-1.5-.73-3-1-4.55a.13.13,0,0,0-.26,0,5.06,5.06,0,0,1,0,1.23h.26a17.55,17.55,0,0,1-.41-2.79c0-.16-.23-.15-.27,0a3.63,3.63,0,0,0,0,1.88c0,.13.25.1.25,0l0-1.48h-.26a16.44,16.44,0,0,0,.7,4.29.13.13,0,0,0,.17.07.11.11,0,0,0,.08-.1l.18-3.5-.25,0a29.7,29.7,0,0,0,1.56,4.48c.06.12.29.09.26-.06a31.37,31.37,0,0,0-1-3.59.13.13,0,1,0-.24.09L43,242.16l.23-.13a28.18,28.18,0,0,1-2.53-4.72l-.2.15a24.75,24.75,0,0,1,3.61,3.84l.19-.18a4.87,4.87,0,0,1-1.43-2.25l-.23.12a24.14,24.14,0,0,1,1.65,2.93l.21-.15A6.79,6.79,0,0,1,42.69,239l-.24.1.56,1.44.22-.13a27.24,27.24,0,0,1-2.13-4.66.14.14,0,0,0-.17-.08.14.14,0,0,0-.08.18l1,2.83.24-.13a5.06,5.06,0,0,1-.9-2.33l-.26.06.51,1.24a.13.13,0,0,0,.17.07.13.13,0,0,0,.08-.17L41,235.69a.14.14,0,0,0-.18-.07.13.13,0,0,0-.07.17Z"/><path class="cls-24" d="M56.06,229.63c.12.67.21,1.35.27,2l.23-.09a1.39,1.39,0,0,1,0-1.43l-.25,0a23.58,23.58,0,0,0,.8,4.15.14.14,0,0,0,.18.07.12.12,0,0,0,.08-.1,9.37,9.37,0,0,0-.14-2.11c0-.16-.29-.14-.27,0l.5,4c0,.14.25.16.26,0l.1-1.86h-.26l.15,4.21.26,0a9,9,0,0,1,.7-4.42l-.25-.07a13.24,13.24,0,0,1-.55,3.48l.26,0c-.18-1.58-.28-3.17-.31-4.76l-.27,0A54.6,54.6,0,0,0,58.7,239c0,.16.28.15.26,0a29.8,29.8,0,0,1-.28-6l-.25,0,1.49,4.18c0,.14.29.08.26-.06A11.56,11.56,0,0,0,59,233.48a.15.15,0,0,0-.19,0,.17.17,0,0,0-.05.12,26.47,26.47,0,0,0,1.34,4.36c.06.17.29.06.24-.1-.14-.52-.78-2.22-1.62-1.85-.32.15-.27.55-.18.84a1.82,1.82,0,0,0,.88,1,.12.12,0,0,0,.17-.07,0,0,0,0,0,0,0,5.06,5.06,0,0,0-1-3.15c-.09-.13-.27,0-.23.12a9.4,9.4,0,0,0,1,2.21c.24.4.56,1,1.12.87a.12.12,0,0,0,.11-.14v0a28,28,0,0,0-2.06-4.49l-.21.16A17.93,17.93,0,0,0,61.17,237c.1.09.24,0,.2-.16a14.72,14.72,0,0,0-2.81-5,.13.13,0,0,0-.18,0,.14.14,0,0,0,0,.16c.32,1,.67,1.93,1.07,2.88l.24-.1a22.85,22.85,0,0,0-2-3.12c-.1-.14-.29,0-.21.15l1.06,1.85c.07.13.29,0,.23-.13l-1.41-2.9a.12.12,0,0,0-.17-.07.13.13,0,0,0-.08.13,17.54,17.54,0,0,0,.43,3.23l.25-.07a16.85,16.85,0,0,0-1.14-3.14.13.13,0,0,0-.16-.09.13.13,0,0,0-.1.16h0a7.6,7.6,0,0,0,.78,2.64.14.14,0,0,0,.18.07.12.12,0,0,0,.08-.09,3.72,3.72,0,0,0-.12-2,.14.14,0,0,0-.26.06,2.07,2.07,0,0,0,.68,1.35.13.13,0,0,0,.18,0,.16.16,0,0,0,0-.09,6.38,6.38,0,0,0-1.37-3.25c-.08-.09-.27,0-.24.1a5.69,5.69,0,0,0,.62,1.73c.06.12.29.1.25-.06l-.3-1.24-.25.06,1.34,2.52a.13.13,0,0,0,.25-.07A6,6,0,0,0,57,229.52a.14.14,0,0,0-.18,0,.11.11,0,0,0-.05.12,3.45,3.45,0,0,0,.7,1.9.13.13,0,0,0,.24-.09,5.26,5.26,0,0,0-.84-1.94l-.21.15a18.91,18.91,0,0,1,2.46,4.74c.06.16.29.06.25-.1a12.28,12.28,0,0,0-1.13-2.91.13.13,0,0,0-.17-.08.16.16,0,0,0-.08.14l.14,1.58c0,.33.28,1.42-.19,1.54l.18.08a4,4,0,0,1,0-2.38l-.25,0,0,3.89.27,0L58,233.82l-.26,0a4.23,4.23,0,0,0,.62,1.9c.29.41.88,1,1.43.89s.31-1,.14-1.33a24.06,24.06,0,0,1-1.37-2.22l-.25.1,1.89,3.64a.13.13,0,0,0,.17.1.13.13,0,0,0,.09-.16,13.65,13.65,0,0,0-1.34-4.2l-.25.1a17.78,17.78,0,0,0,3.93,5c.13.12.28-.09.16-.21a28.77,28.77,0,0,0-3.83-3.22.13.13,0,0,0-.19,0,.12.12,0,0,0,0,.09,12.09,12.09,0,0,0,.74,2.71.14.14,0,0,0,.17.08.13.13,0,0,0,.08-.17l-.63-1.77a.13.13,0,0,0-.16-.09.12.12,0,0,0-.1.16h0a19,19,0,0,1,.29,3.2l.25,0a7,7,0,0,1-.58-3.18h-.27l.34,2.88a.14.14,0,0,0,.27,0c.13-.48.43-1.51.94-1.66.27-.08.28,0,.43.22s.22.27.32.41l.65.82a.13.13,0,0,0,.24-.09,2,2,0,0,0-1.37-1.61.13.13,0,0,0-.17.17l.49,1.24.18-.17L59.81,237a.12.12,0,0,0-.17.07.09.09,0,0,0,0,.1,7,7,0,0,1,.44,2l.26-.06-.75-2.9a.13.13,0,0,0-.22,0,6.15,6.15,0,0,0-.9,1.57c-.06.16.18.26.24.1a5.73,5.73,0,0,1,.86-1.5l-.22,0,.74,2.91c0,.14.26.07.25-.07a6.93,6.93,0,0,0-.46-2.05l-.17.17,1.23.47a.13.13,0,0,0,.17-.08.14.14,0,0,0,0-.09l-.49-1.23-.18.16a1.76,1.76,0,0,1,1.21,1.39l.24-.09c-.36-.45-.7-.93-1.08-1.37-.15-.17-.33-.37-.59-.31s-.49.48-.63.73a6.48,6.48,0,0,0-.52,1.28h.26L59,235.26c0-.14-.25-.16-.26,0a7.26,7.26,0,0,0,.6,3.32c0,.11.25.11.25,0a18.83,18.83,0,0,0-.28-3.27l-.26.06.63,1.76.25-.09a11.8,11.8,0,0,1-.73-2.66l-.21.12a28.1,28.1,0,0,1,3.83,3.23l.16-.21a17.63,17.63,0,0,1-3.84-4.91c-.07-.14-.31-.06-.24.1a13.39,13.39,0,0,1,1.32,4.13l.26-.07-1.89-3.64a.13.13,0,0,0-.17-.08.13.13,0,0,0-.07.17,5.27,5.27,0,0,0,.81,1.37,7.51,7.51,0,0,1,.47.68,3,3,0,0,1,.19.41c.1.3.16.38-.1.56s-.22.14-.41,0A1.72,1.72,0,0,1,59,236a2.16,2.16,0,0,1-.52-.68,4.14,4.14,0,0,1-.41-1.49c0-.17-.27-.14-.26,0l.12,2.25c0,.17.26.14.26,0l0-3.88a.13.13,0,0,0-.25,0,4.33,4.33,0,0,0-.05,2.57c0,.08.11.09.17.08.43-.11.44-.61.42-1-.06-.81-.14-1.61-.21-2.42l-.26.06a12.19,12.19,0,0,1,1.13,2.92l.25-.1a19.69,19.69,0,0,0-2.5-4.79c-.1-.14-.31,0-.21.16a4.79,4.79,0,0,1,.78,1.81l.24-.09a3.2,3.2,0,0,1-.65-1.78l-.24.1a5.65,5.65,0,0,1,1.12,2.76l.26-.07-1.33-2.51c-.07-.12-.3-.1-.26.06l.3,1.24.26-.06a5.49,5.49,0,0,1-.61-1.67l-.24.1a6.07,6.07,0,0,1,1.33,3.11l.22-.11a1.72,1.72,0,0,1-.58-1.17l-.26.06a3.51,3.51,0,0,1,.11,1.9l.25,0a7.2,7.2,0,0,1-.76-2.57l-.26.06a16.85,16.85,0,0,1,1.14,3.14c0,.14.29.08.26-.06a17.54,17.54,0,0,1-.43-3.23l-.26.07,1.4,2.9.24-.13-1.06-1.85-.21.16a23.58,23.58,0,0,1,2,3.06.13.13,0,0,0,.25-.1c-.4-.94-.75-1.9-1.07-2.88l-.23.13a14.74,14.74,0,0,1,2.77,4.91l.21-.16a17.45,17.45,0,0,1-2.85-3.6c-.09-.15-.29,0-.21.16a27.25,27.25,0,0,1,2,4.43l.11-.18c-.57.1-1-.94-1.18-1.32a10,10,0,0,1-.62-1.6l-.23.13a4.83,4.83,0,0,1,.91,3l.19-.1a1.56,1.56,0,0,1-.67-.7c-.1-.23-.15-.31,0-.51s.28-.13.46.08a3.49,3.49,0,0,1,.73,1.45l.25-.09a26,26,0,0,1-1.31-4.3l-.24.09a11.07,11.07,0,0,1,1.16,3.45l.26-.06-1.5-4.17a.13.13,0,0,0-.25,0,29.64,29.64,0,0,0,.28,6.1l.26,0a53,53,0,0,1-1.13-6.24.14.14,0,0,0-.27,0c0,1.59.14,3.18.31,4.76,0,.12.22.17.26,0a13.77,13.77,0,0,0,.56-3.55.13.13,0,0,0-.25-.07,9.22,9.22,0,0,0-.72,4.55c0,.17.27.14.26,0l-.14-4.21c0-.14-.26-.15-.27,0l-.1,1.86h.26l-.49-4-.27,0a8.77,8.77,0,0,1,.15,2l.25,0a23.53,23.53,0,0,1-.79-4.08.13.13,0,0,0-.16-.1.15.15,0,0,0-.09.06,1.65,1.65,0,0,0,0,1.7c.07.12.24,0,.23-.1a19.93,19.93,0,0,0-.26-2c0-.17-.3-.14-.27,0Z"/><path class="cls-25" d="M53.81,271.83l18.07-6.33a.72.72,0,0,1,.66,0,.74.74,0,0,1,.37.67c.39,1.71.79,3.43,1.18,5.15s.84,3.65,1.25,5.47l-16.07,6.33A48.83,48.83,0,0,1,56,278.25a46.5,46.5,0,0,1-2.6-5.19.8.8,0,0,1-.12-.9A.78.78,0,0,1,53.81,271.83Z"/><path class="cls-26" d="M56.88,273.18l.66,1.67a1,1,0,0,0,1.31.41l1.9-.75a1,1,0,0,0,.68-1.19l-.66-1.67Z"/><path class="cls-26" d="M66.81,269.27l.66,1.67a1,1,0,0,0,1.31.41l1.9-.75a1,1,0,0,0,.68-1.19l-.66-1.68Z"/><line class="cls-27" x1="64.25" y1="272.36" x2="67.28" y2="280.03"/><line class="cls-27" x1="64.27" y1="272.4" x2="64.94" y2="271.2"/><line class="cls-27" x1="64.27" y1="272.4" x2="62.96" y2="271.98"/><ellipse class="cls-1" cx="60.1" cy="304.36" rx="6.67" ry="13.16" transform="translate(-248.46 272.17) rotate(-72.87)"/><path class="cls-2" d="M56,309.38c-1.43.79-4.75-1.73-6.23-2.67a20.39,20.39,0,0,1-5.48-5.78,8.53,8.53,0,0,1-1.23-3.12c-.18-.95-.18-1.35-.39-1.59a1.87,1.87,0,0,0-1.27-.46c-1.84-.16-4.51-2.42-5.63-3.84a8,8,0,0,1-.84-8.05,7.78,7.78,0,0,1-4.48-1,10.54,10.54,0,0,1-3.86-4.21c-.72-1.23-2-3.48-1.61-5.9a5.26,5.26,0,0,1,2.36-3.43,2.77,2.77,0,0,1,1.93-.53c1.53.23,2.75,1.92,3.26,2.45a147.28,147.28,0,0,1,10,11.74c3.22,4.16,7,7.91,9.94,12.22,2.06,3,1.9,4.7,2.91,7.87C55.9,304.64,57.19,307.89,56,309.38Z"/><path class="cls-2" d="M42.59,291.18a13.61,13.61,0,0,1,2.8-2.82c4.68-3.49,10.81-3.63,13.69-.31s1.43,8.85-3.25,12.35a14.58,14.58,0,0,1-3.56,1.94Z"/><path class="cls-2" d="M26.64,272.79c-.8-.91-1.05-2-.58-2.53a13.65,13.65,0,0,1,2-1.85c4.68-3.49,10.81-3.64,13.69-.31s1.43,8.85-3.25,12.35a13.91,13.91,0,0,1-2.38,1.43c-.65.32-1.75-.15-2.54-1.07Z"/><path class="cls-2" d="M33.67,280.9a12.91,12.91,0,0,1,2.8-2.82c4.68-3.5,10.81-3.64,13.69-.31s1.43,8.85-3.25,12.34a13.84,13.84,0,0,1-3.57,1.94Z"/><path class="cls-2" d="M98.43,271.67c-1.39-2.13-1.83-2.56-5-7.08-1.51-2.15-1.68-2.5-2.18-3.17-3.31-4.48-10.82-9.18-14.18-7-3.69,2.44-3.32,9.5.83,15.77a23.52,23.52,0,0,0,2,2.63,23.94,23.94,0,0,0-5.08,10.33C72.69,292.62,76.34,301,83,302s13.51-11.25,15.84-15.35a14.48,14.48,0,0,0,1.73-4.36A13.85,13.85,0,0,0,98.43,271.67Z"/><path class="cls-4" d="M39.67,418.6,46.32,416a.35.35,0,0,1,.45.2h0a.34.34,0,0,1-.19.45l-6.66,2.62a.35.35,0,0,1-.45-.2h0A.35.35,0,0,1,39.67,418.6Z"/><circle class="cls-4" cx="37.6" cy="419.79" r="0.61"/><path class="cls-11" d="M61.05,415.45l-2,.8a.26.26,0,0,0-.15.34l.19.48a.27.27,0,0,0,.34.15h0l2-.8Z"/><path class="cls-12" d="M61.07,415.46l2-.79a.27.27,0,0,1,.34.15l.18.46a.27.27,0,0,1-.15.34h0l-2,.78Z"/><circle class="cls-22" cx="51.52" cy="254.71" r="5.33"/><circle class="cls-23" cx="51.52" cy="254.71" r="1.01"/><ellipse class="cls-28" cx="60.99" cy="264.39" rx="0.58" ry="0.29" transform="translate(-92.7 40.78) rotate(-21.51)"/></g><g id="Layer_2" data-name="Layer 2"><path class="cls-1" d="M89.84,521.68c0-3,0-4.51,0-6.52,0-4,0-9.81.13-17.49.07-6.3-4.21-7.47-9.94-8.11-2.65-.29-4.72,1-7.16,1.81C67.72,493.08,60,494.93,57,499.9c-.16,7.39,0,13.42.12,17.64.2,5.69.46,8.33.4,13.48-.07,5.74-.47,9.74-.82,13.52-1.56,17-2.34,25.53-1.57,29.5.85,4.36,3.45,17.65,14.15,21.66,7.5,2.81,17.17.38,21.92-5.57,3.49-4.36,3.33-10.3,3-22.17-.11-4.39-.55-8.35-1.44-16.27C91.18,537.51,89.93,532.14,89.84,521.68Z"/><ellipse class="cls-2" cx="72.77" cy="494.7" rx="20.24" ry="13.88" transform="translate(-212.47 84.02) rotate(-26.41)"/><rect x="33.12" y="410.21" width="46.22" height="81.55" rx="4.46" ry="4.46" transform="translate(-161.47 52.04) rotate(-21.51)"/><path class="cls-3" d="M58.81,406.66A4,4,0,0,1,64,408.9L90.6,476.47a4,4,0,0,1-2.24,5.15L53.65,495.3a4,4,0,0,1-5.16-2.24L21.86,425.49a4,4,0,0,1,2.24-5.15l34.71-13.68m-.36-.9L23.74,419.44A5,5,0,0,0,21,425.85L47.6,493.42A5,5,0,0,0,54,496.2l34.71-13.68a5,5,0,0,0,2.79-6.4L64.86,408.54A5,5,0,0,0,58.45,405.76Z"/><circle class="cls-4" cx="69.38" cy="483.63" r="2.92"/><rect class="cls-6" x="26.24" y="430.19" width="0.83" height="0.83" transform="translate(-156.06 39.78) rotate(-21.51)"/><rect class="cls-6" x="28.02" y="428.42" width="0.83" height="1.85" transform="translate(-155.48 40.34) rotate(-21.51)"/><rect class="cls-6" x="27.15" y="429.3" width="0.83" height="1.34" transform="translate(-155.76 40.07) rotate(-21.51)"/><rect class="cls-6" x="28.95" y="427.63" width="0.83" height="2.27" transform="translate(-155.19 40.64) rotate(-21.51)"/><g class="cls-5"><text class="cls-9" transform="matrix(0.93, -0.37, 0.37, 0.93, 31.09, 428.96)">T</text><text class="cls-10" transform="matrix(0.93, -0.37, 0.37, 0.93, 31.82, 428.68)">elenor</text></g><rect class="cls-17" x="24.79" y="419.88" width="43.53" height="12.95" transform="translate(-153.09 46.76) rotate(-21.51)"/><g class="cls-5"><path class="cls-6" d="M41.29,423.51h0l-.35.41-.17-.24.44-.52.3-.11,1,2.55-.33.14Z"/><path class="cls-6" d="M44.63,423.27c.34.87.2,1.48-.36,1.7s-1-.14-1.37-1-.15-1.48.37-1.68S44.31,422.45,44.63,423.27Zm-1.38.59c.27.66.62,1,.93.83s.36-.61.1-1.27-.56-1-.93-.83S43,423.16,43.25,423.86Z"/><path class="cls-6" d="M44.86,422.85a.25.25,0,1,1,.47-.18.25.25,0,0,1-.14.33A.24.24,0,0,1,44.86,422.85Zm.55,1.39a.25.25,0,0,1,.13-.34.24.24,0,0,1,.33.15.25.25,0,1,1-.46.19Z"/><path class="cls-6" d="M47.46,422.15c.34.87.21,1.48-.36,1.7s-1-.13-1.36-1-.15-1.47.36-1.68S47.14,421.34,47.46,422.15Zm-1.37.59c.26.66.61,1,.93.84s.35-.62.1-1.27-.57-1-.93-.84S45.81,422,46.09,422.74Z"/><path class="cls-6" d="M48.92,420.47l-1,.38.16.7.2-.1a1.18,1.18,0,0,1,.61-.08.78.78,0,0,1,.62.51,1,1,0,0,1-.61,1.25,1.34,1.34,0,0,1-.7.09v-.29a1.28,1.28,0,0,0,.6-.08.61.61,0,0,0,.39-.79c-.13-.33-.45-.47-1-.27l-.35.16-.32-1.29,1.23-.48Z"/></g><g class="cls-5"><text class="cls-18" transform="translate(42.68 427.25) rotate(-21.51)">t</text><g class="cls-5"><path class="cls-6" d="M43.46,426.69a.25.25,0,1,1-.46.19.26.26,0,0,1,.14-.35A.24.24,0,0,1,43.46,426.69Zm-.37.15c0,.1.13.16.21.13a.17.17,0,0,0,.07-.24c0-.08-.11-.17-.21-.13A.17.17,0,0,0,43.09,426.84Z"/><path class="cls-6" d="M43.54,426.56c0-.06,0-.1-.06-.15l.07,0,0,.09h0a.15.15,0,0,1,.1-.15h0l0,.08h0a.14.14,0,0,0-.07.16s0,0,0,0l.1.25-.08,0Z"/><path class="cls-6" d="M43.94,426.68a.32.32,0,0,0,.13,0c.06,0,.08-.06.06-.1s-.05-.06-.12-.05-.16,0-.18-.09a.15.15,0,0,1,.11-.2.22.22,0,0,1,.13,0v.07a.23.23,0,0,0-.11,0,.08.08,0,0,0-.05.1s.05,0,.12,0,.16,0,.18.1,0,.16-.12.21a.24.24,0,0,1-.14,0Z"/><path class="cls-6" d="M44.51,425.75l.23.57a.43.43,0,0,0,0,.12l-.08,0,0-.08h0a.17.17,0,0,1-.12.16.24.24,0,0,1-.3-.16.25.25,0,0,1,.12-.34.17.17,0,0,1,.17,0h0l-.11-.28Zm.08.45,0,0a.14.14,0,0,0-.16-.05.17.17,0,0,0-.07.24c0,.1.12.16.21.12a.13.13,0,0,0,.08-.15s0,0,0,0Z"/><path class="cls-6" d="M45.22,426.14a1.17,1.17,0,0,0,.05.11l-.07,0,0-.06h0a.18.18,0,0,1-.12.12.13.13,0,0,1-.19-.08c-.05-.11,0-.21.21-.28h0s-.06-.11-.15-.07a.24.24,0,0,0-.11.08l0-.05a.3.3,0,0,1,.14-.1.18.18,0,0,1,.26.12Zm-.13-.09c-.1,0-.2.09-.16.18a.07.07,0,0,0,.11,0,.14.14,0,0,0,.09-.12s0,0,0,0Z"/><path class="cls-6" d="M45.78,426a.26.26,0,0,1,0,.24.32.32,0,0,1-.15.13.35.35,0,0,1-.17,0v-.07a.32.32,0,0,0,.16,0c.09,0,.13-.11.09-.23l0-.05h0c0,.06,0,.11-.12.14a.22.22,0,0,1-.29-.15.26.26,0,0,1,.12-.34.18.18,0,0,1,.18,0h0l0-.08.08,0a.43.43,0,0,0,0,.13Zm-.17-.18a.05.05,0,0,0,0,0,.12.12,0,0,0-.15,0c-.09,0-.12.12-.07.23a.16.16,0,0,0,.2.12.15.15,0,0,0,.09-.14s0,0,0-.05Z"/><path class="cls-6" d="M46.14,425.91l0-.05,0-.09c.1-.22.14-.33.1-.43a.12.12,0,0,0-.17-.08.29.29,0,0,0-.11.11l-.06-.05a.27.27,0,0,1,.16-.13.19.19,0,0,1,.27.1.62.62,0,0,1-.09.43l0,.07h0l.29-.11,0,.07Z"/><path class="cls-6" d="M46.78,425l-.06,0a.29.29,0,0,0-.14.32h0a.24.24,0,0,1,.13-.13.2.2,0,0,1,.27.13.23.23,0,0,1-.12.31.26.26,0,0,1-.33-.18.42.42,0,0,1,0-.33.37.37,0,0,1,.17-.18l.06,0Zm.12.38c0-.09-.11-.13-.19-.09a.14.14,0,0,0-.09.12v0c.05.11.13.17.22.13A.14.14,0,0,0,46.9,425.37Z"/><path class="cls-6" d="M47.13,425.46a.07.07,0,0,1,0-.09.07.07,0,0,1,.08,0,.07.07,0,0,1,0,.09A.07.07,0,0,1,47.13,425.46Z"/><path class="cls-6" d="M47.87,425.1l.06.11-.08,0,0-.06h0a.22.22,0,0,1-.12.13.14.14,0,0,1-.2-.08c0-.12,0-.22.21-.29h0a.1.1,0,0,0-.15-.07.31.31,0,0,0-.11.09l0-.05a.3.3,0,0,1,.14-.1.17.17,0,0,1,.25.12Zm-.13-.1c-.09,0-.19.09-.16.18a.1.1,0,0,0,.12.06.14.14,0,0,0,.08-.13,0,0,0,0,0,0,0Z"/><path class="cls-6" d="M47.94,424.83l-.07-.15.08,0,0,.08h0a.19.19,0,0,1,.13-.16.24.24,0,0,1,.3.16.25.25,0,0,1-.12.34.19.19,0,0,1-.18,0h0l.1.25-.08,0Zm.13.1,0,0a.16.16,0,0,0,.17.05c.09,0,.11-.13.07-.24s-.12-.16-.21-.12a.15.15,0,0,0-.09.16,0,0,0,0,0,0,0Z"/></g><text class="cls-19" transform="translate(48.49 424.96) rotate(-21.51)">r</text><g class="cls-5"><path class="cls-6" d="M48.8,424.16a.05.05,0,0,1,0,.07.05.05,0,1,1,0-.07Zm.15.64-.19-.47.09,0,.18.47Z"/><path class="cls-6" d="M48.9,424l.09,0,.27.7-.08,0Z"/></g></g><g class="cls-5"><g class="cls-5"><path d="M42.93,432.43a2.1,2.1,0,0,1-.73.44,1.49,1.49,0,0,1-2.06-.93,1.59,1.59,0,0,1,.94-2.17,1.79,1.79,0,0,1,.76-.14l0,.35a1.33,1.33,0,0,0-.64.11,1.18,1.18,0,0,0-.68,1.68,1.16,1.16,0,0,0,1.61.75,1.5,1.5,0,0,0,.58-.38Z"/><path d="M42.2,429.2l.39-.15,1.23,3.13-.38.15Z"/><path d="M45.77,430.82a3.36,3.36,0,0,0,.23.5l-.35.14-.13-.26h0a.84.84,0,0,1-.52.58.67.67,0,0,1-.9-.35c-.2-.52.15-1,1-1.31v0a.48.48,0,0,0-.68-.3,1.13,1.13,0,0,0-.5.38l-.19-.22a1.49,1.49,0,0,1,.63-.47.83.83,0,0,1,1.16.55Zm-.6-.43c-.43.16-.88.42-.71.84a.37.37,0,0,0,.5.23.61.61,0,0,0,.39-.57.5.5,0,0,0,0-.13Z"/></g><g class="cls-5"><path d="M46,429.62c-.1-.26-.19-.47-.28-.66l.34-.13.18.41h0a.7.7,0,0,1,.41-.71l.11,0,.14.37a.51.51,0,0,0-.14,0,.59.59,0,0,0-.32.7.82.82,0,0,0,.06.19l.45,1.13-.39.15Z"/></g><g class="cls-5"><path d="M49.31,429.42a2.92,2.92,0,0,0,.24.5l-.35.14-.14-.26h0a.86.86,0,0,1-.53.58.67.67,0,0,1-.9-.36c-.2-.52.15-1,1-1.3l0,0a.47.47,0,0,0-.68-.3,1.19,1.19,0,0,0-.5.37l-.19-.22a1.49,1.49,0,0,1,.64-.46.81.81,0,0,1,1.15.55Zm-.6-.43c-.43.16-.88.43-.71.84a.36.36,0,0,0,.5.23.57.57,0,0,0,.39-.56l0-.14Z"/><path d="M50.53,428l1.63-1.86.12.31L50.9,428h0l2.07.18.12.31-2.46-.25Z"/><path d="M53.49,427.86a1.48,1.48,0,0,0,.71-.08.6.6,0,0,0,.43-.81c-.17-.4-.59-.42-1-.28l-.21.09-.12-.3.22-.08c.28-.11.58-.39.44-.73s-.31-.38-.67-.24a1.12,1.12,0,0,0-.5.42l-.22-.24a1.55,1.55,0,0,1,.67-.52.75.75,0,0,1,.83,1.25h0a.81.81,0,0,1,.93.49,1,1,0,0,1-.71,1.27,1.71,1.71,0,0,1-.82.1Z"/></g></g><rect class="cls-6" x="36.51" y="430.61" width="43.53" height="51.02" transform="translate(-163.18 53.14) rotate(-21.51)"/><path class="cls-20" d="M52.52,442.71c4.12-1.62,5.67-7.49,3.45-13.1l-14.91,5.88C43.27,441.1,48.4,444.33,52.52,442.71Z"/><path class="cls-21" d="M50.32,437.12a2.42,2.42,0,0,1-2.73-.31.88.88,0,0,0,.06.27c.32.8,1.6,1.05,2.87.55s2-1.56,1.72-2.36a.84.84,0,0,0-.14-.24C52.18,435.79,51.45,436.67,50.32,437.12Z"/><rect class="cls-20" x="49.61" y="438.39" width="5.82" height="8.63" rx="1.06" ry="1.06" transform="translate(-158.67 50.09) rotate(-21.51)"/><path class="cls-20" d="M78.27,447.48l-2-5.19a26.16,26.16,0,0,1-7-.48c-2.53-.53-4-1.25-6.25-.81-1.18.23-1.29.52-3.53,1.44-1.49.61-1.49.5-6.19,2a51.23,51.23,0,0,0-7.06,2.73,11.07,11.07,0,0,0-1.5.88A10.68,10.68,0,0,0,42,451a54.11,54.11,0,0,1-6.27,7.28l1.92,4.88q2-1.81,4.16-3.88c1.78-1.74,3.41-3.46,4.9-5.12a22.63,22.63,0,0,1,4.35,9.93c.49,3,.38,6.89,2.94,8.56a4.35,4.35,0,0,0,1.37.6l16.07-6.33a1.05,1.05,0,0,0,.59-1.37,15.36,15.36,0,0,0-2-6.09,19,19,0,0,0-2.26-2.93c-1.43-1.71-2.94-4.61-3.13-9.78l12.63.84Z"/><circle class="cls-22" cx="61.6" cy="450.73" r="5.33"/><circle class="cls-23" cx="61.6" cy="450.73" r="1.01"/><path class="cls-24" d="M40.75,435.8l.69,1.75.25-.09-.51-1.24a.13.13,0,1,0-.26.06h0a5.46,5.46,0,0,0,.95,2.46.13.13,0,0,0,.19,0,.14.14,0,0,0,0-.15l-1-2.83-.25.1A27.28,27.28,0,0,0,43,440.6c.08.13.28,0,.23-.13L42.69,439a.12.12,0,0,0-.17-.07.13.13,0,0,0-.08.17A7.18,7.18,0,0,0,44.35,442a.14.14,0,0,0,.19,0,.16.16,0,0,0,0-.12,26.66,26.66,0,0,0-1.69-3c-.08-.13-.28,0-.23.13a5.14,5.14,0,0,0,1.51,2.36.13.13,0,0,0,.18,0,.12.12,0,0,0,0-.15,24.07,24.07,0,0,0-3.66-3.89.13.13,0,0,0-.18,0,.11.11,0,0,0,0,.12A27.88,27.88,0,0,0,43,442.2c.08.13.26,0,.22-.13L42.13,438l-.24.1a30.68,30.68,0,0,1,1,3.52l.26-.07a29.32,29.32,0,0,1-1.56-4.48.12.12,0,0,0-.17-.07.14.14,0,0,0-.08.1l-.18,3.5.25,0a16.32,16.32,0,0,1-.68-4.23c0-.14-.26-.15-.27,0l-.05,1.48.26,0a3.21,3.21,0,0,1,0-1.74h-.27a18.59,18.59,0,0,0,.42,2.79c0,.14.24.17.26,0a4.72,4.72,0,0,0,0-1.3l-.26,0c.26,1.56.6,3.1,1,4.62l.25-.1a2.92,2.92,0,0,1-.14-1.73l-.25,0,1.14,2.87c.07.16.29.06.25-.1a8,8,0,0,1-.24-2.49h-.26a26.24,26.24,0,0,0,1.12,3.56.12.12,0,0,0,.17.07.13.13,0,0,0,.08-.13L43.68,442l-.26.06,1.23,2.76c.05.13.28.09.25-.07-.27-1.31-.53-2.62-.76-3.94l-.26.06a16.46,16.46,0,0,0,1.59,3.53c.08.14.26,0,.22-.13a10.8,10.8,0,0,0-1.45-3.34.15.15,0,0,0-.19,0,.1.1,0,0,0,0,.05,3.34,3.34,0,0,0,.05,1.8c.12.81.24,1.61.35,2.41l.26-.06c-.88-1.92-1.76-3.83-2.75-5.69-.06-.12-.28-.1-.26.07a20.88,20.88,0,0,0,1.5,4.88.13.13,0,0,0,.25-.1l-1.19-2.95a.14.14,0,0,0-.16-.1.13.13,0,0,0-.09.17h0c.07.78.12,1.56.13,2.35l.26-.07L41.24,441a.13.13,0,0,0-.17-.07.12.12,0,0,0-.07.17c.28.92.59,1.84.91,2.74a.15.15,0,0,0,.18.08l0,0c.38-.26.3-.73.34-1.14a3.12,3.12,0,0,1,.75-1.71L43,441q.69,1.38,1.29,2.79l.25-.1L42.93,440a.14.14,0,0,0-.18-.08.13.13,0,0,0-.07.17,5,5,0,0,0,.81,1.55c.1.14.29,0,.21-.16-.69-1.17-1.44-2.32-2.23-3.43-.07-.11-.27,0-.24.09a11.31,11.31,0,0,0,.79,2.34.13.13,0,0,0,.25-.1l-.77-2-.23.13.81,1a.13.13,0,0,0,.24-.06,4.28,4.28,0,0,0-.16-1.28l-.24.09a1.53,1.53,0,0,0,.8,1c.13.07.22-.1.16-.2a22.88,22.88,0,0,0-1.64-2.5.13.13,0,0,0-.23.06l0,1.4.26,0a6.68,6.68,0,0,1-.54-2.24c0-.12-.21-.16-.25,0a2.51,2.51,0,0,0,.22,1.72c.33.88.66,1.76,1,2.62a22.5,22.5,0,0,0,1.14,2.31c.25.44.57,1.25,1.18,1.24.1,0,.13-.1.11-.18l-1-3.75-.25.09L44,442.46l.25-.09a32.86,32.86,0,0,0-4-5.67.13.13,0,0,0-.19,0,.11.11,0,0,0,0,.11c.06,1.57,1.71,3,1.13,4.59-.06.15.18.26.24.1.62-1.71-1-3.08-1.11-4.72l-.24.09A33,33,0,0,1,44,442.46c.08.15.31.07.24-.09l-1.14-2.67a.13.13,0,0,0-.25.1l1,3.76.11-.18c-.34,0-.59-.54-.73-.77s-.38-.66-.56-1c-.33-.62-.62-1.27-.9-1.92s-.5-1.27-.75-1.91a3,3,0,0,1-.37-1.91l-.25,0a7,7,0,0,0,.55,2.31c0,.11.25.11.25,0l.05-1.4-.24.06a22.88,22.88,0,0,1,1.64,2.5l.16-.2a1.25,1.25,0,0,1-.66-.81c-.05-.16-.3-.07-.25.1a4,4,0,0,1,.14,1.15l.23-.06-.81-1.06a.13.13,0,0,0-.18,0,.14.14,0,0,0,0,.16l.77,2,.25-.1a11.27,11.27,0,0,1-.78-2.27l-.23.09c.79,1.12,1.53,2.26,2.23,3.44l.21-.16a5.17,5.17,0,0,1-.78-1.49l-.24.1,1.59,3.68c.07.15.31.05.24-.1-.4-.94-.83-1.87-1.28-2.79a.14.14,0,0,0-.18-.07.1.1,0,0,0,0,0,3.46,3.46,0,0,0-.69,1.28,3.11,3.11,0,0,0-.11.68c0,.28,0,.65-.23.84l.2.05c-.33-.9-.64-1.82-.92-2.74l-.25.1,1.12,2.67a.14.14,0,0,0,.17.08.15.15,0,0,0,.09-.14c0-.78-.06-1.57-.14-2.35l-.26.07,1.19,2.94.24-.09a20.37,20.37,0,0,1-1.48-4.82l-.25.07c1,1.85,1.87,3.77,2.74,5.68.06.13.28.09.26-.06l-.3-2.06a4.22,4.22,0,0,1-.12-2l-.23,0a10.61,10.61,0,0,1,1.43,3.27l.22-.13a16.75,16.75,0,0,1-1.54-3.46.13.13,0,0,0-.17-.09.12.12,0,0,0-.09.16h0c.23,1.32.49,2.63.77,3.94l.25-.06-1.22-2.76a.14.14,0,0,0-.17-.07.14.14,0,0,0-.09.14l.28,2.16.26-.06a26.7,26.7,0,0,1-1.11-3.49c0-.13-.25-.17-.26,0a8.38,8.38,0,0,0,.25,2.64l.25-.1-1.15-2.87a.14.14,0,0,0-.18-.07.11.11,0,0,0-.07.1,3.24,3.24,0,0,0,.15,1.87c.07.16.29.06.25-.1-.4-1.5-.73-3-1-4.55a.13.13,0,0,0-.26,0,5.06,5.06,0,0,1,0,1.23h.26a17.55,17.55,0,0,1-.41-2.79c0-.16-.23-.15-.27,0a3.63,3.63,0,0,0,0,1.88c0,.13.25.1.25,0l0-1.48h-.26a16.44,16.44,0,0,0,.7,4.29.13.13,0,0,0,.17.07.11.11,0,0,0,.08-.1l.18-3.5-.25,0a29.7,29.7,0,0,0,1.56,4.48c.06.12.29.09.26-.06a31.37,31.37,0,0,0-1-3.59.13.13,0,1,0-.24.09L43,442.16l.23-.13a28.18,28.18,0,0,1-2.53-4.72l-.2.15a24.75,24.75,0,0,1,3.61,3.84l.19-.18a4.87,4.87,0,0,1-1.43-2.25l-.23.13a23.28,23.28,0,0,1,1.65,2.92l.21-.15A6.79,6.79,0,0,1,42.69,439l-.24.1.56,1.44.22-.13a27.24,27.24,0,0,1-2.13-4.66.14.14,0,0,0-.17-.08.14.14,0,0,0-.08.18l1,2.83.24-.13a5.06,5.06,0,0,1-.9-2.33l-.26.06.51,1.24a.13.13,0,0,0,.17.07.13.13,0,0,0,.08-.17L41,435.7a.14.14,0,0,0-.18-.08.13.13,0,0,0-.07.17Z"/><path class="cls-24" d="M56.06,429.63c.12.67.21,1.35.27,2l.23-.09a1.39,1.39,0,0,1,0-1.43l-.25,0a23.58,23.58,0,0,0,.8,4.15.14.14,0,0,0,.18.07.12.12,0,0,0,.08-.1,9.37,9.37,0,0,0-.14-2.11c0-.16-.29-.14-.27,0l.5,4c0,.14.25.16.26,0l.1-1.86h-.26l.15,4.21.26,0a9,9,0,0,1,.7-4.42l-.25-.07a13.24,13.24,0,0,1-.55,3.48l.26,0c-.18-1.58-.28-3.17-.31-4.76l-.27,0A54.6,54.6,0,0,0,58.7,439c0,.16.28.15.26,0a29.8,29.8,0,0,1-.28-6l-.25,0,1.49,4.18c0,.14.29.08.26-.06A11.56,11.56,0,0,0,59,433.48a.15.15,0,0,0-.19,0,.17.17,0,0,0-.05.12,26.47,26.47,0,0,0,1.34,4.36c.06.17.29.07.24-.1-.14-.52-.78-2.22-1.62-1.85-.32.15-.27.55-.18.84a1.82,1.82,0,0,0,.88,1,.12.12,0,0,0,.17-.07,0,0,0,0,0,0,0,5.06,5.06,0,0,0-1-3.15c-.09-.13-.27,0-.23.12a9.22,9.22,0,0,0,1,2.21c.24.4.56,1,1.12.88a.13.13,0,0,0,.11-.15v0a28,28,0,0,0-2.06-4.49l-.21.16A17.93,17.93,0,0,0,61.17,437c.1.09.24,0,.2-.16a14.72,14.72,0,0,0-2.81-5,.13.13,0,0,0-.18,0,.14.14,0,0,0,0,.16c.32,1,.67,1.93,1.07,2.88l.24-.1a23.48,23.48,0,0,0-2-3.12c-.1-.14-.29,0-.21.16l1.06,1.84c.07.13.29,0,.23-.13l-1.41-2.9a.12.12,0,0,0-.17-.07.13.13,0,0,0-.08.13,17.54,17.54,0,0,0,.43,3.23l.25-.07a16.85,16.85,0,0,0-1.14-3.14.13.13,0,0,0-.16-.09.13.13,0,0,0-.1.16h0a7.6,7.6,0,0,0,.78,2.64.15.15,0,0,0,.18.08.16.16,0,0,0,.08-.1,3.72,3.72,0,0,0-.12-2,.14.14,0,0,0-.26.06,2.07,2.07,0,0,0,.68,1.35.13.13,0,0,0,.18,0,.14.14,0,0,0,0-.09,6.38,6.38,0,0,0-1.37-3.25c-.08-.09-.27,0-.24.1a5.69,5.69,0,0,0,.62,1.73c.06.12.29.1.25-.06l-.3-1.24-.25.06,1.34,2.52a.13.13,0,0,0,.25-.07A6,6,0,0,0,57,429.52a.14.14,0,0,0-.18,0,.11.11,0,0,0-.05.12,3.45,3.45,0,0,0,.7,1.9.13.13,0,0,0,.24-.09,5.26,5.26,0,0,0-.84-1.94l-.21.16a18.67,18.67,0,0,1,2.46,4.73c.06.16.29.06.25-.1a12.28,12.28,0,0,0-1.13-2.91.13.13,0,0,0-.17-.08.16.16,0,0,0-.08.14l.14,1.58c0,.33.28,1.42-.19,1.54l.18.08a4,4,0,0,1,0-2.38l-.25,0,0,3.89.27,0L58,433.82l-.26,0a4.23,4.23,0,0,0,.62,1.9c.29.41.88,1,1.43.89s.31-1,.14-1.33a24.06,24.06,0,0,1-1.37-2.22l-.25.1,1.89,3.64a.13.13,0,0,0,.17.1.13.13,0,0,0,.09-.16,13.65,13.65,0,0,0-1.34-4.2l-.25.1a17.78,17.78,0,0,0,3.93,5c.13.12.28-.09.16-.21a28.77,28.77,0,0,0-3.83-3.22.14.14,0,0,0-.19,0,.12.12,0,0,0,0,.09,12.09,12.09,0,0,0,.74,2.71.14.14,0,0,0,.17.08.13.13,0,0,0,.08-.17l-.63-1.77a.13.13,0,0,0-.16-.09.12.12,0,0,0-.1.16h0a19,19,0,0,1,.29,3.2l.25,0a7,7,0,0,1-.58-3.18h-.27l.34,2.87a.14.14,0,0,0,.27,0c.13-.48.43-1.51.94-1.66.27-.08.28,0,.43.22s.22.27.32.41l.65.82a.13.13,0,0,0,.24-.09,2,2,0,0,0-1.37-1.61.13.13,0,0,0-.17.17l.49,1.24.18-.17L59.81,437a.12.12,0,0,0-.17.07.09.09,0,0,0,0,.1,7,7,0,0,1,.44,2l.26-.06-.75-2.9a.13.13,0,0,0-.22,0,6.15,6.15,0,0,0-.9,1.57c-.06.16.18.26.24.1a5.73,5.73,0,0,1,.86-1.5l-.22,0,.74,2.91c0,.15.26.08.25-.07a6.93,6.93,0,0,0-.46-2l-.17.17,1.23.47a.13.13,0,0,0,.17-.08.14.14,0,0,0,0-.09l-.49-1.23-.18.17a1.73,1.73,0,0,1,1.21,1.38l.24-.09c-.36-.45-.7-.93-1.08-1.37-.15-.17-.33-.37-.59-.31s-.49.48-.63.73a6.48,6.48,0,0,0-.52,1.28h.26L59,435.26c0-.14-.25-.16-.26,0a7.26,7.26,0,0,0,.6,3.32c0,.11.25.11.25,0a18.83,18.83,0,0,0-.28-3.27l-.26.06.63,1.76.25-.09a11.86,11.86,0,0,1-.73-2.65l-.21.11a28.1,28.1,0,0,1,3.83,3.23l.16-.21a17.49,17.49,0,0,1-3.84-4.91c-.07-.14-.31-.06-.24.1a13.39,13.39,0,0,1,1.32,4.13l.26-.07-1.89-3.64a.13.13,0,0,0-.17-.08.13.13,0,0,0-.07.17,5.27,5.27,0,0,0,.81,1.37,7.51,7.51,0,0,1,.47.68,3,3,0,0,1,.19.41c.1.3.16.38-.1.56s-.22.14-.41,0A1.72,1.72,0,0,1,59,436a2.16,2.16,0,0,1-.52-.68,4.14,4.14,0,0,1-.41-1.49c0-.17-.27-.14-.26,0l.12,2.24c0,.17.26.14.26,0l0-3.88a.13.13,0,0,0-.25,0,4.33,4.33,0,0,0-.05,2.57c0,.08.11.09.17.08.43-.11.44-.61.42-1-.06-.81-.14-1.61-.21-2.42l-.26.06a12.19,12.19,0,0,1,1.13,2.92l.25-.1a19.69,19.69,0,0,0-2.5-4.79c-.1-.14-.31,0-.21.16a4.79,4.79,0,0,1,.78,1.81l.24-.09a3.17,3.17,0,0,1-.65-1.78l-.24.1a5.69,5.69,0,0,1,1.12,2.76l.26-.07-1.33-2.51c-.07-.12-.3-.1-.26.06l.3,1.25.26-.07a5.49,5.49,0,0,1-.61-1.67l-.24.1a6.07,6.07,0,0,1,1.33,3.11l.22-.11a1.72,1.72,0,0,1-.58-1.17l-.26.06a3.51,3.51,0,0,1,.11,1.9l.25,0a7.2,7.2,0,0,1-.76-2.57l-.26.06a16.85,16.85,0,0,1,1.14,3.14c0,.14.29.08.26-.06a17.54,17.54,0,0,1-.43-3.23l-.26.07,1.4,2.9.24-.13-1.06-1.85-.21.16a23.58,23.58,0,0,1,2,3.06.13.13,0,0,0,.25-.1c-.4-.94-.75-1.9-1.07-2.88l-.23.13a14.74,14.74,0,0,1,2.77,4.91l.21-.15a17.78,17.78,0,0,1-2.85-3.61c-.09-.15-.29,0-.21.16a27.25,27.25,0,0,1,2,4.43l.11-.18c-.57.1-1-.94-1.18-1.32a10,10,0,0,1-.62-1.6l-.23.13a4.83,4.83,0,0,1,.91,3l.19-.1a1.56,1.56,0,0,1-.67-.7c-.1-.23-.15-.31,0-.51s.28-.13.46.08a3.49,3.49,0,0,1,.73,1.45l.25-.09a26,26,0,0,1-1.31-4.3l-.24.09a11.07,11.07,0,0,1,1.16,3.45l.26-.06-1.5-4.17a.13.13,0,0,0-.25,0,29.64,29.64,0,0,0,.28,6.1l.26,0a53,53,0,0,1-1.13-6.24.14.14,0,0,0-.27,0c0,1.59.14,3.18.31,4.76,0,.12.22.17.26,0a13.77,13.77,0,0,0,.56-3.55.13.13,0,0,0-.25-.07,9.22,9.22,0,0,0-.72,4.55c0,.17.27.14.26,0l-.14-4.21c0-.14-.26-.15-.27,0l-.1,1.86h.26l-.49-4-.27,0a8.77,8.77,0,0,1,.15,2l.25,0a23.53,23.53,0,0,1-.79-4.08.13.13,0,0,0-.16-.1.15.15,0,0,0-.09.06,1.65,1.65,0,0,0,0,1.7c.07.12.24,0,.23-.09a19.76,19.76,0,0,0-.26-2c0-.17-.3-.14-.27,0Z"/><path class="cls-25" d="M53.81,471.83l18.07-6.33a.72.72,0,0,1,.66,0,.74.74,0,0,1,.37.67c.39,1.71.79,3.43,1.18,5.15s.84,3.65,1.25,5.47l-16.07,6.33A48.83,48.83,0,0,1,56,478.25a46.5,46.5,0,0,1-2.6-5.19.8.8,0,0,1-.12-.9A.78.78,0,0,1,53.81,471.83Z"/><path class="cls-26" d="M56.88,473.18l.66,1.67a1,1,0,0,0,1.31.41l1.9-.74a1,1,0,0,0,.68-1.2l-.66-1.67Z"/><path class="cls-26" d="M66.81,469.27l.66,1.67a1,1,0,0,0,1.31.41l1.9-.75a1,1,0,0,0,.68-1.19l-.66-1.68Z"/><line class="cls-27" x1="64.25" y1="472.36" x2="67.28" y2="480.03"/><line class="cls-27" x1="64.27" y1="472.4" x2="64.94" y2="471.2"/><line class="cls-27" x1="64.27" y1="472.4" x2="62.96" y2="471.98"/><circle class="cls-22" cx="51.52" cy="454.71" r="5.33"/><circle class="cls-23" cx="51.52" cy="454.71" r="1.01"/><ellipse class="cls-28" cx="60.99" cy="464.39" rx="0.58" ry="0.29" transform="translate(-166.03 54.71) rotate(-21.51)"/><rect class="cls-29" x="36.51" y="430.61" width="43.53" height="51.02" transform="translate(-163.18 53.14) rotate(-21.51)"/><ellipse class="cls-1" cx="60.1" cy="504.36" rx="6.67" ry="13.16" transform="translate(-439.59 413.28) rotate(-72.87)"/><path class="cls-2" d="M56,509.38c-1.43.79-4.75-1.73-6.23-2.67a20.39,20.39,0,0,1-5.48-5.78,8.53,8.53,0,0,1-1.23-3.12c-.18-.95-.18-1.35-.39-1.58a1.84,1.84,0,0,0-1.27-.47c-1.84-.16-4.51-2.42-5.63-3.84a8,8,0,0,1-.84-8.05,7.78,7.78,0,0,1-4.48-1,10.54,10.54,0,0,1-3.86-4.21c-.72-1.23-2-3.48-1.61-5.9a5.26,5.26,0,0,1,2.36-3.43,2.77,2.77,0,0,1,1.93-.53c1.53.23,2.75,1.92,3.26,2.45a147.28,147.28,0,0,1,10,11.74c3.22,4.16,7,7.91,9.94,12.22,2.06,3,1.9,4.7,2.91,7.87C55.9,504.65,57.19,507.89,56,509.38Z"/><path class="cls-2" d="M42.59,491.18a13.32,13.32,0,0,1,2.8-2.81c4.68-3.5,10.81-3.64,13.69-.32s1.43,8.85-3.25,12.35a14.58,14.58,0,0,1-3.56,1.94Z"/><path class="cls-2" d="M26.64,472.8c-.8-.92-1.05-2-.58-2.54a13.65,13.65,0,0,1,2-1.85c4.68-3.49,10.81-3.63,13.69-.31s1.43,8.85-3.25,12.35a13.91,13.91,0,0,1-2.38,1.43c-.65.32-1.75-.15-2.54-1.07Z"/><path class="cls-2" d="M33.67,480.9a12.91,12.91,0,0,1,2.8-2.82c4.68-3.5,10.81-3.64,13.69-.31s1.43,8.85-3.25,12.34a13.84,13.84,0,0,1-3.57,1.94Z"/><path class="cls-2" d="M98.43,471.67c-1.39-2.13-1.83-2.56-5-7.08-1.51-2.15-1.68-2.5-2.18-3.17-3.31-4.48-10.82-9.18-14.18-7-3.69,2.44-3.32,9.5.83,15.77a23.52,23.52,0,0,0,2,2.63,23.94,23.94,0,0,0-5.08,10.33C72.69,492.62,76.34,501,83,502s13.51-11.25,15.84-15.35a14.48,14.48,0,0,0,1.73-4.36A13.85,13.85,0,0,0,98.43,471.67Z"/></g></svg>
