<svg id="Layer_2" data-name="Layer 2" xmlns="http://www.w3.org/2000/svg" width="216" height="216" viewBox="0 0 216 216"><defs><style>.cls-1{fill:#1f2532;}.cls-2{fill:#ff9207;}.cls-3{isolation:isolate;}</style></defs><title>delknap_hover</title><rect class="cls-1" width="216" height="216" rx="12" ry="12"/><circle class="cls-2" cx="114" cy="126" r="27"/><circle class="cls-2" cx="159" cy="45" r="27"/><path class="cls-2" d="M121.13,125.58h0a12,12,0,0,1-5.52-16L144,51.38a12,12,0,0,1,16-5.52h0a12,12,0,0,1,5.52,16l-28.38,58.15A12,12,0,0,1,121.13,125.58Z"/><circle class="cls-2" cx="66" cy="45" r="27"/><path class="cls-2" d="M65.35,44.85h0A12,12,0,0,1,81.4,50.36l28.39,58.16a12,12,0,0,1-5.52,16h0a12,12,0,0,1-16-5.52L59.84,60.89A12,12,0,0,1,65.35,44.85Z"/><g class="cls-3"><path class="cls-2" d="M84.89,163.75a42.53,42.53,0,0,1,7-.57c4.75,0,8.13,1.14,10.37,3.19s3.65,5.06,3.65,9.2a13.66,13.66,0,0,1-3.69,10c-2.43,2.4-6.38,3.69-11.36,3.69a52.66,52.66,0,0,1-6-.31Zm3.3,22.65a28.46,28.46,0,0,0,3.35.15c7.1,0,10.9-4,10.9-10.87,0-6-3.38-9.88-10.37-9.88a18.76,18.76,0,0,0-3.88.35Z"/><path class="cls-2" d="M123.42,177H113.5v9.24h11.1V189H110.16V163.37H124v2.78H113.5v8.09h9.92Z"/><path class="cls-2" d="M128.85,163.37h3.35v22.84h10.94V189H128.85Z"/></g></svg>
