<svg id="Layer_1" data-name="Layer 1" xmlns="http://www.w3.org/2000/svg" width="216" height="216" viewBox="0 0 216 216"><defs><style>.cls-1{fill:#ff9207;}.cls-2{fill:#1f2532;}.cls-3{isolation:isolate;}</style></defs><title>gemknap</title><rect class="cls-1" width="216" height="216" rx="12" ry="12"/><rect class="cls-2" x="81" y="16" width="54" height="106.7" rx="12" ry="12"/><polygon class="cls-2" points="108 161.57 162 106 54 106 108 161.57"/><g class="cls-3"><path class="cls-2" d="M94.42,196.84a23.16,23.16,0,0,1-7.91,1.41c-3.87,0-7.06-1-9.57-3.38a13.2,13.2,0,0,1-3.57-9.54c0-7.64,5.28-13.22,13.87-13.22a16.12,16.12,0,0,1,6.42,1.17l-.84,2.7a12.82,12.82,0,0,0-5.66-1.1c-6.23,0-10.3,3.87-10.3,10.3s3.88,10.33,9.88,10.33a10.8,10.8,0,0,0,4.41-.68v-7.64H86v-2.66h8.44Z"/><path class="cls-2" d="M112.66,186h-9.92v9.24h11.1V198H99.4V172.37h13.87v2.78H102.74v8.09h9.92Z"/><path class="cls-2" d="M139.71,186.73c-.19-3.57-.42-7.9-.42-11h-.07c-.91,3-1.94,6.19-3.23,9.72l-4.52,12.43H129l-4.18-12.2c-1.22-3.65-2.2-6.91-2.93-9.95h-.07c-.08,3.19-.27,7.45-.49,11.32l-.69,11h-3.15l1.78-25.61h4.22l4.37,12.39c1.06,3.15,1.9,6,2.58,8.62h.08c.68-2.58,1.6-5.39,2.73-8.62l4.56-12.39H142l1.6,25.61h-3.27Z"/></g></svg>
