<svg id="Layer_1" data-name="Layer 1" xmlns="http://www.w3.org/2000/svg" width="150" height="200" viewBox="0 0 150 200"><defs><style>.cls-1{fill:#f9cc9b;}.cls-2{fill:#f4c990;}.cls-3{fill:#adadad;}.cls-4{fill:#474747;}.cls-10,.cls-16,.cls-5,.cls-7,.cls-8,.cls-9{isolation:isolate;}.cls-10,.cls-11,.cls-6,.cls-7,.cls-8,.cls-9{fill:#fff;}.cls-7,.cls-8{font-size:2.09px;}.cls-10,.cls-16,.cls-7,.cls-8,.cls-9{font-family:MyriadPro-Regular, Myriad Pro;}.cls-7{letter-spacing:-0.01em;}.cls-10,.cls-9{font-size:1.83px;}.cls-9{letter-spacing:-0.07em;}.cls-11,.cls-12{stroke:#666;stroke-miterlimit:10;}.cls-12{fill:none;}.cls-13{fill:#c1c1c1;}.cls-14{fill:#45ff00;}.cls-15{fill:#f9f9f9;}.cls-16{font-size:3.02px;}</style></defs><title>mobil_arm</title><path class="cls-1" d="M89.84,121.68c0-3,0-4.51,0-6.52,0-4,0-9.81.13-17.49.07-6.3-4.21-7.47-9.94-8.11-2.65-.29-4.72,1-7.16,1.81C67.72,93.08,60,94.93,57,99.9c-.16,7.39,0,13.41.12,17.64.2,5.69.46,8.33.4,13.48-.07,5.74-.47,9.74-.82,13.52-1.56,17-2.34,25.53-1.57,29.5.85,4.36,3.45,17.65,14.15,21.66,7.5,2.81,17.17.38,21.92-5.57,3.49-4.36,3.33-10.3,3-22.17-.11-4.39-.55-8.35-1.44-16.27C91.18,137.51,89.93,132.14,89.84,121.68Z"/><ellipse class="cls-2" cx="72.77" cy="94.7" rx="20.24" ry="13.88" transform="translate(-34.53 42.26) rotate(-26.41)"/><rect x="33.12" y="10.21" width="46.22" height="81.55" rx="4.46" ry="4.46" transform="translate(-14.78 24.17) rotate(-21.51)"/><path class="cls-3" d="M58.81,6.66A4,4,0,0,1,64,8.9L90.6,76.47a4,4,0,0,1-2.24,5.15L53.65,95.3a4,4,0,0,1-5.16-2.24L21.86,25.49a4,4,0,0,1,2.24-5.15L58.81,6.66m-.36-.9L23.74,19.44A5,5,0,0,0,21,25.85L47.6,93.42A5,5,0,0,0,54,96.2L88.71,82.52a5,5,0,0,0,2.79-6.4L64.86,8.54A5,5,0,0,0,58.45,5.76Z"/><circle class="cls-4" cx="69.38" cy="83.63" r="2.92"/><path class="cls-4" d="M39.67,18.6,46.32,16a.35.35,0,0,1,.45.2h0a.34.34,0,0,1-.19.45l-6.66,2.62a.35.35,0,0,1-.45-.2h0A.35.35,0,0,1,39.67,18.6Z"/><circle class="cls-4" cx="37.6" cy="19.79" r="0.61"/><g class="cls-5"><path class="cls-6" d="M38.29,32.63h0l-.87,1L37,33.08l1.09-1.29.73-.29,2.49,6.33-.83.33Z"/><path class="cls-6" d="M46.54,32c.85,2.15.51,3.65-.88,4.2-1.24.49-2.54-.34-3.39-2.42s-.37-3.65.92-4.16S45.75,30,46.54,32Zm-3.4,1.45c.65,1.64,1.53,2.38,2.31,2.07s.88-1.53.24-3.14-1.41-2.43-2.3-2.08S42.46,31.76,43.14,33.48Z"/><path class="cls-6" d="M48.48,34.42a.62.62,0,0,1,.33-.84.66.66,0,1,1-.33.84ZM47.12,31a.61.61,0,0,1,.34-.84.59.59,0,0,1,.81.38.61.61,0,0,1-.34.84A.62.62,0,0,1,47.12,31Z"/><path class="cls-6" d="M53.55,29.26c.85,2.15.51,3.66-.88,4.21s-2.54-.34-3.39-2.42-.37-3.66.92-4.16S52.76,27.25,53.55,29.26Zm-3.4,1.45c.65,1.65,1.53,2.38,2.31,2.08s.88-1.53.24-3.15-1.41-2.42-2.3-2.07S49.47,29,50.15,30.71Z"/><path class="cls-6" d="M55.43,31.13A3.11,3.11,0,0,0,57,31a1.33,1.33,0,0,0,1-1.79,1.51,1.51,0,0,0-2.13-.62l-.48.19-.26-.65.48-.18c.62-.25,1.29-.88,1-1.63a1,1,0,0,0-1.48-.52,2.46,2.46,0,0,0-1.1.92l-.48-.53A3.2,3.2,0,0,1,54.94,25a1.65,1.65,0,0,1,1.83,2.75v0a1.77,1.77,0,0,1,2,1.06c.4,1,0,2.21-1.56,2.81a3.46,3.46,0,0,1-1.81.22Z"/></g><g class="cls-5"><text class="cls-7" transform="matrix(0.93, -0.37, 0.37, 0.93, 44.1, 40.54)">t</text><g class="cls-5"><path class="cls-6" d="M45.54,39.41a.51.51,0,0,1-.28.69.48.48,0,0,1-.64-.31.49.49,0,0,1,.27-.68A.49.49,0,0,1,45.54,39.41Zm-.75.31c.09.21.27.32.43.25a.34.34,0,0,0,.14-.48c-.06-.16-.22-.33-.42-.25A.35.35,0,0,0,44.79,39.72Z"/><path class="cls-6" d="M45.69,39.16l-.13-.29.15-.06.08.18h0a.32.32,0,0,1,.18-.31H46l.06.16-.06,0a.25.25,0,0,0-.14.31.16.16,0,0,0,0,.08l.19.5-.17.07Z"/><path class="cls-6" d="M46.49,39.39a.55.55,0,0,0,.25,0c.12,0,.16-.13.13-.21s-.1-.11-.24-.1-.32-.06-.36-.17a.32.32,0,0,1,.22-.41.45.45,0,0,1,.25,0v.14a.45.45,0,0,0-.22,0,.16.16,0,0,0-.11.19c0,.08.11.09.25.09a.34.34,0,0,1,.36.19c.06.17,0,.33-.24.42a.63.63,0,0,1-.29,0Z"/><path class="cls-6" d="M47.62,37.55l.45,1.14c0,.08.07.18.1.24L48,39l-.08-.16h0a.36.36,0,0,1-.24.31.47.47,0,0,1-.6-.32.49.49,0,0,1,.22-.67.35.35,0,0,1,.35,0h0l-.22-.56Zm.15.89,0-.07a.29.29,0,0,0-.33-.1c-.18.07-.22.27-.14.48s.23.31.42.24a.29.29,0,0,0,.17-.31s0,0,0-.07Z"/><path class="cls-6" d="M49,38.33a1.56,1.56,0,0,0,.1.22l-.15.07-.06-.12h0a.37.37,0,0,1-.23.26.28.28,0,0,1-.39-.16c-.09-.23.06-.43.43-.57v0a.21.21,0,0,0-.3-.13.45.45,0,0,0-.22.16l-.09-.1a.67.67,0,0,1,.28-.2.35.35,0,0,1,.51.24Zm-.27-.19c-.18.07-.38.19-.31.37a.15.15,0,0,0,.22.1.23.23,0,0,0,.17-.24s0,0,0-.06Z"/><path class="cls-6" d="M50.14,38a.49.49,0,0,1-.26.73.74.74,0,0,1-.35.05v-.15a.6.6,0,0,0,.31,0,.3.3,0,0,0,.17-.45l0-.1h0a.39.39,0,0,1-.24.28.45.45,0,0,1-.58-.31.47.47,0,0,1,.23-.66.32.32,0,0,1,.35,0h0l0-.14.15-.06c0,.07.05.14.09.26Zm-.34-.37,0-.07a.27.27,0,0,0-.32-.09c-.16.06-.22.25-.14.47s.23.3.42.23a.28.28,0,0,0,.17-.27.17.17,0,0,0,0-.1Z"/><path class="cls-6" d="M50.83,37.88l0-.1.08-.19c.21-.43.29-.66.21-.85a.24.24,0,0,0-.34-.15.49.49,0,0,0-.23.22l-.1-.1a.61.61,0,0,1,.3-.27.39.39,0,0,1,.54.21c.09.24,0,.49-.17.86l-.06.13h0l.57-.22,0,.14Z"/><path class="cls-6" d="M52.1,36.06l-.12.06a.55.55,0,0,0-.27.62h0a.39.39,0,0,1,.25-.27.4.4,0,0,1,.54.26.45.45,0,0,1-.24.61c-.27.11-.53,0-.66-.36a.84.84,0,0,1,0-.66.79.79,0,0,1,.33-.35l.12,0Zm.24.75a.27.27,0,0,0-.37-.19.29.29,0,0,0-.19.25.22.22,0,0,0,0,.08c.09.21.25.33.43.26A.29.29,0,0,0,52.34,36.81Z"/><path class="cls-6" d="M52.81,37a.13.13,0,0,1,.06-.17.12.12,0,0,1,.17.08.13.13,0,0,1-.07.17A.12.12,0,0,1,52.81,37Z"/><path class="cls-6" d="M54.28,36.26a.9.9,0,0,0,.1.22l-.16.06-.06-.11h0a.4.4,0,0,1-.24.26.28.28,0,0,1-.39-.16c-.09-.23.06-.43.43-.57v0a.21.21,0,0,0-.3-.14.54.54,0,0,0-.22.17l-.08-.1a.6.6,0,0,1,.28-.2c.29-.12.43,0,.51.24ZM54,36.07c-.19.07-.39.19-.32.37a.16.16,0,0,0,.23.1.26.26,0,0,0,.17-.25s0,0,0,0Z"/><path class="cls-6" d="M54.39,35.74l-.13-.3.15-.06.08.16h0a.39.39,0,0,1,.26-.32.46.46,0,0,1,.59.32.48.48,0,0,1-.23.68.34.34,0,0,1-.35,0h0l.2.51-.17.07Zm.27.19,0,.07a.31.31,0,0,0,.34.1c.18-.08.23-.26.14-.48a.33.33,0,0,0-.42-.24.29.29,0,0,0-.17.31s0,.05,0,.08Z"/></g><text class="cls-8" transform="matrix(0.93, -0.37, 0.37, 0.93, 55.6, 36)">r</text><text class="cls-8" transform="matrix(0.93, -0.37, 0.37, 0.93, 56.25, 35.75)">il</text></g><rect class="cls-6" x="26.24" y="30.19" width="0.83" height="0.83" transform="translate(-9.37 11.91) rotate(-21.51)"/><rect class="cls-6" x="28.02" y="28.42" width="0.83" height="1.85" transform="translate(-8.78 12.47) rotate(-21.51)"/><rect class="cls-6" x="27.15" y="29.3" width="0.83" height="1.34" transform="translate(-9.07 12.2) rotate(-21.51)"/><rect class="cls-6" x="28.95" y="27.63" width="0.83" height="2.27" transform="translate(-8.5 12.77) rotate(-21.51)"/><g class="cls-5"><text class="cls-9" transform="matrix(0.93, -0.37, 0.37, 0.93, 31.08, 28.92)">T</text><text class="cls-10" transform="matrix(0.93, -0.37, 0.37, 0.93, 31.8, 28.63)">elenor</text></g><path class="cls-11" d="M61.05,15.45l-2,.8a.26.26,0,0,0-.15.34l.19.48a.27.27,0,0,0,.34.15h0l2-.8Z"/><path class="cls-12" d="M61.07,15.46l2-.79a.27.27,0,0,1,.34.15l.18.46a.27.27,0,0,1-.15.34h0l-2,.78Z"/><rect class="cls-13" x="35.02" y="40.62" width="38.55" height="10.73" rx="3.89" ry="3.89" transform="translate(-13.08 23.11) rotate(-21.51)"/><path d="M66.76,42.32l-1.11-2.81.4-.16,1.45,1.07a8.57,8.57,0,0,1,.86.71h0c-.18-.37-.32-.7-.49-1.14l-.47-1.17.34-.14,1.11,2.81-.36.14L67,40.56a9.65,9.65,0,0,1-.89-.73h0c.16.34.3.68.48,1.14l.48,1.2Z"/><path d="M70.94,40l.24.54-.32.13-.16-.32h0a.81.81,0,0,1-.52.64c-.32.12-.77.09-1-.61l-.47-1.18.37-.14.44,1.11c.15.38.37.6.7.47a.57.57,0,0,0,.35-.53.51.51,0,0,0,0-.2L70,38.71l.37-.14Z"/><rect class="cls-14" x="37.2" y="46.51" width="8.53" height="9.06" rx="4.26" ry="4.26" transform="translate(-15.83 18.76) rotate(-21.51)"/><ellipse class="cls-15" cx="41.09" cy="50.15" rx="3.08" ry="2.38" transform="translate(-15.53 18.56) rotate(-21.51)"/><polygon class="cls-15" points="40.23 53.74 41.23 52.55 39.71 52.2 40.23 53.74"/><g class="cls-5"><path d="M47.08,49.71l1-.4.08.21-.77.3.25.63.71-.28.08.2-.71.29.34.86-.25.09Z"/></g><text class="cls-16" transform="matrix(0.93, -0.37, 0.37, 0.93, 48.91, 51.19)">r</text><g class="cls-5"><path d="M50.85,50.05a3,3,0,0,0,.15.31l-.22.09-.09-.16h0a.54.54,0,0,1-.33.37.41.41,0,0,1-.57-.23c-.13-.33.09-.62.61-.83v0a.3.3,0,0,0-.43-.19.72.72,0,0,0-.32.24l-.12-.14a.93.93,0,0,1,.41-.3.51.51,0,0,1,.73.35Zm-.38-.28c-.27.1-.56.27-.46.53a.24.24,0,0,0,.33.15.36.36,0,0,0,.24-.36.19.19,0,0,0,0-.08Z"/><path d="M53.29,49.4a1.49,1.49,0,0,1-.47.28,1,1,0,0,1-1.32-.59,1,1,0,0,1,.6-1.39,1.39,1.39,0,0,1,.49-.1l0,.23a1,1,0,0,0-.42.07A.76.76,0,0,0,51.76,49a.74.74,0,0,0,1,.47,1.17,1.17,0,0,0,.37-.23Z"/><path d="M52.82,47.33l.25-.09.79,2-.25.1Z"/><path d="M55.1,48.37a3.26,3.26,0,0,0,.15.32l-.22.09-.09-.17h0a.52.52,0,0,1-.34.36.42.42,0,0,1-.57-.22c-.13-.33.1-.63.62-.83v0a.29.29,0,0,0-.43-.19.72.72,0,0,0-.32.24l-.12-.14a.9.9,0,0,1,.4-.3.52.52,0,0,1,.74.35Zm-.38-.27c-.28.1-.57.27-.46.53a.24.24,0,0,0,.32.15.36.36,0,0,0,.25-.36.2.2,0,0,0,0-.09Z"/></g><text class="cls-16" transform="matrix(0.93, -0.37, 0.37, 0.93, 55.42, 48.62)">r</text><g class="cls-5"><path d="M57.36,47.48a3.26,3.26,0,0,0,.15.32l-.22.09-.09-.17h0a.52.52,0,0,1-.34.36.42.42,0,0,1-.57-.22c-.13-.33.09-.63.62-.83v0a.3.3,0,0,0-.43-.2.81.81,0,0,0-.32.25L56,46.91a1,1,0,0,1,.4-.29.52.52,0,0,1,.74.35ZM57,47.2c-.28.11-.56.28-.46.54a.24.24,0,0,0,.32.15.37.37,0,0,0,.25-.37.19.19,0,0,0,0-.08Z"/><path d="M58.14,46.6l1-1.19.08.19-.89,1h0l1.32.12.07.2-1.57-.16Z"/><path d="M60,46.48a1,1,0,0,0,.45,0,.39.39,0,0,0,.28-.52.45.45,0,0,0-.62-.18l-.14.06-.08-.19.14-.05c.18-.07.38-.26.29-.47a.29.29,0,0,0-.43-.15.72.72,0,0,0-.32.26L59.46,45a.89.89,0,0,1,.43-.33.48.48,0,0,1,.7.23.51.51,0,0,1-.17.57h0a.5.5,0,0,1,.59.31c.12.29,0,.64-.45.81a1,1,0,0,1-.52.07Z"/></g><g class="cls-5"><path d="M45.79,46.4a2.56,2.56,0,0,1,.44-.22.81.81,0,0,1,.57-.07.45.45,0,0,1,.29.28.47.47,0,0,1-.16.54h0a.53.53,0,0,1,.58.32.52.52,0,0,1,0,.44,1,1,0,0,1-.58.44,2.48,2.48,0,0,1-.39.13ZM46.7,48l.21-.07c.26-.1.46-.29.35-.56s-.37-.28-.64-.18l-.2.08Zm-.35-.91.22-.09c.26-.1.35-.3.28-.48s-.29-.24-.54-.15l-.21.11Z"/><path d="M48.69,46.39l-.74.29.27.69L49,47l.08.21-1.07.42-.75-1.9,1-.4.08.2-.78.31.24.6.74-.29Z"/><path d="M49.29,46.84a.85.85,0,0,0,.49-.05c.25-.1.34-.29.27-.48s-.21-.24-.51-.23-.61-.08-.71-.35a.59.59,0,0,1,.41-.76,1,1,0,0,1,.45-.07v.23a.75.75,0,0,0-.39,0c-.26.1-.3.3-.25.43s.22.22.53.21.59.09.7.37a.62.62,0,0,1-.45.81,1,1,0,0,1-.53.07Z"/><path d="M50.08,44.68l.24-.1.36.92h0c0-.09.05-.18.07-.26l.3-.94.31-.12L51,45.25l1.17.8-.29.11-1-.68-.1.28.28.72-.24.1Z"/><path d="M53,44.7l-.73.29.27.68.82-.32.08.21L52.35,46l-.75-1.9,1-.41.08.21-.78.3.24.61.73-.29Z"/><path d="M53,43.56a3.32,3.32,0,0,1,.5-.25,1.24,1.24,0,0,1,.87-.07,1,1,0,0,1,.54.58,1.09,1.09,0,0,1,0,.85,1.23,1.23,0,0,1-.73.6l-.46.16Zm.91,1.58.25-.08a.79.79,0,0,0,.49-1.13.73.73,0,0,0-1.06-.43,1.43,1.43,0,0,0-.28.14Z"/></g><ellipse class="cls-1" cx="60.1" cy="104.36" rx="6.67" ry="13.16" transform="translate(-57.33 131.07) rotate(-72.87)"/><path class="cls-2" d="M56,109.38c-1.43.79-4.75-1.73-6.23-2.67a20.39,20.39,0,0,1-5.48-5.78,8.53,8.53,0,0,1-1.23-3.12c-.18-1-.18-1.35-.39-1.59a1.87,1.87,0,0,0-1.27-.46c-1.84-.16-4.51-2.42-5.63-3.84a8,8,0,0,1-.84-8,7.78,7.78,0,0,1-4.48-1,10.54,10.54,0,0,1-3.86-4.21c-.72-1.23-2-3.48-1.61-5.9a5.26,5.26,0,0,1,2.36-3.43,2.77,2.77,0,0,1,1.93-.53c1.53.23,2.75,1.92,3.26,2.45A147.28,147.28,0,0,1,42.55,83c3.22,4.16,7,7.91,9.94,12.22,2.06,3,1.9,4.7,2.91,7.87C55.9,104.64,57.19,107.89,56,109.38Z"/><path class="cls-2" d="M42.59,91.18a13.61,13.61,0,0,1,2.8-2.82c4.68-3.49,10.81-3.63,13.69-.31s1.43,8.85-3.25,12.35a14.58,14.58,0,0,1-3.56,1.94Z"/><path class="cls-2" d="M26.64,72.79c-.8-.91-1.05-2-.58-2.53a13.65,13.65,0,0,1,2-1.85c4.68-3.49,10.81-3.64,13.69-.31S43.2,77,38.52,80.45a13.91,13.91,0,0,1-2.38,1.43c-.65.32-1.75-.15-2.54-1.07Z"/><path class="cls-2" d="M33.67,80.9a12.91,12.91,0,0,1,2.8-2.82c4.68-3.5,10.81-3.64,13.69-.31s1.43,8.85-3.25,12.34a13.84,13.84,0,0,1-3.57,1.94Z"/><path class="cls-2" d="M91.87,66.12A2.22,2.22,0,0,0,93,63.56a23.5,23.5,0,0,0-1.75-3.14c-4.15-6.28-10.5-9.39-14.18-7s-3.32,9.5.83,15.77a22.53,22.53,0,0,0,2.2,2.85,2.2,2.2,0,0,0,2.78,0Z"/><path class="cls-2" d="M74.81,83.19c2-8.8,8.29-15.37,14.51-15.43-.07-.36-.13-.73-.21-1.09-.29-1.25-1.24-3.21-.36-4.42a5.38,5.38,0,0,1,4.65,2.34,68.09,68.09,0,0,1,5,7.08,13.87,13.87,0,0,1,2.1,10.59,14.48,14.48,0,0,1-1.73,4.36C96.47,90.72,89.62,102.92,83,102S72.69,92.62,74.81,83.19Z"/></svg>
