<svg id="Layer_1" data-name="Layer 1" xmlns="http://www.w3.org/2000/svg" width="200" height="150" viewBox="0 0 200 150"><defs><style>.cls-1{fill:#fff;stroke:#000;stroke-miterlimit:10;}.cls-2{isolation:isolate;}</style></defs><title>ogsaatilmig</title><path class="cls-1" d="M192.72,68.56c-.61-22.15-50.4-42-93-42-51.36,0-93,18.81-93,42s41.64,42,93,42a187,187,0,0,0,44.84-5.2,88,88,0,0,0,24.66,9.2A87.59,87.59,0,0,0,192,116.31a65.86,65.86,0,0,1-24.5-19C180.32,90,193,79.94,192.72,68.56Z"/><g class="cls-2"><path d="M48.88,67c0,5.48-3.34,8.42-7.42,8.42-4.25,0-7.19-3.29-7.19-8.13,0-5.08,3.13-8.4,7.4-8.4S48.88,62.23,48.88,67Zm-12.43.24c0,3.44,1.85,6.5,5.13,6.5s5.12-3,5.12-6.64c0-3.21-1.66-6.53-5.1-6.53S36.45,63.75,36.45,67.24Z"/><path d="M61.46,73.48c0,2.66-.54,4.25-1.63,5.27a6.32,6.32,0,0,1-4.2,1.37,7.36,7.36,0,0,1-3.82-1l.52-1.61a6.22,6.22,0,0,0,3.37.93c2.13,0,3.7-1.12,3.7-4V73.19h0a4.07,4.07,0,0,1-3.65,1.93c-2.85,0-4.89-2.42-4.89-5.6,0-3.9,2.54-6.08,5.2-6.08a3.83,3.83,0,0,1,3.58,2h0l.07-1.73h1.85c-.07.81-.1,1.75-.1,3.13Zm-2.09-5.27a2.83,2.83,0,0,0-.11-.92,3,3,0,0,0-2.92-2.24c-2,0-3.42,1.69-3.42,4.35,0,2.25,1.16,4.13,3.39,4.13a3,3,0,0,0,2.9-2.14,3.59,3.59,0,0,0,.16-1.11Z"/><path d="M64.62,73.05a5.89,5.89,0,0,0,2.78.81c1.49,0,2.2-.74,2.2-1.71s-.59-1.52-2.11-2.09c-2.09-.76-3.06-1.87-3.06-3.25,0-1.85,1.52-3.37,4-3.37a5.32,5.32,0,0,1,2.8.71l-.5,1.52A4.48,4.48,0,0,0,68.35,65c-1.24,0-1.9.72-1.9,1.57s.66,1.38,2.16,2c2,.73,3,1.73,3,3.44,0,2-1.59,3.46-4.27,3.46a6.61,6.61,0,0,1-3.23-.8Z"/><path d="M82.37,72.41a18.94,18.94,0,0,0,.17,2.75H80.66l-.16-1.44h-.07a4.3,4.3,0,0,1-3.52,1.7,3.27,3.27,0,0,1-3.51-3.29c0-2.78,2.47-4.3,6.91-4.28v-.23A2.35,2.35,0,0,0,77.7,65a5.51,5.51,0,0,0-3,.86l-.47-1.4a7.37,7.37,0,0,1,3.79-1c3.52,0,4.37,2.4,4.37,4.68Zm-2-3.11c-2.27,0-4.86.36-4.86,2.59a1.83,1.83,0,0,0,2,2A2.93,2.93,0,0,0,80.26,72a2.36,2.36,0,0,0,.09-.66Zm-4.48-9A2.23,2.23,0,0,1,78.29,58a2.19,2.19,0,0,1,2.35,2.23,2.4,2.4,0,0,1-4.77,0Zm3.61,0a1.24,1.24,0,0,0-1.24-1.33,1.22,1.22,0,0,0-1.16,1.35,1.24,1.24,0,0,0,1.19,1.28A1.22,1.22,0,0,0,79.48,60.24Z"/><path d="M93.29,60.93v2.75h3v1.59h-3v6.19c0,1.43.4,2.23,1.56,2.23a4,4,0,0,0,1.21-.14l.1,1.59a5.74,5.74,0,0,1-1.85.28,3,3,0,0,1-2.26-.87,4.55,4.55,0,0,1-.8-3V65.27H89.47V63.68h1.78V61.54Z"/><path d="M101,60.45a1.29,1.29,0,0,1-2.58,0,1.27,1.27,0,0,1,1.3-1.3A1.25,1.25,0,0,1,101,60.45ZM98.63,75.16V63.68h2.09V75.16Z"/><path d="M104.18,58.32h2.09V75.16h-2.09Z"/><path d="M114.81,66.79c0-1.21,0-2.16-.09-3.11h1.82l.1,1.87h.07a4,4,0,0,1,3.63-2.11,3.4,3.4,0,0,1,3.23,2.3h.05a4.47,4.47,0,0,1,1.3-1.49,3.86,3.86,0,0,1,2.52-.81c1.54,0,3.79,1,3.79,5v6.74h-2V68.69c0-2.24-.83-3.54-2.49-3.54A2.75,2.75,0,0,0,124.21,67a3.45,3.45,0,0,0-.17,1v7.09h-2V68.28c0-1.83-.8-3.13-2.39-3.13A2.88,2.88,0,0,0,117,67.24a2.73,2.73,0,0,0-.17,1v6.9h-2Z"/><path d="M136.93,60.45a1.25,1.25,0,0,1-1.33,1.28,1.23,1.23,0,0,1-1.26-1.28,1.27,1.27,0,0,1,1.31-1.3A1.25,1.25,0,0,1,136.93,60.45Zm-2.32,14.71V63.68h2.08V75.16Z"/><path d="M150,73.48c0,2.66-.54,4.25-1.63,5.27a6.32,6.32,0,0,1-4.2,1.37,7.36,7.36,0,0,1-3.82-1l.52-1.61a6.22,6.22,0,0,0,3.37.93c2.13,0,3.7-1.12,3.7-4V73.19h0a4.07,4.07,0,0,1-3.65,1.93c-2.85,0-4.89-2.42-4.89-5.6,0-3.9,2.54-6.08,5.2-6.08a3.83,3.83,0,0,1,3.58,2h0l.07-1.73h1.85c-.07.81-.1,1.75-.1,3.13Zm-2.09-5.27a2.83,2.83,0,0,0-.11-.92,3,3,0,0,0-2.92-2.24c-2,0-3.42,1.69-3.42,4.35,0,2.25,1.16,4.13,3.39,4.13a3,3,0,0,0,2.9-2.14,3.59,3.59,0,0,0,.16-1.11Z"/><path d="M153,74a1.4,1.4,0,0,1,1.43-1.47A1.36,1.36,0,0,1,155.82,74a1.4,1.4,0,1,1-2.8,0Zm.6-3.37-.34-11.41h2.28l-.33,11.41Z"/></g></svg>
