<svg xmlns="http://www.w3.org/2000/svg" width="1920" height="1080" viewBox="0 0 1920 1080"><defs><style>.cls-1{isolation:isolate;}.cls-2{fill:#eae4ce;}.cls-2,.cls-31,.cls-32,.cls-4,.cls-5{mix-blend-mode:multiply;}.cls-3{fill:#d8cabf;}.cls-4{fill:#bfb5aa;}.cls-5{fill:#bf8f56;}.cls-11,.cls-6{fill:#fff;}.cls-6{stroke:#b3b3b3;stroke-width:7px;}.cls-24,.cls-26,.cls-29,.cls-30,.cls-34,.cls-6{stroke-miterlimit:10;}.cls-7{fill:#666;}.cls-8{fill:#ccc;}.cls-9{fill:#e6e6e6;}.cls-10{fill:#bda388;}.cls-12{fill:#b3b3b3;}.cls-13{fill:#999;}.cls-14{fill:#f2f2f2;}.cls-15{fill:#fcf081;}.cls-16{fill:#fe9209;}.cls-17{fill:#232c2d;}.cls-18{fill:gray;}.cls-19{fill:#698fb5;}.cls-20{fill:#dbdbdb;}.cls-21{fill:#999898;}.cls-22{fill:#a73f24;}.cls-23{fill:#682517;}.cls-24{fill:#d9f0fc;stroke:#fff;stroke-width:4px;}.cls-25{fill:#bad8dd;opacity:0.5;}.cls-26,.cls-27,.cls-29,.cls-30,.cls-31,.cls-33,.cls-34,.cls-35{fill:none;}.cls-26,.cls-30{stroke:#000;}.cls-26,.cls-29,.cls-31,.cls-33,.cls-34,.cls-35{stroke-width:2px;}.cls-26,.cls-27,.cls-28,.cls-30,.cls-31,.cls-32,.cls-34,.cls-35{opacity:0.75;}.cls-29,.cls-34,.cls-35{stroke:#212734;}.cls-31,.cls-33{stroke:#fe9209;}.cls-31,.cls-33,.cls-35{stroke-linecap:round;stroke-linejoin:round;}</style></defs><title>scene_baggrund</title><g class="cls-1"><g id="baggrund"><rect class="cls-2" x="297" width="1623.5" height="571.01"/><polygon class="cls-3" points="1396 417 514 417 521 -1 1392 -1 1396 417"/><rect class="cls-4" y="567.45" width="1920" height="508.99"/><rect class="cls-5" width="297" height="571.01"/><circle class="cls-6" cx="1551.83" cy="147" r="56.81"/><rect class="cls-7" x="1549.92" y="115.63" width="3.84" height="24.42"/><rect class="cls-7" x="1573.17" y="120.06" width="3.84" height="35.84" transform="translate(1117.52 -1375.49) rotate(68.17)"/><circle class="cls-7" cx="1551.83" cy="147" r="2.97"/><circle class="cls-8" cx="213" cy="313.25" r="16.5"/><rect class="cls-9" x="151" y="308.25" width="68" height="10" rx="5" ry="5"/><rect class="cls-10" x="297" y="540" width="1623.5" height="31.01"/><rect class="cls-10" x="255" width="42" height="571.01"/><path class="cls-11" d="M1133.86,277.86c.89,0,1.67.11,1.34.18,1.8-.2,1.84,0,2.07-.35,1.17-.19,2.41.05,1.09.2l3.35-.23-2-.06c.55-.3,3.21.09,3.85-.27l-3.64,0,.18-.1a20.3,20.3,0,0,1-3,0c.09-.05,0-.13.67-.14-4.38,0-1.17.54-4.8.67A7.16,7.16,0,0,1,1133.86,277.86Z"/><path class="cls-11" d="M1130.14,277.15l-1.52.4-2.56-.08c0,.13-1.88.25-.62.36a10.94,10.94,0,0,1,1.12-.06c-.28.29-3.39.17-2.64.45a20,20,0,0,0,3.57-.27c1.86,0,3.21.06,4.08.16.55-.05.62-.23,1.32-.27l-.47,0-.09-.43a11.42,11.42,0,0,1-1.78.07l3-.52c-1-.39-3.91-.13-5.09-.28C1129.92,277,1127.3,276.89,1130.14,277.15Z"/><path class="cls-11" d="M1132.89,277.84h0Z"/><path class="cls-11" d="M910.78,277.41a1.71,1.71,0,0,0-.9.24L917,277c-.23-.09-2.3-.05-.94-.24a8.43,8.43,0,0,0-2.73.38l.49-.22c-1.61.37-2.79,0-1.73-.19l-.14,0L907.51,278C909.19,277.9,908.76,277.6,910.78,277.41Z"/><path class="cls-11" d="M773,265.81c.92,0,1-.08.93-.12C773.63,265.72,773.31,265.76,773,265.81Z"/><path class="cls-11" d="M906.47,278.28l-1.39.39A10,10,0,0,0,906.47,278.28Z"/><path class="cls-11" d="M915.83,273.43s0,0,0,0l-.63.19h0Z"/><path class="cls-11" d="M873.49,279.05l-.48,0Z"/><path class="cls-11" d="M935.06,270.33l-3.17.49c.41-.16-1.13,0-.47-.19-.24,0-1.38.17-1.06.21l.65-.06c-1.64.48-.61.53-3.37,1a9.66,9.66,0,0,0,3.39-.41l.84-.11,2.6-.69Z"/><path class="cls-11" d="M817.26,267.88l0,0S817.27,267.88,817.26,267.88Z"/><path class="cls-11" d="M817.39,268l-.11-.08C817.31,268,817.23,268.34,817.39,268Z"/><path class="cls-11" d="M907,278a1.07,1.07,0,0,1-.5.27l1-.28Z"/><path class="cls-11" d="M909.29,277l2.67-.28,1-.27C911.91,276.65,910.72,276.8,909.29,277Z"/><path class="cls-11" d="M877.74,279.55c-5.61-.32,1.42-.31-1.15-.59-1.56-.06-2.13.11-3.1.09,4.46.15-.68.6,3.82.81-.67.31-3.28.17-4.78-.05-1.68-.48,1.52-.13,2-.44a5.7,5.7,0,0,0-2.27.14c-2.82-.29-5.88-.07-7.49-.69a14.21,14.21,0,0,0-3.11.14c-.29.34,3,.47,3.7.82-.15,0-.45-.13-.35-.18l1.75.23c-1.66-.27.27-.34,1.17-.29.65,0,1.94.14,1.75.23h-1c1.25.23,2.83,0,4.15.26.06.09-.45.09-.54.13,1.53-.12,3,0,5.24,0l-1.33.27a47.06,47.06,0,0,1,8.69.4c-.31-.07-.88-.14-.53-.19,1.67,0,2.91.27,2.13.43,1.63-.23,6.24.4,8.49,0,1.72-.31,3.44-.7,5.13-1.06s3.41-.81,5-1.27c-.37.08-.77.15-1.18.2-1-.26-1.44-.18.13-.59-1.55.28-.93.48-3.33.65.93-.22,1.13-.59-1.15-.49-5.67.55-9.48,1.36-14.84,1.62-.19-.23-4.36-.37-6.38-.56a17.26,17.26,0,0,1,3.86-.17l-3.9-.26Z"/><path class="cls-11" d="M891,279.27l-.44,0A2.29,2.29,0,0,0,891,279.27Z"/><path class="cls-11" d="M882.67,279.36s0,0,0,0h-.5Z"/><path class="cls-11" d="M905.59,277.58l.89-.24-.7.12C905.55,277.52,905.44,277.56,905.59,277.58Z"/><path class="cls-11" d="M906.76,277.91l-.16.11H907C907,278,907,277.92,906.76,277.91Z"/><path class="cls-11" d="M856.77,275.56h-.54A2,2,0,0,0,856.77,275.56Z"/><path class="cls-11" d="M871.55,278.69c1.94.13.27-.35,3-.14l-.81-.08c2,0,5.45.3,7.8.4-.27.13,1.42.26,1.13.47a21.31,21.31,0,0,0,4.06-.18c1,.13,2.53-.07,3.8.06-.53-.15,1.82-.43-1.28-.32.25,0,.1,0,.34-.06a42.33,42.33,0,0,0-4.51,0c-1-.17,1.69-.15.73-.24-2.15.06-6.68-.49-6.58,0a6.49,6.49,0,0,1-2.21-.31c-2.51.4-9-.92-9.1-.24.9.05,2.35.19,3.67.14Z"/><path class="cls-11" d="M902.34,277.86l-.38,0Z"/><path class="cls-11" d="M926.88,277.77l-.74.51c-4.55.5-6.22.52-10.22.89-.32,0,.16-.11.41-.16-2.81.31-7,.59-9.07,1-.9.08-3.29.13-2.41-.08a8.56,8.56,0,0,1-1.45.18c-.15-.15,1.15-.13,1.15-.27-.4,0-.56,0-.64.07.65-.2-.77-.49,2.37-.75,1.26.28-2.17.23-1.4.59,1-.09.9-.24,1-.3,1.32-.1,1.3,0,1.24.11.49-.18,2.18-.14,2.85-.4,2.57-.26-.1.33,1.58.17l.91-.5,2.8-.17c4-.51-.67-.68,3.9-1.32-.58.27,1.32.47,3.47.38-1.28.12-3.61.61-5.28.63,2.37.12-3.21.32-2,.59a25,25,0,0,1,4.56-.51l-.49.08c1.6-.09,2.75-.64,5-.66,1.09-.11.9,0,.72.15A6.4,6.4,0,0,1,926.88,277.77Zm-2.36.29-1.47.08A7.27,7.27,0,0,0,924.52,278.06Z"/><path class="cls-11" d="M1109.63,277.22l.44,0A3.72,3.72,0,0,0,1109.63,277.22Z"/><path class="cls-11" d="M980.13,269.84h0Z"/><path class="cls-11" d="M999.33,268.11l1.25-.11A8.67,8.67,0,0,0,999.33,268.11Z"/><path class="cls-11" d="M1099.56,276.88h0Z"/><path class="cls-11" d="M1037.58,269.09c.19,0,.41.05.7.06A2,2,0,0,0,1037.58,269.09Z"/><path class="cls-11" d="M999.1,268.13h.07l.16,0Z"/><path class="cls-11" d="M971.61,268.89l-.54.06Z"/><path class="cls-11" d="M972.88,270.05a3.88,3.88,0,0,0-.53.06Z"/><path class="cls-11" d="M943.31,270.66l-1.14.13A9.1,9.1,0,0,0,943.31,270.66Z"/><path class="cls-11" d="M969.82,269.89l-.17.06C969.81,269.93,969.88,269.9,969.82,269.89Z"/><path class="cls-11" d="M1116.88,278.54h-.07l0,0Z"/><path class="cls-11" d="M1119.66,277.93l1,0A9.86,9.86,0,0,0,1119.66,277.93Z"/><path class="cls-11" d="M1054.48,269.52c.3.07,1,.17.68.23C1055.76,269.68,1055.74,269.46,1054.48,269.52Z"/><path class="cls-11" d="M1111.24,281.16a5.27,5.27,0,0,1,.65-.14C1111.46,281.08,1111.08,281.13,1111.24,281.16Z"/><path class="cls-11" d="M1111.89,281l.62-.09Z"/><path class="cls-11" d="M1046.7,273a1.24,1.24,0,0,0-.35-.05C1046.4,273,1046.53,273,1046.7,273Z"/><path class="cls-11" d="M1121.48,278c.18-.1,4.55-.34.87-.37.14-.32,2.36-.16,3.34-.25-.71-.07.36-.2.14-.32a14.06,14.06,0,0,1-1.87.13c-.37-.14.85-.25,1.8-.21-1.17-.15,1.49-.26-.17-.37a61.43,61.43,0,0,0-8.55.71c2-.06,4.28-.17,5.94,0l-.69.27a39.85,39.85,0,0,0-4.88-.07l4.14.14c2,.21.65.27-.88.33A2.93,2.93,0,0,1,1121.48,278Z"/><path class="cls-11" d="M1118.69,280.35h.07l.17,0Z"/><path class="cls-11" d="M944,276.14l-.34.12C943.94,276.2,944,276.16,944,276.14Z"/><path class="cls-11" d="M1116.21,279Z"/><path class="cls-11" d="M952.84,275.67l0,0Z"/><path class="cls-11" d="M954.76,269.69l-.06,0C954.51,269.68,954.6,269.69,954.76,269.69Z"/><path class="cls-11" d="M952.85,275.64a0,0,0,0,1,0,0S952.86,275.65,952.85,275.64Z"/><path class="cls-11" d="M995.83,273.18a2.52,2.52,0,0,0-.36-.09C995.39,273.11,995.48,273.14,995.83,273.18Z"/><path class="cls-11" d="M987.31,272.91l-.15,0Z"/><path class="cls-11" d="M1052.44,268.25h0Z"/><path class="cls-11" d="M952.8,275.69a2.62,2.62,0,0,1-.42.12A2.39,2.39,0,0,0,952.8,275.69Z"/><path class="cls-11" d="M1008.8,271.8l-.26,0h.16Z"/><path class="cls-11" d="M1013.25,272.05a1.51,1.51,0,0,0-.31.09c1.59-.09,4.5.08,4.85-.19-.54,0-3.32-.23-2.84-.39-1.11.05-2.74-.18-3.34-.14,1.81.19.19.24-1,.33-1.11-.09.21-.23-.75-.29h-2.58l2.25.06-.69.27.23,0C1012.84,271.69,1009.35,272.17,1013.25,272.05Z"/><path class="cls-11" d="M1012.94,272.14a4.48,4.48,0,0,0-.61.06A2.11,2.11,0,0,0,1012.94,272.14Z"/><path class="cls-11" d="M1028.52,272.8l.67-.05Z"/><path class="cls-11" d="M914.82,276.37c.08.07,2.31.05,2.24-.16l-2,.11Z"/><path class="cls-11" d="M1070.49,273.84l-.67-.26-.15,0A5.53,5.53,0,0,0,1070.49,273.84Z"/><path class="cls-11" d="M1015.63,271.47a3.43,3.43,0,0,0-.68.09A3.12,3.12,0,0,0,1015.63,271.47Z"/><path class="cls-11" d="M1070.37,274.35c.25.16.63.4.65.5.59.22,1.06.27,1.68.45A15.7,15.7,0,0,1,1070.37,274.35Z"/><path class="cls-11" d="M1072.75,275.31h0Z"/><path class="cls-11" d="M913.5,276.4l-.58.09.3-.08-1.53.07-.62.09a.68.68,0,0,0,.22-.08l-.49,0c-1.18.33-4.17.75-5,.95a28.26,28.26,0,0,1-3.44.4c.83,0,1.92-.17,1.57-.27a22.65,22.65,0,0,0-5.4.14c.57,0,1.13,0,1.7-.08-1.26.23-2.53.41-3.8.61-1.35-.15,1.9-.29,2.42-.48-3,.35-5.44-.29-6.81.13-.2-.24-.51-.66-2.45-.67,1.39.31-1.17.16,0,.48-.68.12-2.16-.13-2.28,0l.18-.09a15.94,15.94,0,0,0-5.84.16c-4-.11-5.78-.4-9-.61a3.51,3.51,0,0,0-2.22-.77c-.63.17-3.55,0-3.88.28,2.29.32,1.92-.07,3.3,0,1.12.39.07.3,1.62.6-1.25-.21-5.75-.32-7.1-.73h.5c-2.19-.38-2.52-1.11-6.26-1h-1.78c.09,0,.1-.05.15-.07-2.87-.3-2-.55-5.25-.59.25,0,.1,0,.35,0a32.18,32.18,0,0,0-5-.23c-.81-.31.22-.21.76-.34a48,48,0,0,0-8.66-.1l-2-.28c1.22,0,2.73-.16,2.38-.32a19.38,19.38,0,0,1-2.52-.07,11.29,11.29,0,0,1,1.74-.36c-3.29-.48-.79.48-3.07-.12-1-.06-1.66.14-1.78.31L832,273c-.23.22-2.56.14-4.09.11-.2.09,1.22.3,1.8.23a8.74,8.74,0,0,1-2.81.14c-.18-.25-1.89-.32-3.41-.44s-2.83-.27-2.17-.49a41.89,41.89,0,0,1-5.62-.77c-1-.21-2-.44-2.94-.71l-.37-.1-.18,0-.09,0s0,0,0,0l.31-.32a2.32,2.32,0,0,0,.45-.67,11.93,11.93,0,0,0,1.7-1.72c.11-.15.19-.29.28-.43a1.09,1.09,0,0,1,.18-.22c0-.05,0-.07,0-.11a.46.46,0,0,0-.13-.27c0-.2-.46-.56-.86-.73s-.55-.29,0-.22a13.79,13.79,0,0,0-4.54-.51c-1.41,0-2.81.08-4.67,0-.31-.06,1.68,0,1.55-.15-2.43.15-4.44-.17-8.26-.05a1.81,1.81,0,0,0,.92-.16,20.16,20.16,0,0,1-2.55.24c-.55,0,.74-.06.43-.12-7.36-.23-13,.43-20.28.41,2.09,0,2.88-.32,2.9-.45h-2c-.78.16-2.32.16-3.61.28-.15-.06-.78-.12-.14-.2-4.05-.33-6.32.59-11.27.42l6-.65-1.49-.23,2.64-.29c-1.58-.18-3,.23-3.14,0,.34-.07,1.14-.05,1.17-.18a16.07,16.07,0,0,0-2.77.13c3-.5,8.87-.49,12-.61.5,0-.43.12-.52.17,1.29,0,2.07.14,3.69.05,1-.21-.77-.15-1.57-.17.11-.19.52-.18,1.41-.2.19.24,4.89.08,6,.38,4.76-.08-.76-.63,3.89-.52l1.38.27c2.7-.21,6.21-.4,9.24-.35l-.64,0c-.42.12.28.19.59.25,2.29.09,4.39-.27,5.81,0a34.93,34.93,0,0,1,5.07-.12,17.21,17.21,0,0,1,3,.38,7.27,7.27,0,0,1,1.62.56,5,5,0,0,1,.84.52,3.28,3.28,0,0,1,.73.84c.06.42-.09.11-.53-.35a4.93,4.93,0,0,0-2-1.13,12,12,0,0,0-3.76-.57,18.8,18.8,0,0,1,2.94.53,8.65,8.65,0,0,0-3.65-.24l2.92.31a7.77,7.77,0,0,1,1.37.26,3.87,3.87,0,0,1,1.76,1c-.15-.07-.14,0,0,.21a2.18,2.18,0,0,1,.35,1.46c.08.19.18.15.25.24s-.08.07-.17.25a3.63,3.63,0,0,1-.79,1c-.27.25-.56.48-.85.7a14.76,14.76,0,0,0,1.46-.84h0l0,0c-.08,0-.12,0-.12,0a7.9,7.9,0,0,1,.54-.63c-.07.19.09.08.23-.09s.27-.38.35-.37a2.85,2.85,0,0,1-.8,1c-.26.23-.53.43-.76.6a7.16,7.16,0,0,0,.86.21,1,1,0,0,0-.09.22,27.87,27.87,0,0,0,3.3.61l-.3.08.3,0,.43.06.85.1,1.7.16c1.13.09,2.22.18,3.26.34,2.13-.14,4.82-.26,6.6-.45a19.47,19.47,0,0,1,3.85.21,30.25,30.25,0,0,0,4.94.29c.16,0-1.69.08-2.53.14,1.61.15,2.93-.09,3.39.25-3.59-.39.17.26-1.46.21,1.68.14,3.47.22,4.31.19-2.73-.23,1-.35-1.76-.44a50,50,0,0,1,7.64.41c-.05.13.26.22,1.2.36l.79-.11c1.18.14-2.33,0,0,.3,2.51-.09,7.38.88,8.53.38,1.84.41-3.59-.09-.81.46-1.67.07-3.9-.4-4.48-.15,1.62.07.55.31,1.59.41h1.82l-.4-.05c3.05,0,7.79.57,11.64.83,3.28-.05,5.56-.32,9.44-.07-1.16.12,3.21.35.74.54a9.7,9.7,0,0,0,3.62,0c-1.58-.11-.55-.06-1.88-.18a18,18,0,0,1,3.82.1c-.39,0-.24,0-.33.06,1.88.17.91-.14,2.27-.17a32.58,32.58,0,0,0,4.23.21l1.79-.32c-1,.23,1.71.05,2,.22a31.45,31.45,0,0,1,4.25-.55c-.78.16,1.77.05,1.84.25,3.42-.08,5.55-1.06,8.8-1-.09.06-.72.26.23.23.73-.13,2-.22,2.82-.31h0c.39,0,.63-.09.63-.14a37.42,37.42,0,0,1,4.66-1c-.22-.22-2.47.07-3.44.24l-.82.31c-.85-.29-2.4.28-3,.21,1.55-.57,6.18-.88,8.93-1.38a54.45,54.45,0,0,0-8.63.41l1.43,0-1.68.15,1.66.11c-1.59.1-3,.29-4.4.4,1.68-.15,2.38.12,1.42.15-1.9-.07-1.93.33-3.36.44.8,0,1.84-.13,1.19.07-2.86-.05-3.6.21-6.2.11.33.4-3.09.25-3.43.61l1.15,0c-.81.12-1.61.28-2.43.38-2.29-.26,2-.4-1.47-.53-3.18.07-3.11.42-5.64.49a24.34,24.34,0,0,1,4.86-.49c-.41,0-.81,0-1.23-.08.65-.16,3.44-.19,4.81-.27-2.25.42,1.07,0,2.13.17.16-.24-1.29-.12.41-.41-1.61.1-1.84.16-3.9.16a14.05,14.05,0,0,0,4.09-.58,13.46,13.46,0,0,1,3.82-.6c-1.84.27.69.28.93.38.87-.11,2.64-.32,3.36-.44l-.7-.28c2.33-.35,3.24.28,5.91-.3.33-.23-2.4.14-1.91.06,3.69-.54,5.1-.12,8.45-.15.17-.12.11-.33,1.24-.61-.33.24.54.26-.75.52a23.26,23.26,0,0,0,3.39-.42c-2.33.07.91-.37,1.32-.53,1.2-.06-.34.23-1.07.35,1,0,2.14.18,2.66-.16.06.21-2.63.77-4.4,1l1.2-.07a10.37,10.37,0,0,1-2.16.23c1.18.06,1.09.25.84.43-.16,0,.08-.06-.07-.08-1,0-1.7.15-1.46.24-.82.36,1.35.07,2,.16l1.45-.18,4.89-1.31a25.58,25.58,0,0,1,4.73-.09l.42-.28c1.86-.1,3.63-.12,2.47.26-.08-.08-.32-.05-.73,0a1.07,1.07,0,0,1-.26.09l-.09,0,3.34-.34c-3.34.55-.12.45-.65.92l3.39-.34c-2.08,0-.06-.21.67-.31.22.23,2.74-.16,3.94-.19l-.09.05c1.12,0,3-.1,4.43-.24a23.08,23.08,0,0,1,2.5-.86c-2.38,0-1-.14-1.18-.28a4.06,4.06,0,0,0,.74-.05c.33-.09-.47-.07-.54-.15a35,35,0,0,0-6.1.82c.79.11,1.31-.22,2.18-.17a29,29,0,0,1-4.93.45l-.7-.16-2.1.23a7.5,7.5,0,0,1,2.53-.51,27.77,27.77,0,0,0-3.54.19l-.67.31c.26-.17-2.65,0-.6-.36l3.32-.41-1-.13,2.83-.22-.66.18c4.53-.44,1.38.46,5.93-.11a22.26,22.26,0,0,1,5.76-.58c-2,.17-.19.24-.94.47a14.55,14.55,0,0,0,3.82-.45c.54.14.93.27-.92.33-.21.38,2.43-.18,2.62.19,6.13-.28,4.84-1.44,12-1.24l-.26.16c4.55-.35,7.19-.24,11.42-.47l3.34.32c-.74.07-2.73.4-1.79.57a42,42,0,0,0-5.1-.34c-.17.1.54.16.85.21-1.05,0-1.59-.13-3,0,.07.08,1.59.13.45.21l-1.9-.18c-2.53.19-1.22.61-4.19.6a9.78,9.78,0,0,1,2.8-.67c-1.36,0,1.8-.19.56-.28-2,.38-2.9.17-5.49.46a4.63,4.63,0,0,1,1-.16h-3.78c.95.15-3.1.33-2.73.59,4,0,2.83-.18,7.42-.19a16.4,16.4,0,0,0-3.72.75,1,1,0,0,0-.24,0c-.69.3,0,.35,0,.82,2.07-.43,3.48-.19,5.93-.47.45-.28-1.45-.28-2.67-.17l2.16-.25-.42.13,5.51-.09a7.51,7.51,0,0,0-1.93.34c.71,0,1.42,0,2.17.09-.17-.25-.08-.42.62-.44a34,34,0,0,1,6.83.41l.42,0c-.61-.24,2.5-.51,3.59-.78-.05.26,1.83.13,2.86.25.54-.31-.19-.71-1.45-.95-2.39.31-1.34.3-2.46.71l-3.84.33.85-.25c-1.92-.08-3.75.29-3.62,0,1-.23,2.68-.14,3.68-.37l-1.27-.09c2.23-.35,1.16.28,3.87,0-1-.25.24,0,1.4-.22-.94-.18-4.78.16-4-.31,1.41-.23,4.77.45,6.63,0l-.09.05a21.19,21.19,0,0,0,4.76-.4,37.35,37.35,0,0,0,4.07-.09l0,.13,1.8-.05a20.42,20.42,0,0,1-3.65,0l.19.25a11.91,11.91,0,0,0-4.34.39c2-.23,5.67,0,6.14-.44l1.24.25.6-.09c.92.19,0,.48-1.82.53-.31-.06-.47-.1-.37-.15a17.59,17.59,0,0,1-3.61.26l1.07-.14a27.06,27.06,0,0,0-5.63.36c3.61.06,7.17.07,10.56.07a16.63,16.63,0,0,0,2.72-1.36,57.53,57.53,0,0,1,7.37.12l-.18.1a22.85,22.85,0,0,0,2.6,0c1,.16-.71.25,0,.34l3.28-.09c-.21.23-3,.16-4.27.15.25,0,.75,0,.59-.08-1.52-.13-4.36.23-5-.13-.74.05,1.51-.22-1-.28a4,4,0,0,0-2.4.26c0,.13,2.63.2,1.7.35a25.4,25.4,0,0,1,3.5,0,23.38,23.38,0,0,1-3.74,0c-2.57.22-2.2.84-1,.89-.29-.2,4.66-.19,1.32-.48,1.51-.23,4.26-.19,6.24-.3l-.09,0h2.45c-.35.06-1.09.1-1.12.23l3.4-.26c-1,.09-.66.14,0,.18s1.57.06,2,.12c.35-.19,1.62-.34.4-.46s-.79.1-2,.09l1.77-.29.15,0,1.06-.26c2.41,0-1.06.61,2,.34l-.41-.34c3.58,0,8.3.23,10.91,0-.71.22-1,.56,0,.72-1.13,0-3.38.08-5,.16a12.68,12.68,0,0,1,3.73-.48c-.88-.54-4.36.51-4.59-.07-4.4-.1-3.27.66-7,.33,0,.27-1,.13-1.24.35,1.08.46,4.94,0,7.38.06a5.07,5.07,0,0,0-.81.13,22.81,22.81,0,0,0,3.68-.19l-.16,0c2.12-.33,1.33.15,2.6.22.48-.06,2.25-.05,2-.23l2.31.17-.13-.3a16.5,16.5,0,0,0,2.76-.09l.05-.26h-3.24c1.63-.14.44-.27,2.24-.38-2,.35,1.43.1,1.64.34l1.32-.19-.33.08a21.85,21.85,0,0,0,2.46-.11,16.29,16.29,0,0,0-4.22-.05c1.32-.19,4-.4,4.63-.42a27.07,27.07,0,0,1,3.74.11c-2.55.09.88.78-4.19.62a1.6,1.6,0,0,1,.66,0c-.68-.33-3,.07-4.11.23.29.19-.85.27,1.08.32-.64-.11,1.62-.47,3.47-.33l-.32.41,2.69,0-.25,0c1,.27,2.87,0,4.73.2.68-.05,2.31,0,3.5.07s1.95.05.86-.26a15.81,15.81,0,0,0,2.44.31l1.27.05c.45,0,.94.08,1.44.16-.4-.11-.82-.2-1.22-.3l-1.15-.23c1.37,0,2,.11,2.43.14s.87,0,2.1.11c.2.16.65.4.16.38,1.89.53,4,1.34,5.71,2a18.73,18.73,0,0,0,4.26,1.18c1,.31,1.61.56,2.31.81a15.09,15.09,0,0,0,3.31.64c.71,0-.47-.44,1.72,0,.14.05-2.2,0,.28.31,1.8-.06,4.12.68,6.48.61,1.22.22,3.36.34,2.89.56-2-.2-4.71-.39-5.15-.33.29-.12-1.35-.29.09-.26-2.89-.49-1.93,0-4.5-.5-.2.08,1.28.45,1.86.44,0,.34-5.18-.52-3,.2a18.2,18.2,0,0,0,3.23.13,8.84,8.84,0,0,1,2.91.26c-1,.1-2.52-.2-3.82,0,.66.14,1.32.26,2,.37l1.5-.1-.09,0c3.52.65,3.34-.05,6.55,0-1.83-.35.49-.57-.89-.8,2.14.08,3.7.22,3.69.57-4,0-.26.35-4,.47.6.16-.94.45,1.28.62,2.52-.1-.72-.33,1.78-.3.14,0,.29.08.2.13,1.16-.11,1.34.13,2.74,0l-.33,0c1.7.28,1.88-.14,3.35.12-.58-.27,1-.18,1.92-.31a43.42,43.42,0,0,0-5.22-.63c-.37.19-.16.31-1.38.35l1.92.06c-.42,0-.73.06-1.11.08-.62-.06-1.23-.12-1.83-.2,2.33,0,1.28-.3,2.28-.46,2.13.18,1.76,0,3.1.14-.15.29,4.09.64,6.56.86l-1.15,0c-1.8.16,1.23.27,1.29.36l1.31-.13c-.24,0-.58.08,0,.13,1.78,0,1.68-.33,3.45-.37.13.16-1.37.4-.27.49a9.34,9.34,0,0,0,4,.39,8.07,8.07,0,0,1,1.48-.12l-.26,0,1.56.18c-1.33.28-2.7-.13-4,.15l-.11.26a21.55,21.55,0,0,0-3.12.24c1.59.06,1.93,0,3.71-.06.25.16-1,.29-1.19.31l.27-.15c-2.12-.23-3.18.23-5.83.16-.4,0-.15,0-.06-.09-2.15.23-4.24-.16-6.34.11l.69-.12c-1.42.08-4.21.24-7,.35l0,.11c.3.08-.74,0-1.3-.06h0c-1.41.05-2.76.09-3.86.08a8.15,8.15,0,0,0,1.3.23c.45-.09,3,.16,2.67-.14,1.16.25,3.08.09,3.94.23-1.56-.24,1.12-.21,1.4-.35.52.2,2.34.06,2.12.29a5.69,5.69,0,0,0-1.44-.06c-1.67.17,3,.28.94.43,2.63-.08,6.09.06,8.79-.14l-1.51-.11c1.2,0,4,0,4.25.14-.89,0-1.93,0-3.07,0-.06.26,2.74,0,2.87.19l3.31-.43-1.45,0c.91-.16,3.95,0,6.19.06-1.28.36-3.39,0-5.75.16-1.72.14,1.06.35-.57.44a8,8,0,0,0,2,0l.64.07c-1.45.33-4.71.25-6.89.51a1.33,1.33,0,0,0,.42-.11,44.11,44.11,0,0,0-5-.1,6.47,6.47,0,0,0,1.7,0c.06.08-1.48.09-2.07.17,1.52.12.28.2,1.24.27a23.55,23.55,0,0,1-3,0c-.62-.14.52-.16.4-.32-1.25.06-1.8-.35-3.62-.21,2.41.14-.66.34-1.5.4l.4,0a3.49,3.49,0,0,1-2-.06c1,0,2,.06,1.68-.15-.65,0-1.31,0-2,0l.68-.11c-1.08,0-2.17-.07-3.26-.13a12.91,12.91,0,0,0-1.89.56,12.32,12.32,0,0,0-2.63-.16l.36,0a28.94,28.94,0,0,0-5-.32c-1-.22,7.41-.24.13-.82-2.76-.28-1.8.29-3.41.26,0,0,.09,0-.06-.09a15.33,15.33,0,0,0-2.38-.09,10.06,10.06,0,0,0,2.13.29c-.41.16-2.54-.35-3.51-.37,1.29-.1-2.32-.5-1.34-.5-2.45-.58-5.21-1.17-6.52-1.38-1.4-.89-2.77-.95-5-1.94.35.14,1,.31,1.51.54,1.45.26-2.36-1-.2-.46-.46-.13-.1.11.37.24.81.27,1.64.46,1.49.28l-1.83-.92.7.19c-.93-.46-1.83-.89-2.74-1.3-.1,0,.14.17.26.24a20.55,20.55,0,0,0-5.17-1.23c-1.86-.22-3.69-.35-5.29-.45-.33.33-2.29.3-4.52.31a42.22,42.22,0,0,0-6,.29c.69-.21,1.07-.57.63-.71a19,19,0,0,1,3.11-.28c.22.1,1.85.25.8.36,3.65,0-.49-.31.59-.56a84.12,84.12,0,0,0-9,.79l-.07-.08-1.95.23c1.6,0,1.54.38-.52.32l.25,0c-1.18-.12-3.62.17-5.48.21l-1.24.27a3.85,3.85,0,0,1-2.58-.63c-2.91,0-4.61.41-6.72.6-1-.2-5.31-.35-3-.52-2.61.11-2.11,1.09-6.55.47l1.16-.16c-4.25-.06-10.33.27-12.28.08,1.57-.65-5.33-.65-6.09-1.27.21.15-1.39.21-1.63.29a3.79,3.79,0,0,0-1.55,0c1.66.11-1.16.67,2,.38a26.64,26.64,0,0,1-7.18.85l0-.26,2.78,0c-.28-.19,1.15-.2,1.74-.29-5.19-.08.66-.64-4.64-.51-.51.18-.18.1-1.55.2.65,0,.76-.21-.29-.19l-1,.23c-1.87-.4,3-.35,1.46-.62,2.05-.25,5.6-.42,4.93-.75-3.36-.07-3,.68-6.51.6l-.37-.13a9.11,9.11,0,0,0-2.09.52c-.06-.08-.38-.13-1.17-.14-2.07.4-3.44.51-5.34.94,5.09-.44,4.37.12,9.62-.26-.82.13-4.52.3-4.73.67l0-.26a45.11,45.11,0,0,1-5.55.35l1.3-.19c-2.83.28-4.75-.23-7,.29a18.4,18.4,0,0,0,1.92-.1c-1.46.17-3.29.23-4.89.25l-3.26.57c0-.13-2.07,0-1.08-.3a24.1,24.1,0,0,0-4.84.49c-2.45-.16,2.1-.23,2.31-.6a61.6,61.6,0,0,0-8.77.67c.69,0,1,.05,1,.11a16.78,16.78,0,0,0-2.21.06l-.5.2c-1.26,0-1.1-.16,0-.35a23.35,23.35,0,0,1-3.85.27c2-.32,4.64-.29,5.7-.48-4.26.41-4.34-.28-9.74.25-.08-.08.83-.29-.22-.23-2.41.2-.6.39-1.33.62a13.37,13.37,0,0,1,3.82,0l-.49.17c-.08-.07-1.24,0-1.6-.05l-.27.3c.11-.32-1.78-.45-3.22-.24,1.49.13,1.09.15,1.52.48-2,.46-2.34-.19-4.6.33.16-.12,2.16-.33.42-.29a10.16,10.16,0,0,0-2.18.47c1.06-.34.76-.51,1.9-.91,2.55-.2,1-.07,3.52-.34l-2.14-.08c2.17-.19,1.55-.4,1.72-.52-3.73,0-2.75.59-5.14.69-1.13.26,2.24-.13.46.19-2.23.13-.49.21-3,.51l.4-.15a10.23,10.23,0,0,0-2.39.25c-1,.16,1.2.81-2.79,1.16.19-.09.26-.14.25-.17l3.64-2.5c-4.06.32-8.74.67-13.46.94-1.16-.33,3.31-.65,3-.82l2.15-.1c-.09.19-4.48.45-2.51.6,3.77-.46,5.52-.4,9.07-1.07-1.17-.34-4.73.47-7.11.34a22.7,22.7,0,0,0,2.61-.3l-7.07.43-.55.16c1.69-.11,2.86-.17,3-.17-2.24.16-4.09.56-4.2.89l.4,0-.8.17Zm-135.86-11a1.08,1.08,0,0,0,.32-.11C777.88,265.34,778,265.37,777.64,265.4Zm179.54,6.85-8.88.3c5.23.34,8.9.62.26,1.07l-.56.08c1.13,0,3.08-.09,4.91-.23l3.64-.8,1.77-.41a3.46,3.46,0,0,0,.73-.21,13.27,13.27,0,0,0-2.25.08Zm2.2.94c1.7,0,1.31-.14,1.56-.27l-1.77.13C959.39,273.07,959.51,273.11,959.38,273.19Zm1.45-.39h0Zm-32.92,1.85.18,0-1.22.07A8.2,8.2,0,0,0,927.91,274.65Zm3.47,0,.37-.25-1.14.06A1.29,1.29,0,0,0,931.38,274.68Zm11.08,0c.68-.31,3-.46,3.12-.78.14-.09-.35-.09-.9-.09l-2,.09c0,.05-.15.1-.38.15.69,0,1.15.05.89.26-1.8-.31-1.55.39-3.46.4C939.17,275,941.89,274.8,942.46,274.68Zm145.59,3.52a3.27,3.27,0,0,0,.48.24l-1.37,0c-1.2-.15-2.24-.44-3.27-.64a16.06,16.06,0,0,0-3.14-.37,7,7,0,0,1-1.92-.8c.48.1.93.18,1.3.27,3,.24,3.79.43,4.39.7A7.42,7.42,0,0,0,1088.05,278.2Zm-26.35-6.69a1,1,0,0,0,.35,0c-5.46-.1-9.84.12-12.73.08a39.29,39.29,0,0,0,4.36.55l-1.09.23-.67-.21-1.88.22c.52.17,2,.15,3,.3.09,0,3.32-.25,4.24-.33-.85-.1-1.71-.23-2.57-.31.7.07,4.13.23,5.49.31a5.25,5.25,0,0,0-2.6-.27c-.26-.23,2.45,0,.76-.35a24.1,24.1,0,0,1,6.68,1l.12.37c1.49.53,1.21-.11,3,.67-2.26-.68.21.44-1.56-.1.5.3-.14.3,1.61.88,1.67.12,1.71.92,3.29,1.08.88.47-1.14-.13.69.6,2.28.55,2.24.32,2.5.08-2-.73-2.46-.39-4-1.05,1.16.23,2.32.47,3.5.65a9.11,9.11,0,0,0-1.39-.54,9.29,9.29,0,0,0,1.78.37l.82.08a17,17,0,0,1-3.65-1.4l.32-.05a7,7,0,0,0-2.2-.73,37.59,37.59,0,0,1-3.7-1.18l.7.06c-1-.29-1.66-.41-2.33-.54S1063.06,271.67,1061.7,271.51ZM990.24,271c1.34.54,2.8,1,9,.86l-.49,0c3.11.33,6.06-.49,9.83-.06a19.16,19.16,0,0,0-3.76.65l2-.16c-.55.3,1.41.16,2.85.19l-1.28.35a17.56,17.56,0,0,0-3-.08,22,22,0,0,0-4.84-.35c.2.24,4.15.15,2.39.54,1.55-.16,1.75.08,3.37,0-1.56.16-.39.33-1.55.51l2.67-.07c.07.07-3.88.16-1.7.47,1.06-.13,3.91.07,4-.2l.07.08c2,.08.88-.37,3.33-.18,0-.13-.43-.23-1.31-.22a17.43,17.43,0,0,1-2.39.26c-.68-.22,1.84,0,.79-.32-.53-.18-4,.11-2.92-.27l2,.08c.06-.27,1.5-.24,1.47-.45,1.22-.09,2.36.23,3.61,0,.53-.16-.37-.49,1.69-.32a47.32,47.32,0,0,0,8.16.44l1.58-.16c-.14-.15-3,0-2-.2.81,0,1.63,0,2.44-.06l-.19.1a18,18,0,0,0,2.38-.17c-.76.21-2.52.15-2.17.42a16.25,16.25,0,0,0,2.39.07c-.24,0-.43.06-.4.09a4.73,4.73,0,0,0,2.81-.46c2.31-.42-2.36-.26-2.07-.56q3.39-.15,6.77-.36c-.57.11-1.15.22-.92.33a9.53,9.53,0,0,0,2.38.11c-.19-.37,2.93-.35,4.56-.62.78.12.94.15-.74.21.2.24,2.46.07,3.26.07.47-.07,1.26-.13,1.76-.19-.68-.11-.39-.27,1.07-.4l.08,0a54.21,54.21,0,0,0-7.63.13l.41-.13c-2.78-.11-6,.67-7.3.24.11-.18-.56,0-.53-.28l-2,.26.42-.13-3.46.12.09-.05c-1.63.25-2.93.45-4,.58,0,.12.1.16-.45.23a7.8,7.8,0,0,1-1.35,0h0c-.85,0-1.42-.23-2.46-.32l3.23.05c.27-.2,0-.4-1.57-.58.64,0,.92-.13.12-.18-.09.05-2.12.08-1.36.25-3.07,0-8-.6-12.71-.27,3.35-.19-2.69-.28,1-.33-2.6-.34-2.24.3-4.89.24-.23-.11,1.44,0,2-.2-4.41-.14-7.43.51-11.69.47l-.19-.24Zm-8.41.49-2.49.16h.25l-2.45.27c1.51,0,2.52.28.41.47.17-.1-.45-.21.28-.29-1.42-.11-4.54-.13-3.71.21,2.71-.45.66.44,2.79.11a33.72,33.72,0,0,1-3.36.36c1.12-.25-.28-.45-2-.48-.74.08-2.74.11-4,.26.45.2-.61.38,1.39.35a18.89,18.89,0,0,1-3.13.12c.5-.06,1.38-.12,1.31-.2a21,21,0,0,0-2.32-.19l-1.27.09a1.73,1.73,0,0,1,.32.07l-1.39.26c1.86-.19.87.06.85.2,0-.27-1.2,0-1.84.05l1.41.22c-.66.17-2.39-.09-2,.17,3,0,4.08-.13,6.74-.32l-1.09-.17c3-.28,1.87.29,5.24.15,1.4-.25,5.07-.2,5.13-.6-.42.14,2.11.29,3.26.08,1.26-.41,5.13-.55,3.95-.68a15.86,15.86,0,0,1-3.29,0l2-.13-1.34-.16C982.23,272,982.16,271.76,981.83,271.48Zm-45.6-.05h0Z"/><path class="cls-11" d="M1118.07,278.58c.58-.09,2-.08,1.74-.27C1119.84,278.52,1117.23,278.34,1118.07,278.58Z"/><path class="cls-11" d="M1119.79,278.79c.1-.05,0-.14.68-.15l-1.78.06Z"/><path class="cls-11" d="M1121.61,280.23a14.07,14.07,0,0,1,2.94-.25c.55.52-2.36.16-3,.65,2.65,0,3.46-.42,5.63-.49C1126.09,279.94,1121.69,279.84,1121.61,280.23Z"/><polygon class="cls-11" points="1120.43 280.9 1121.91 280.77 1121.76 280.74 1120.29 280.87 1120.43 280.9"/><path class="cls-11" d="M1089,275.27c-.1-.18-1-.11-1.49-.12A7.79,7.79,0,0,0,1089,275.27Z"/><path class="cls-11" d="M811.12,262.24c-4.16-.32-8-.1-11.64-.05l4.94-.09C806.26,262.08,808.31,262,811.12,262.24Z"/><path class="cls-11" d="M1052.65,269.53a65.29,65.29,0,0,1,7.68-.09c-4.17-.69-5.56.13-9-.25Z"/><path class="cls-11" d="M1053.78,268.26c.5.31-2.41.31-2,.55,2.09-.06,1-.28,2.89-.2Z"/><path class="cls-11" d="M1066.25,274.87c-.29,0-.57-.05-.85-.08l.65.13Z"/><polygon class="cls-11" points="1039.79 268.71 1040.12 268.63 1038.6 268.59 1039.79 268.71"/><path class="cls-11" d="M1040.45,268.55l-.33.08Z"/><path class="cls-11" d="M1065,275.2c.37.13.74.25,1.11.4l.64,0C1066.14,275.48,1065.56,275.33,1065,275.2Z"/><path class="cls-11" d="M1054.11,272.34l1.21-.06C1055.08,272.3,1053.44,272.12,1054.11,272.34Z"/><polygon class="cls-11" points="1030.61 268.91 1029.15 269.06 1029.3 269.09 1030.75 268.94 1030.61 268.91"/><path class="cls-11" d="M1044.72,273.2c.84.21-2.4.14-.68.29C1045.56,273.41,1044.94,273.31,1044.72,273.2Z"/><path class="cls-11" d="M1026.84,272.16c-.2,0-.41,0-.62,0Z"/><path class="cls-11" d="M1026.84,272.16a16.51,16.51,0,0,0,1.73,0A6.64,6.64,0,0,0,1026.84,272.16Z"/><path class="cls-11" d="M1019.45,272.12l.58,0c-.6.1-.31.09.22,0s.59-.06.66-.11l.39-.09-.51.08C1019.83,272,1019.24,272,1019.45,272.12Z"/><path class="cls-11" d="M992,268c2.18.06,2.74.09,2.62.27,2.06,0,1.74-.27,3-.35C995.26,268,994.78,267.93,992,268Z"/><path class="cls-11" d="M997.59,268l.82,0C998.07,267.93,997.82,267.93,997.59,268Z"/><polygon class="cls-11" points="1028.13 274.19 1026.77 274.5 1027.27 274.45 1028.13 274.19"/><path class="cls-11" d="M988.77,268a10,10,0,0,1,1.37,0C990.25,267.84,988.37,268,988.77,268Z"/><path class="cls-11" d="M997.19,271.45a18.53,18.53,0,0,0,2.16.08C998.54,271.51,997.88,271.18,997.19,271.45Z"/><path class="cls-11" d="M982.58,268.88c.4,0,1,.11.76.27C983.92,269,984.7,268.7,982.58,268.88Z"/><polygon class="cls-11" points="993.25 271.46 993.55 271.52 995.03 271.39 993.25 271.46"/><path class="cls-11" d="M998.53,274.11c1.65-.23-2.62-.51.22-.71-3.67-.21.28.31-2.42.29C997.91,273.75,998.69,274,998.53,274.11Z"/><path class="cls-11" d="M996.33,273.69c-.23,0-.48,0-.76,0Z"/><path class="cls-11" d="M973,272.86l.55-.09A4.85,4.85,0,0,0,973,272.86Z"/><path class="cls-11" d="M987.68,274l2.47-.38c-1.65.25-5.81.32-5.54.65a19.26,19.26,0,0,0,3.63-.24Z"/><path class="cls-11" d="M958.84,269.12l1.07-.19-1.34,0C959,269,958.27,269.27,958.84,269.12Z"/><path class="cls-11" d="M958.3,269h0Z"/><path class="cls-11" d="M977.69,272.54a18.87,18.87,0,0,0,2.17-.11C979.55,272.38,977.55,272.38,977.69,272.54Z"/><polygon class="cls-11" points="951.3 269.98 953.08 269.83 951.14 269.95 951.3 269.98"/><polygon class="cls-11" points="942.98 269.89 942.67 269.85 941.21 270.05 941.53 270.09 942.98 269.89"/><path class="cls-11" d="M954.3,275.69c1.2,0,2.12-.37,1.8-.42l-2.32.14c.61.22.64-.05,2-.05Z"/><path class="cls-11" d="M882.35,273.64a10,10,0,0,1,3.14.23c-.34.05-1.7.07-.86.2l2-.34c2.62.36-2,.48-3.34.57,2.68.15,3.5-.05,6.34,0a9.91,9.91,0,0,1-1.8-.27c-.08-.3,2.56-.1,4.44-.11-1.2-.13-.5-.24.37-.36a1.83,1.83,0,0,0,.33,0l.3-.05H893s0-.08-.19-.13a31.5,31.5,0,0,1-3.79-.21c.49.24-.37.26-1.52.22s-2.6-.17-3.24-.12l-1.49,0-.56,0c-.11-.06.06-.12.91-.17-.71.06-3.07-.11-2.87.06-1.79-.09-3.6-.23-5.4-.35a3.71,3.71,0,0,1-.45-.11c-.19,0-.23,0-.2.06-7.87-.58-15.77-1.36-23.75-2.09,1.18.14,2.18.35,3.39.51-1.86.15,2,.25,1.4.5a13.9,13.9,0,0,1-2.73-.26c-.28.13.72.36.57.53,3,.47,3.55-.21,6.46.18-.14.17-1.07.24.86.4h-.5c3.1.09,2.34.64,4.34.32l-.09.25c1.42-.06,4.13.17,5.65.26l-.09,0c4.3,0,2.4.15,7.2.36l-2.23.16a27.52,27.52,0,0,0,3.22,0c-.09.05.17.26-1,.23,2,0,3.9-.07,5.84-.12C884.22,273.85,882.56,273.76,882.35,273.64Z"/><path class="cls-11" d="M889.63,274.29c.31,0,.65,0,1.06,0Z"/><path class="cls-11" d="M848.81,270.43l1.68.15C850,270.51,849.43,270.46,848.81,270.43Z"/><path class="cls-11" d="M897.82,273.67c-1-.1.72-.21.88-.32-1.16,0-2.32.09-3.5.11,0,.1-.33.21-.26.3C895.91,273.77,896.86,273.7,897.82,273.67Z"/><path class="cls-11" d="M894.18,273.27a4,4,0,0,1-.91.19h1.93C895.19,273.38,895,273.31,894.18,273.27Z"/><polygon class="cls-11" points="894.63 278.69 893.97 278.7 892.98 278.78 894.63 278.69"/><path class="cls-11" d="M884.42,278.05a13.17,13.17,0,0,0,2.74.1C885.46,278.09,886.2,278.06,884.42,278.05Z"/><polygon class="cls-11" points="886.44 279.78 884.78 279.8 884.93 279.84 886.44 279.78"/><path class="cls-11" d="M836.15,270.49l-.82,0Z"/><path class="cls-11" d="M850.24,271.35c-3.84-.65,2.57,0,1.41-.5l-2.13-.07.19-.09-2.58-.19c.5.22.9.26.76.43-3.44-.37-1-.31-3.56-.75l-3.89-.28.32,0a1.88,1.88,0,0,0-.59,0c-2.17-.14-4.43-.27-6.63-.34l-6.43-.22c-2.3,0,1.24.4-.47.58,2.64.14,6.72.47,7,.13-.1,0-.29.14.27.21l1.63-.23-1.53-.17a36.63,36.63,0,0,1,7.79.45c-3-.11-1.5.34-5.63-.12.18.1.93.31,0,.31C841,270.67,845.26,271.21,850.24,271.35Z"/><path class="cls-11" d="M811.92,262.61l0,0C811.86,262.59,811.83,262.6,811.92,262.61Z"/><path class="cls-11" d="M813.79,263a12.72,12.72,0,0,1,1.61.23c.28.06.61.16.92.25a8.51,8.51,0,0,1,1.06.46,9.59,9.59,0,0,0-2.81-1.12,19.31,19.31,0,0,0-2.26-.4c-.12.06-.23.14-.35.21a7.76,7.76,0,0,1,2.56.36Z"/><path class="cls-11" d="M819.67,268.13s0-.07,0-.1,0,.05,0,0c0-.19,0-.35,0-.5a2.16,2.16,0,0,0-.32-1.12c-.09-.1-.1.05-.1.39a4.87,4.87,0,0,1,0,.63l-.07.36,0,.19,0,0v0a.7.7,0,0,0,0-.13l0-.32a2,2,0,0,0,0-.6,3.36,3.36,0,0,0-.23-.89,7.32,7.32,0,0,0-.41-.86,2.71,2.71,0,0,0-1.53-1.2s.19.21.54.5l.28.23.33.35q.16.18.33.39c.1.16.2.33.29.5a3.3,3.3,0,0,1,.31,2s0,.11,0,.12C819.2,268.12,819.43,268.13,819.67,268.13Z"/><polygon class="cls-11" points="822.95 269.35 822.44 269.42 823.66 269.57 822.95 269.35"/><path class="cls-11" d="M822.44,269.42c-.4,0-.79-.1-1.19-.16a.7.7,0,0,0,.32.28Z"/><path class="cls-11" d="M819.92,269l-.39-.12Z"/><path class="cls-11" d="M820.26,269.13v0l-.34-.1Z"/><path class="cls-11" d="M821.25,269.26a.78.78,0,0,0-.44-.33c-.18-.06-.12-.08-.22-.11a.62.62,0,0,0-.25,0,1.09,1.09,0,0,0-.08.31A7,7,0,0,0,821.25,269.26Z"/><polygon class="cls-11" points="874.49 278.81 873 278.81 873.15 278.86 874.64 278.86 874.49 278.81"/><path class="cls-11" d="M866,277.93l-.9,0A4.62,4.62,0,0,0,866,277.93Z"/><path class="cls-11" d="M859.52,278.76c-1.69-.37,2.42-.05-.76-.44-.26-.22,1.27-.33,2.76-.09-.14.17-1.48,0-.58.25,1-.12,1.39.06,1.08-.25a30,30,0,0,0,3.09-.26c-2.06-.07-6.28-.74-8.9-.64-1.46.2-.67.73-.74,1.2C855.66,278.66,859.34,279.06,859.52,278.76Z"/><path class="cls-11" d="M862.18,279.48a11.27,11.27,0,0,0,1.54.11C863.61,279.41,862.82,279.54,862.18,279.48Z"/><path class="cls-11" d="M844.36,274.23c-.16,0-1.61,0-1.31.16l2.19.1A2.13,2.13,0,0,1,844.36,274.23Z"/><path class="cls-11" d="M846.2,274.54l-1-.05C845.48,274.52,845.78,274.53,846.2,274.54Z"/><path class="cls-11" d="M844.26,274.18l.1.05S844.39,274.2,844.26,274.18Z"/><path class="cls-11" d="M819.15,268.57c.21-.06.23-.11.24-.17h0l0,0A1,1,0,0,0,819.15,268.57Z"/><path class="cls-11" d="M784.49,262.35l-.87-.11A3.62,3.62,0,0,0,784.49,262.35Z"/><path class="cls-11" d="M771.16,265.92a.39.39,0,0,1-.18.07A.39.39,0,0,0,771.16,265.92Z"/><path class="cls-11" d="M771,266c-.59.11-2.41-.06-3.07.1l.08,0-1.22.1A35.12,35.12,0,0,0,771,266Z"/><rect class="cls-12" x="521" y="0.57" width="868.46" height="386.7"/><rect class="cls-13" x="521.5" y="387.27" width="868.46" height="13.73"/><rect class="cls-8" x="521.5" y="387.27" width="868.46" height="10"/><rect class="cls-14" x="540" y="-2.43" width="838.46" height="371.7"/><path class="cls-15" d="M641.57,386.87c-.14.14-.26.06-.47.15a8.54,8.54,0,0,1-2.68.21H550c0-.94,0-1.89,0-2.83,0-.7.15-1.33.18-2a6.94,6.94,0,0,1,.16-2,2.55,2.55,0,0,0,.25-1.77,16.3,16.3,0,0,1-.66-7,8.52,8.52,0,0,0,0-2.52,5.28,5.28,0,0,1,0-1.73c.12-.46.49-.68.65-1.09.27-.67-.18-1.07-.37-1.66a4.79,4.79,0,0,1-.17-1.65v-7.8c0-.77-.26-1.89.1-2.56a10.06,10.06,0,0,1,.8-.95c.28-.35.53-.81.84-1.14s.25-.31.86-.41a7,7,0,0,1,2.22-.27,15.69,15.69,0,0,0,3.14-.1,16.38,16.38,0,0,1,2.48.46c2.7.3,5.42-.37,8,.14a20.63,20.63,0,0,0,4.65.11c1.11,0,2.17-.52,3.3-.61s2.27-.06,3.4-.06h7.47c1.73,0,3.48.08,5.21,0a7.26,7.26,0,0,1,1.92,0,14.18,14.18,0,0,0,2.12.5,33.46,33.46,0,0,0,3.83-.5c1.5-.09,3,0,4.54,0a45.86,45.86,0,0,1,9.88.58c1.64.36,3.4.17,5.06.42a23,23,0,0,0,6.43.16c2.3-.32,4.57-.84,6.89-1.06,1.94-.18,4.51-.53,6.43-.1,2.52.57,1.73,1.21,1.55,4.24a18,18,0,0,1-.37,3.66c-1.26,4.75-.12,9.85.14,14.73.14,2.7-.15,5.53.5,8C641.93,382.38,642.82,385.57,641.57,386.87Z"/><rect class="cls-16" x="985.67" y="378.09" width="70.66" height="8"/><rect class="cls-11" x="1054.16" y="378.09" width="20" height="8"/><rect x="666.94" y="378.09" width="70.66" height="8" transform="translate(1404.54 764.17) rotate(180)"/><rect class="cls-11" x="649.11" y="378.09" width="20" height="8" transform="translate(1318.21 764.17) rotate(180)"/><circle class="cls-17" cx="374.67" cy="578.74" r="8.75"/><rect class="cls-17" x="419.95" y="566.13" width="15.53" height="16.17" rx="7.77" ry="7.77"/><rect class="cls-17" x="330.99" y="566.06" width="10.94" height="16.24" rx="5.47" ry="5.47"/><rect class="cls-18" x="377.21" y="482.38" width="12.35" height="73.09"/><rect class="cls-19" x="322.89" y="476.11" width="121" height="21.18" rx="10.59" ry="10.59"/><rect class="cls-20" x="318.53" y="398.92" width="7.02" height="93.77" rx="3.51" ry="3.51"/><rect class="cls-20" x="329.23" y="555.47" width="106.25" height="11.3"/><path class="cls-8" d="M377.85,573.36h-5.79a3.25,3.25,0,0,1-3.25-3.24l8.43-11.36a3.25,3.25,0,0,1,3.24-3.25h5.8a3.25,3.25,0,0,1,3.24,3.25l-8.43,11.36A3.25,3.25,0,0,1,377.85,573.36Z"/><rect class="cls-19" x="290.22" y="400.04" width="85.41" height="17.54" rx="8.77" ry="8.77" transform="translate(741.73 75.88) rotate(90)"/><rect class="cls-20" x="1865.51" y="634.8" width="21.92" height="247.67"/><rect class="cls-21" x="1865.51" y="634.8" width="21.92" height="18.98"/><rect class="cls-22" x="1840.9" y="603.54" width="587.93" height="31.26"/><rect class="cls-23" x="1840.9" y="631.8" width="587.93" height="3"/><rect class="cls-20" x="980.07" y="554.3" width="16.56" height="215.08"/><rect class="cls-20" x="487.61" y="554.3" width="16.56" height="215.08"/><rect class="cls-21" x="980.07" y="553.57" width="16.56" height="13.88"/><rect class="cls-21" x="487.61" y="553.57" width="16.56" height="13.88"/><rect class="cls-22" x="469.01" y="531.44" width="546.13" height="22.86"/><rect class="cls-23" x="469.01" y="552.21" width="546.13" height="2.08"/><rect class="cls-10" x="1705.5" y="-84.49" width="55.13" height="482"/><rect class="cls-10" x="1918.94" y="128.94" width="55.13" height="482" transform="translate(2316.45 -1576.56) rotate(90)"/><rect class="cls-24" x="1744.92" y="-105.67" width="387.49" height="467.82"/><path class="cls-25" d="M1905.33,326.58V283.92H1925V263.58h-19.67V220.92H1925v-29h-3V151.25h-45.33L1796.08,203H1834V359.92h91V326.58Zm-24.66,0h-29.34V283.92h29.34Zm0-63h-29.34V220.92h29.34Z"/><g id="privat_snak_logo" data-name="privat snak logo"><path class="cls-26" d="M893.72,97.77c-.41-5.46-4.67-7.64-9.3-6.86-6.84,1.16-2.1,7.12-3.13,10.78-.75,2.64-.45,5.45,3.88,4.85C890.2,105.83,893.72,103.89,893.72,97.77Z"/><path class="cls-26" d="M1021.65,99.46l-6.15,16.79c14,1,14,1,9.39-11.19C1024.22,103.3,1024.21,101.08,1021.65,99.46Z"/><path class="cls-27" d="M927.48,80.09c-3.09.15-7.45-2-7.33,4.49.29,16.48.26,33,0,49.45-.09,6.24,4.22,4,7,4s7.21,2.3,7-4c-.29-8.12-.07-16.26-.07-24.38,0-8.36-.3-16.73.11-25.06C934.41,78.74,930.61,79.94,927.48,80.09Z"/><path class="cls-27" d="M907,93.91c-1.57-8.1-8.06-13.36-17.64-13.82-5.84-.28-11.72.15-17.57-.14-3.73-.18-4.51,1.37-4.48,4.72.13,16.45.24,32.91-.05,49.35-.09,5.57,3.55,4.35,6.24,4s7.75,2.93,7.72-3.9c0-5.38-.83-10.88.75-16.78,8.35,9.81,11.12,26.67,30,19.79l-16.7-22.43C905.66,109.69,908.9,103.71,907,93.91Z"/><path class="cls-27" d="M841.2,80.34c-3.32-.39-6.74-.06-10.11-.06V80c-2.25,0-4.56.32-6.74-.07-6.29-1.11-7.4,1.76-7.25,7.44.39,14.62.42,29.28,0,43.9-.17,5.64,1.32,7.13,7,7.06,5.41-.07,8-1.1,7-7-.3-1.75.21-3.64-.09-5.39-1.14-6.65,1.18-8.74,8.15-8.42,12.12.56,18.94-6.08,19.55-17.42S853,81.69,841.2,80.34Zm-6.05,26.73c-4.88.36-4.11-2.62-4.15-5.48-.12-10.43-.13-10.43,3.92-10.49,6-.07,9.77,2.93,9.81,7.82S841.12,106.62,835.15,107.07Z"/><path class="cls-27" d="M1000.17,80a20.86,20.86,0,0,1-3.95,0c-7.17-1.38-10.87,1.61-13.1,8.53-2.93,9.1-7,17.85-11.15,28.31-4.32-10.75-8.62-19.5-11.31-28.73-2.1-7.22-6-8.56-12.67-8.26-4.93.23-5,1.49-3.3,5.4Q955.13,109,965.13,133c1.42,3.39,2.74,5.42,7.08,5.39,4.14,0,5.29-2.08,6.59-5.17,6.53-15.54,13.24-31,19.79-46.54C999.43,84.66,1001.05,82.78,1000.17,80Z"/><path class="cls-27" d="M1022.78,79.7c-5.86,0-7.78,2.49-9.42,7.1-2,5.72-4.55,11.28-6.81,16.93-4.5,11.24-9,22.49-13.71,34.4,3.6,0,6.29-.15,8.95,0,3.18.22,6.05,0,6.55-3.87.91-6.92,5.39-7.85,11.16-7.23a35.56,35.56,0,0,0,8.12,0c4.06-.51,6.4,1,7.14,5,1,5.16,4.06,7,9.15,6.13,2-.33,4-.05,7.25-.05-6.85-17.51-13.42-34.25-19.93-51C1029.69,83.16,1028.82,79.7,1022.78,79.7Z"/><path class="cls-27" d="M1083.64,80c-10.36.23-20.74.13-31.1,0-2.8,0-3.81.78-4.09,3.76-.55,5.9,1,9,7.57,7.83,4.14-.76,5.51,1.11,5.27,5.26-.34,5.84-.09,11.72-.08,17.58,0,6.31.41,12.65-.12,18.92s3.68,4.81,6.93,4.74,7.35,1.8,7.09-4.64c-.45-11,.28-22.1-.27-33.12-.33-6.66,1-10.17,8.45-8.8,4.86.88,4.19-2.74,4-5.57C1087.15,83.4,1088.85,79.84,1083.64,80Z"/><g class="cls-28"><path class="cls-29" d="M1108.41,163c10.35-.13,13.5-2.47,8-7.88,7,1.37,7-98.17,0-95.63,3.47-8.22-1.7-9.58-14.59-6.75-102.31-2.67-211-2.71-313.32.1C769.7,50,766.69,53,773.69,67.66a161.23,161.23,0,0,0,0,81.65c-7,11.66-3.45,15.18,13.52,13.57,8.72,1.8,8.72,1.8,14.57,14.77-5.85,6.35-5.85,10.42,0,13,2.53-3.17,9.89-8.42,22.19-15.83,3.76-6.68,13.51-10.67,30.42-12.24C850.69,164.22,1115.08,164.63,1108.41,163ZM858.25,100.36c.21,11.21-6.74,18-19.16,17.07-7.06,0-9.42,2.15-8,8.25,0,2.46-.5,4.39.09,5.28.76,6.87-1.91,7.91-6.87,6.81-6.31,1.24-7.83-.27-6.83-6.91-.38-14-.41-29,0-43-1-6.65.14-9.59,7.1-7.28a7.83,7.83,0,0,1,6.61.06c-.28-1.08-.28-1,0,.24a12.68,12.68,0,0,1,9.91.06C853.28,81.14,859.69,88.56,858.25,100.36Zm23.89,16.79c-1.91,6.34-1.09,11.95-.73,16.45-.3,8-5.36,4.56-7.57,3.82-3.39,1.53-7.1,2.77-6.11-3.89-.6-15.79-.72-32.57,0-48.36-.91-4.41-.12-6,4.4-4.63a42.74,42.74,0,0,1,17.22.13c9.75-.69,16.38,4.67,17.28,13.55,2.62,9.38-.69,15.48-11.54,20.35,6.19,8.21,11.75,15.67,16.38,22C893.18,144.67,890.36,127.47,882.14,117.15ZM934,85.09c-.14,7.52.17,16-.1,24.56.27,8.31.05,16.61.07,23.89.5,7.38-4.07,5-6.85,3.87-2.79,1.17-7.19,3.49-6.81-3.88,0-15.81,0-32.63,0-48.46-.4-7.6,4-5.4,7.18-4.4C930.68,79.35,934.56,78.14,934,85.09Zm44.67,47.6c-1,4.11-2.22,6.2-6.45,5.06-4.43,1.21-5.77-.86-6.94-5.28-7.08-15.32-14-31.55-20-46.75-2.85-4.94-2.76-6.23,3.23-5.29,5.81-1.48,9.82-.11,12.42,8.09,2.28,8.58,6.67,17.51,11.08,28.15,4.27-10.36,8.38-19.28,10.93-27.74,2.72-7.88,6.49-10.93,12.83-8.36,2.29-.91,3.7-1.12,3.88,0,2,1.66.36,3.57-1.55,6.48C992.44,102,985.59,117.8,978.66,132.69Zm64.81,4.91c-4.32,2-7.48.17-9-6-.25-3.19-2.64-4.69-7-4.89a10.59,10.59,0,0,1-8,0c-6,.09-10.55,1-10.94,7.08-1.06,4.92-4,5.19-6.41,3.8-3.53,1-6.27,1.12-8.77,0a331.05,331.05,0,0,1,13.43-33.72,100.39,100.39,0,0,1,6.67-16.58c1.33-5.59,3.29-8.14,9.24-7,6.19-1.18,7.07,2.35,8.27,7.27,7,16.22,13.72,33.29,19.54,50C1048.47,138.71,1046.36,138.43,1043.47,137.6Zm43.45-51.2c1,2,1.63,5.66-3.94,5.46-7-2.1-8.34,1.48-8.28,8.63.84,10.88.1,22.18.27,32.46.55,7.53-3.73,5.64-7,4.54-3.31,1.23-7.61,2.82-6.79-4.64.26-5.43-.16-11.9.11-18.55a112.29,112.29,0,0,1,.08-17.22c0-4.73-1.41-6.64-5.17-5.16-7.16.52-8.75-2.67-7.41-7.67-.5-4.06.53-4.88,4-3.68a156.78,156.78,0,0,1,30.48,0C1089.27,79.25,1087.54,82.89,1086.92,86.4Z"/></g><path class="cls-30" d="M834.92,91.1c-4,.06-4,.06-3.92,10.49,0,2.86-.73,5.84,4.15,5.48,6-.45,9.62-3.17,9.58-8.15S840.92,91,834.92,91.1Z"/><path class="cls-31" d="M889.59,217.11c-3.12-1.28-6.27-2.49-9.42-3.7-2.36-.91-3.77-2.51-3.48-5.12.32-2.86,2.14-4.29,4.89-4.76,3.31-.56,6.16.56,9,2.05,5.38,2.79,4.63-3.17,6.67-5,2.38-2.16.94-3.88-1.45-5.1-7.12-3.61-14.48-5-22.19-2.22-6.93,2.49-11.32,9.13-11.36,16.82,0,7.21,3.12,11.51,10.78,14.6,3.55,1.42,7.17,2.67,10.66,4.22a5.44,5.44,0,0,1,3.44,6c-.39,3.09-2.37,4.78-5.26,5.41-4.55,1-8.53-.5-11.87-3.44-2.31-2-3.61-2.41-5.77.43-5,6.64-5,7.7,2.38,12a23.82,23.82,0,0,0,12.91,3.39,57.81,57.81,0,0,0,6.05-.48c9-1.62,14.76-8,15.69-17C902.23,226,899,221,889.59,217.11Z"/><path class="cls-31" d="M1005,193c-6.12-.65-10.15.5-12.62,7.36-6.07,16.88-13.17,33.39-20.16,50.81,3.48,0,6.14-.15,8.78,0,3.45.24,6.33-.16,7-4.31.93-5.93,4.68-7.47,10.13-6.78a28.36,28.36,0,0,0,7.42,0c5-.73,8.19.86,9.14,6.12.72,4,3.17,5.5,7.23,5a78,78,0,0,1,8.76-.06c-7.45-19-14.61-37.14-21.7-55.32C1008.17,194,1007.05,193.26,1005,193Zm-10,36.15c2-5.48,4-10.8,6.71-18l6.68,18Z"/><path class="cls-31" d="M967.51,198.68c.19-6.18-3.18-5.62-7.14-5.63s-7.48-.54-7.13,5.64c.53,9.62.14,19.29.14,28.94l-1.49.43c-1.31-1.49-2.66-2.95-3.94-4.46-7.7-9.16-15.56-18.19-23-27.56-3.63-4.57-8.34-3.23-12.42-2.63s-2,4.89-2,7.44c-.21,14.9.23,29.82-.27,44.72-.2,6.09,2.91,5.8,7,5.68,3.78-.12,7.57.92,7.2-5.48-.56-9.77-.14-19.6-.14-29.65,2.83.67,3.61,2.4,4.72,3.71,8,9.51,16.08,18.94,23.83,28.64,3.65,4.58,8.42,3,12.46,2.41s1.93-4.9,2-7.48C967.46,228.5,967.05,213.58,967.51,198.68Z"/><g class="cls-32"><path class="cls-33" d="M856,167c61.78-2.35,129.41-2.39,191.72.42,24.71-2.87,46.32-2.88,62.29,0,5.64-2.86,5.82-2.86.17,0,5.65-2.86,5.82-2.8.17.05,9.15-1.68,11.36.89,7.52,6q9.43-3.34.93,1.07c6-2.56,6.28-2.24.27.31,6-2.55,6,99.14,0,97.7,6,1.44,5.81,1.72-.19.28,1.57,7.93-4.76,8.76-15.7,7.05-57.28,1.57-121,1.61-180.57-.08-2,1.73-12.85,1.74-10.43,0-3.14,1.73-3.86,1.67-2-.11-4.47,1.57-6.31,1.42-5,.78-7,5.13-11.47,8.4-12.56,9.41-11.06,7.86-19.16,13.78-22.23,17.65-4.14,2.86-4.46,3.17-.31.29-4.15,2.88-7.09,2.88-2.83,0-4.26,2.88-4.26,1.75,0-1.08-4.27.58-4.29-1.67,0-6.49-4.32-2.69-4.38-8.12.17-15.39-4.13-.54-4.39-2-.82-4.43-5,1.06-6.39.79-4.1-.79-10.12,2.09-15.88,2-16.32.19-7.3,1.7-9.47,1.67-6.25-.07-17.3,1.69-21.13-2.19-15.15-15.35-6,1.1-6.21-86.85-.2-84.5-6-2.35-5.69-2.68.31-.32-6-7.65-4.9-11.79,6.41-10.79C833.29,163.47,842.94,164.08,856,167ZM1085.3,249.3c-.77-1-2.48-3.12-4.92-6-4.26-5.3-9-11.09-14.24-16.82-3.77-4.25-3.76-7.44,0-11.32,4.84-5.25,9.17-10.39,13-14.9,2.22-2.72,3.74-4.53,4.4-5.21-8.51-2.49-15.37-1.34-20.22,7.88-1.91,2.66-4.59,5.64-7.47,9.52a15.49,15.49,0,0,0-4.52,5.14c-.42-.22-2.4,2.14-1.9,2.28-.5-.14-.5-3.22,0-3a14.94,14.94,0,0,1-.06-6.57c-.56-5.12-.62-9.08.15-12.06-.39-2.57-.61-3.63-.62-3-1.27-1.89-3-1.77-3.92-.49-.68-1.16-1.46-1.11-.76.05-1.45-1.11-2.23-1.17-2.18-.07-2.22-1.26-3.57-1.37-3.32.42-1.47-.63-1.73.43-.75,3-.68,18.16-.69,34,0,47.77-1,2.59-.74,3.7.76,3.18-.24,1.73,1.15,1.64,3.42.47-.19,1,.42,1,1.73-.07-.24,1.09.26,1.11,1.42.06,1,1.17,2.47,1.26,3.7-.53,0,.5.22-.63.57-3.23-.85-3.32-.77-7.53-.19-12.82a17.42,17.42,0,0,1,.08-7c-.5.12-.5-3,0-3-.5,0,1.49,2.43,1.91,2.35a22.06,22.06,0,0,0,4.87,5.69c3,4,5.84,7.2,7.76,10.15,1.26,2.81,1.81,4.65,3.22,5.47,1.89,2.76,4.27,3.94,6.06,3.76,3.13,2.22,6,2.57,8.1,1.24C1084.07,252.67,1084.55,250.89,1085.3,249.3Z"/></g><path class="cls-27" d="M927.48,80.09c-3.09.15-7.45-2-7.33,4.49.29,16.48.26,33,0,49.45-.09,6.24,4.22,4,7,4s7.21,2.3,7-4c-.29-8.12-.07-16.26-.07-24.38,0-8.36-.3-16.73.11-25.06C934.41,78.74,930.61,79.94,927.48,80.09Z"/><path class="cls-27" d="M907,93.91c-1.57-8.1-8.06-13.36-17.64-13.82-5.84-.28-11.72.15-17.57-.14-3.73-.18-4.51,1.37-4.48,4.72.13,16.45.24,32.91-.05,49.35-.09,5.57,3.55,4.35,6.24,4s7.75,2.93,7.72-3.9c0-5.38-.83-10.88.75-16.78,8.35,9.81,11.12,26.67,30,19.79l-16.7-22.43C905.66,109.69,908.9,103.71,907,93.91Z"/><path class="cls-27" d="M841.2,80.34c-3.32-.39-6.74-.06-10.11-.06V80c-2.25,0-4.56.32-6.74-.07-6.29-1.11-7.4,1.76-7.25,7.44.39,14.62.42,29.28,0,43.9-.17,5.64,1.32,7.13,7,7.06,5.41-.07,8-1.1,7-7-.3-1.75.21-3.64-.09-5.39-1.14-6.65,1.18-8.74,8.15-8.42,12.12.56,18.94-6.08,19.55-17.42S853,81.69,841.2,80.34Zm-6.05,26.73c-4.88.36-4.11-2.62-4.15-5.48-.12-10.43-.13-10.43,3.92-10.49,6-.07,9.77,2.93,9.81,7.82S841.12,106.62,835.15,107.07Z"/><path class="cls-27" d="M1000.17,80a20.86,20.86,0,0,1-3.95,0c-7.17-1.38-10.87,1.61-13.1,8.53-2.93,9.1-7,17.85-11.15,28.31-4.32-10.75-8.62-19.5-11.31-28.73-2.1-7.22-6-8.56-12.67-8.26-4.93.23-5,1.49-3.3,5.4Q955.13,109,965.13,133c1.42,3.39,2.74,5.42,7.08,5.39,4.14,0,5.29-2.08,6.59-5.17,6.53-15.54,13.24-31,19.79-46.54C999.43,84.66,1001.05,82.78,1000.17,80Z"/><path class="cls-27" d="M1022.78,79.7c-5.86,0-7.78,2.49-9.42,7.1-2,5.72-4.55,11.28-6.81,16.93-4.5,11.24-9,22.49-13.71,34.4,3.6,0,6.29-.15,8.95,0,3.18.22,6.05,0,6.55-3.87.91-6.92,5.39-7.85,11.16-7.23a35.56,35.56,0,0,0,8.12,0c4.06-.51,6.4,1,7.14,5,1,5.16,4.06,7,9.15,6.13,2-.33,4-.05,7.25-.05-6.85-17.51-13.42-34.25-19.93-51C1029.69,83.16,1028.82,79.7,1022.78,79.7Z"/><path class="cls-27" d="M1083.64,80c-10.36.23-20.74.13-31.1,0-2.8,0-3.81.78-4.09,3.76-.55,5.9,1,9,7.57,7.83,4.14-.76,5.51,1.11,5.27,5.26-.34,5.84-.09,11.72-.08,17.58,0,6.31.41,12.65-.12,18.92s3.68,4.81,6.93,4.74,7.35,1.8,7.09-4.64c-.45-11,.28-22.1-.27-33.12-.33-6.66,1-10.17,8.45-8.8,4.86.88,4.19-2.74,4-5.57C1087.15,83.4,1088.85,79.84,1083.64,80Z"/><path class="cls-27" d="M927.48,80.09c-3.09.15-7.45-2-7.33,4.49.29,16.48.26,33,0,49.45-.09,6.24,4.22,4,7,4s7.21,2.3,7-4c-.29-8.12-.07-16.26-.07-24.38,0-8.36-.3-16.73.11-25.06C934.41,78.74,930.61,79.94,927.48,80.09Z"/><path class="cls-27" d="M907,93.91c-1.57-8.1-8.06-13.36-17.64-13.82-5.84-.28-11.72.15-17.57-.14-3.73-.18-4.51,1.37-4.48,4.72.13,16.45.24,32.91-.05,49.35-.09,5.57,3.55,4.35,6.24,4s7.75,2.93,7.72-3.9c0-5.38-.83-10.88.75-16.78,8.35,9.81,11.12,26.67,30,19.79l-16.7-22.43C905.66,109.69,908.9,103.71,907,93.91Z"/><path class="cls-27" d="M835.15,107.07c-4.88.36-4.11-2.62-4.15-5.48-.12-10.43-.13-10.43,3.92-10.49,6-.07,9.77,2.93,9.81,7.82S841.12,106.62,835.15,107.07Z"/><path class="cls-27" d="M1000.17,80a20.86,20.86,0,0,1-3.95,0c-7.17-1.38-10.87,1.61-13.1,8.53-2.93,9.1-7,17.85-11.15,28.31-4.32-10.75-8.62-19.5-11.31-28.73-2.1-7.22-6-8.56-12.67-8.26-4.93.23-5,1.49-3.3,5.4Q955.13,109,965.13,133c1.42,3.39,2.74,5.42,7.08,5.39,4.14,0,5.29-2.08,6.59-5.17,6.53-15.54,13.24-31,19.79-46.54C999.43,84.66,1001.05,82.78,1000.17,80Z"/><path class="cls-27" d="M1022.78,79.7c-5.86,0-7.78,2.49-9.42,7.1-2,5.72-4.55,11.28-6.81,16.93-4.5,11.24-9,22.49-13.71,34.4,3.6,0,6.29-.15,8.95,0,3.18.22,6.05,0,6.55-3.87.91-6.92,5.39-7.85,11.16-7.23a35.56,35.56,0,0,0,8.12,0c4.06-.51,6.4,1,7.14,5,1,5.16,4.06,7,9.15,6.13,2-.33,4-.05,7.25-.05-6.85-17.51-13.42-34.25-19.93-51C1029.69,83.16,1028.82,79.7,1022.78,79.7Z"/><path class="cls-27" d="M1083.64,80c-10.36.23-20.74.13-31.1,0-2.8,0-3.81.78-4.09,3.76-.55,5.9,1,9,7.57,7.83,4.14-.76,5.51,1.11,5.27,5.26-.34,5.84-.09,11.72-.08,17.58,0,6.31.41,12.65-.12,18.92s3.68,4.81,6.93,4.74,7.35,1.8,7.09-4.64c-.45-11,.28-22.1-.27-33.12-.33-6.66,1-10.17,8.45-8.8,4.86.88,4.19-2.74,4-5.57C1087.15,83.4,1088.85,79.84,1083.64,80Z"/><path class="cls-27" d="M927.48,80.09c-3.09.15-7.45-2-7.33,4.49.29,16.48.26,33,0,49.45-.09,6.24,4.22,4,7,4s7.21,2.3,7-4c-.29-8.12-.07-16.26-.07-24.38,0-8.36-.3-16.73.11-25.06C934.41,78.74,930.61,79.94,927.48,80.09Z"/><path class="cls-27" d="M907,93.91c-1.57-8.1-8.06-13.36-17.64-13.82-5.84-.28-11.72.15-17.57-.14-3.73-.18-4.51,1.37-4.48,4.72.13,16.45.24,32.91-.05,49.35-.09,5.57,3.55,4.35,6.24,4s7.75,2.93,7.72-3.9c0-5.38-.83-10.88.75-16.78,8.35,9.81,11.12,26.67,30,19.79l-16.7-22.43C905.66,109.69,908.9,103.71,907,93.91Z"/><path class="cls-34" d="M835.15,107.07c-4.88.36-4.11-2.62-4.15-5.48-.12-10.43-.13-10.43,3.92-10.49,6-.07,9.77,2.93,9.81,7.82S841.12,106.62,835.15,107.07Z"/><path class="cls-27" d="M1000.17,80a20.86,20.86,0,0,1-3.95,0c-7.17-1.38-10.87,1.61-13.1,8.53-2.93,9.1-7,17.85-11.15,28.31-4.32-10.75-8.62-19.5-11.31-28.73-2.1-7.22-6-8.56-12.67-8.26-4.93.23-5,1.49-3.3,5.4Q955.13,109,965.13,133c1.42,3.39,2.74,5.42,7.08,5.39,4.14,0,5.29-2.08,6.59-5.17,6.53-15.54,13.24-31,19.79-46.54C999.43,84.66,1001.05,82.78,1000.17,80Z"/><path class="cls-27" d="M1022.78,79.7c-5.86,0-7.78,2.49-9.42,7.1-2,5.72-4.55,11.28-6.81,16.93-4.5,11.24-9,22.49-13.71,34.4,3.6,0,6.29-.15,8.95,0,3.18.22,6.05,0,6.55-3.87.91-6.92,5.39-7.85,11.16-7.23a35.56,35.56,0,0,0,8.12,0c4.06-.51,6.4,1,7.14,5,1,5.16,4.06,7,9.15,6.13,2-.33,4-.05,7.25-.05-6.85-17.51-13.42-34.25-19.93-51C1029.69,83.16,1028.82,79.7,1022.78,79.7Z"/><path class="cls-27" d="M1083.64,80c-10.36.23-20.74.13-31.1,0-2.8,0-3.81.78-4.09,3.76-.55,5.9,1,9,7.57,7.83,4.14-.76,5.51,1.11,5.27,5.26-.34,5.84-.09,11.72-.08,17.58,0,6.31.41,12.65-.12,18.92s3.68,4.81,6.93,4.74,7.35,1.8,7.09-4.64c-.45-11,.28-22.1-.27-33.12-.33-6.66,1-10.17,8.45-8.8,4.86.88,4.19-2.74,4-5.57C1087.15,83.4,1088.85,79.84,1083.64,80Z"/><path class="cls-35" d="M898.83,113.27c0,.07.27-.22.3-.17"/><path class="cls-35" d="M898.83,113.27c0,.07.27-.22.3-.17"/><path class="cls-35" d="M898.83,113.27c0,.07.27-.22.3-.17"/></g></g></g></svg>
