<svg id="Layer_1_copy" data-name="Layer 1 copy" xmlns="http://www.w3.org/2000/svg" width="200" height="150" viewBox="0 0 200 150"><defs><style>.cls-1{fill:#fff;stroke:#000;stroke-miterlimit:10;}.cls-2{isolation:isolate;}</style></defs><title>sendtilmig</title><path class="cls-1" d="M6.72,68.56c.62-22.15,50.4-42,93-42,51.37,0,93,18.81,93,42s-41.63,42-93,42a187,187,0,0,1-44.84-5.2,88,88,0,0,1-24.66,9.2,87.59,87.59,0,0,1-22.75,1.75A65.85,65.85,0,0,0,23,106.56a64.93,64.93,0,0,0,9-9.25C19.12,90,6.41,79.94,6.72,68.56Z"/><g class="cls-2"><g class="cls-2"><path d="M38.08,72.55a7.06,7.06,0,0,0,3.68,1c2.11,0,3.35-1.11,3.35-2.73,0-1.47-.86-2.35-3-3.15-2.61-.95-4.22-2.33-4.22-4.56,0-2.49,2.06-4.34,5.17-4.34a7.23,7.23,0,0,1,3.52.78L46,61.28a5.93,5.93,0,0,0-3-.76c-2.18,0-3,1.3-3,2.39,0,1.5,1,2.23,3.18,3.09,2.7,1,4.06,2.35,4.06,4.7s-1.81,4.62-5.58,4.62a8.24,8.24,0,0,1-4.08-1Z"/></g><g class="cls-2"><path d="M51.28,69.7a3.68,3.68,0,0,0,3.94,4,7.32,7.32,0,0,0,3.18-.6l.38,1.5a9.43,9.43,0,0,1-3.84.73c-3.54,0-5.65-2.35-5.65-5.81s2-6.17,5.39-6.17c3.77,0,4.74,3.28,4.74,5.39a4.94,4.94,0,0,1-.07,1Zm6.12-1.49c0-1.31-.54-3.37-2.89-3.37-2.14,0-3,1.92-3.2,3.37Z"/><path d="M62,66.69c0-1.21,0-2.16-.1-3.11h1.85l.12,1.9h0a4.26,4.26,0,0,1,3.8-2.14c1.59,0,4.06,1,4.06,4.89v6.83H69.7V68.44c0-1.85-.69-3.39-2.66-3.39a3,3,0,0,0-2.8,2.14,2.84,2.84,0,0,0-.14,1v6.9H62Z"/><path d="M85.08,58.22V72.1c0,1,0,2.18.09,3H83.32l-.1-2h-.07a4.13,4.13,0,0,1-3.86,2.25c-2.78,0-4.94-2.35-4.94-5.83,0-3.82,2.37-6.15,5.15-6.15A3.84,3.84,0,0,1,83,65.07H83V58.22ZM83,68.25a3.68,3.68,0,0,0-.09-.87,3.08,3.08,0,0,0-3-2.4c-2.16,0-3.44,1.9-3.44,4.41,0,2.33,1.16,4.25,3.39,4.25a3.18,3.18,0,0,0,3.07-2.49,3.71,3.71,0,0,0,.09-.9Z"/><path d="M96.11,60.83v2.75h3v1.59h-3v6.19c0,1.42.4,2.23,1.57,2.23a4.07,4.07,0,0,0,1.21-.14L99,75a5.74,5.74,0,0,1-1.85.28,3,3,0,0,1-2.25-.87,4.51,4.51,0,0,1-.81-3V65.17H92.29V63.58h1.78V61.44Z"/><path d="M103.78,60.35a1.25,1.25,0,0,1-1.33,1.28,1.23,1.23,0,0,1-1.26-1.28,1.27,1.27,0,0,1,1.31-1.3A1.25,1.25,0,0,1,103.78,60.35Zm-2.33,14.71V63.58h2.09V75.06Z"/><path d="M107,58.22h2.08V75.06H107Z"/><path d="M117.64,66.69c0-1.21,0-2.16-.1-3.11h1.83l.09,1.87h.07a4,4,0,0,1,3.64-2.11,3.38,3.38,0,0,1,3.22,2.3h0a4.58,4.58,0,0,1,1.3-1.49,3.88,3.88,0,0,1,2.52-.81c1.54,0,3.8,1,3.8,5v6.74h-2V68.59c0-2.24-.84-3.54-2.5-3.54A2.75,2.75,0,0,0,127,66.92a3.79,3.79,0,0,0-.16,1v7.09h-2V68.18c0-1.83-.81-3.13-2.4-3.13a2.89,2.89,0,0,0-2.59,2.09,2.73,2.73,0,0,0-.16,1v6.9h-2Z"/><path d="M139.76,60.35a1.25,1.25,0,0,1-1.33,1.28,1.23,1.23,0,0,1-1.26-1.28,1.3,1.3,0,1,1,2.59,0Zm-2.33,14.71V63.58h2.09V75.06Z"/><path d="M152.81,73.38c0,2.66-.55,4.25-1.64,5.27A6.3,6.3,0,0,1,147,80a7.36,7.36,0,0,1-3.82-1l.52-1.61a6.25,6.25,0,0,0,3.37.93c2.14,0,3.7-1.12,3.7-4V73.09h-.05A4.06,4.06,0,0,1,147,75c-2.85,0-4.89-2.42-4.89-5.6,0-3.9,2.54-6.08,5.2-6.08a3.83,3.83,0,0,1,3.58,2h0l.07-1.73h1.85c-.07.81-.09,1.75-.09,3.13Zm-2.09-5.27a2.81,2.81,0,0,0-.12-.92A3,3,0,0,0,147.68,65c-2,0-3.42,1.69-3.42,4.35,0,2.25,1.17,4.13,3.4,4.13a3,3,0,0,0,2.89-2.14,3.61,3.61,0,0,0,.17-1.11Z"/><path d="M155.85,73.85a1.4,1.4,0,0,1,1.42-1.47,1.36,1.36,0,0,1,1.38,1.47,1.4,1.4,0,1,1-2.8,0Zm.59-3.37-.33-11.41h2.27l-.33,11.41Z"/></g></g></svg>
