<svg xmlns="http://www.w3.org/2000/svg" width="650" height="3240" viewBox="0 0 650 3240"><defs><style>.cls-1{isolation:isolate;}.cls-2{fill:#894324;}.cls-3{fill:#171c4c;}.cls-4{fill:#3c618c;}.cls-5{fill:#f9dcc7;}.cls-6{fill:#ff9d00;}.cls-27,.cls-7{fill:#8e7469;}.cls-7,.cls-9{mix-blend-mode:multiply;}.cls-8{fill:#fff;}.cls-9{fill:#d8afa4;}.cls-10{fill:#456f99;}.cls-11,.cls-12,.cls-13,.cls-14,.cls-15,.cls-18,.cls-19,.cls-20,.cls-21,.cls-22,.cls-23,.cls-24,.cls-25,.cls-26{fill:none;stroke:#fff;stroke-miterlimit:10;}.cls-12{stroke-dasharray:1.8 1.8;}.cls-13{stroke-dasharray:2 2;}.cls-14{stroke-dasharray:1.91 1.91;}.cls-15{stroke-dasharray:1.98 1.98;}.cls-16{fill:#2d4a66;}.cls-17{fill:#f2c5a7;}.cls-18{stroke-dasharray:2.02 2.02;}.cls-19{stroke-dasharray:1.97 1.97;}.cls-20{stroke-dasharray:1.92 1.92;}.cls-21{stroke-dasharray:2.03 2.03;}.cls-22{stroke-dasharray:1.97 1.97;}.cls-23{stroke-dasharray:1.96 1.96;}.cls-24{stroke-dasharray:1.92 1.92;}.cls-25{stroke-dasharray:1.91 1.91;}.cls-26{stroke-dasharray:2.02 2.02;}</style></defs><title>spritesheet_brian</title><g class="cls-1"><g id="brian_walk_cycle"><path class="cls-2" d="M344.89,3098.76c-21.35-1.07-83-4-94.33,14.82-4.86,8.07-1.61,30.08-1.11,39.72,1.06,20.41,7.66,18.81,27.21,19.7,47.72,2.17,94.76,4.54,142.88,4.54,34,0,63.93,4.26,67.75-34.85,1.7-17.4,1.65-27.9-15.52-34.54C435.29,3094.05,391.53,3101.69,344.89,3098.76Z"/><path class="cls-3" d="M227.82,2918.21c-2,16.79-7,23.47-.82,41.36a98.82,98.82,0,0,0,24.42,38.59C271,3017,294.81,3019.69,320,3022a251.83,251.83,0,0,0,38.26.5c9.1-.51,18.5.38,27.58-.55,8.89-.92,17.54-2.35,26.07-5.61C446,3003.33,451,2969.49,451,2934c0-15.82.73-19.14-14.14-25-15.64-6.18-20.84,0-33.68,6.58-13.39,6.85-29,3.78-43.29,5-19.83,1.77-39.71.8-59.56,1.87-10,.55-20.15,1.79-30.29,1.82-14.39.06-29.72-2.67-43.81-1.94C228.33,2922.25,228.54,2920.25,227.82,2918.21Z"/><path class="cls-4" d="M485.5,2905c8.11-18.8,5.69-38.24,3.09-59-1.09-8.73-2.45-15.1-2.78-16.65-13.57-64.09,4.64-117.45-27.17-156.85-17-21.06-40-42.81-67.11-54.86-25.8-11.48-69.37,3.17-99.39,2.9-18.3-.17-39.64-2.92-55.83,6-32,17.54-37.85,70.25-38.57,98.85-.63,24.76-9.22,47.87-11.92,72.12-3.21,28.76-1.39,59-1.1,88,.15,14.41,2.79,35,12.57,47.25,13.39,16.83,40.45,11.17,62.44,12.18,42.87,2,85.83.52,128.75,1.05,35.43.44,53.84,1.61,72.52-11.42C464.58,2932,478,2922.41,485.5,2905Z"/><path class="cls-5" d="M470.94,2440.49c-6.53-34.9-37.89-60.81-71-76.44-65.13-30.71-153.17-18.14-199.81,39.79-19.21,23.86-25.75,56.06-29.94,85.14-5.2,36,.84,80.72,16.93,112.86,8.32,16.63,18.77,29,38.73,31.9,30.28,4.43,67.79,7,99.51,6.18,56.48-1.48,87.34-7.53,112.28-29.25A99.42,99.42,0,0,0,463,2576c5.66-14.15,5.85-26.55,6.09-41.5.33-21.63-1.51-21.11-1.77-38.54-.16-11.3,3.26-22.57,4.47-33.94A73.92,73.92,0,0,0,470.94,2440.49Z"/><ellipse class="cls-5" cx="476.65" cy="2499.5" rx="18.27" ry="23.5"/><path class="cls-6" d="M435,2364.09c3.17-6,9-9.9,13.41-15.12,6.7-7.85,5.29-12.46,11.74-20.39-17.07,8.89-33.1,11-44.44,26.37,8.52-15.89,10.1-13.15,18.35-29.29-22.76,6.3-27.55,4.91-41.15,21,2.18-13.88,2-7.72,5.78-21-12.82,12.4-16.63,5.8-20.3,23.69-.43-12.86,2-18,1.59-30.91-2.79,8.42-8.95,17.65-18.08,21.49-1.27-10.8-.65-14.24-3.1-24.95-1.94,9.38-6.25,8.86-10.82,17.44-1.05,2-2.12,4.18-3.27,6.46a21.46,21.46,0,0,1-2-4.55c-1.72-6.21-.28-13.22-2.16-19.09a59.17,59.17,0,0,0-4.75,19.43c-.5,5.84-4.28,9.2-9.37,12.07-1.07-5.55-2.3-11.07-3.74-16.56-1.36-5.21-4-11.18-3.71-16.52-1,10,.19,18.81-2.25,28.41-2.63-5.41-2.69-12.17-6-17.25-.59,3.94-.26,11-4.42,13.2-4.06-5.59-4.32-13.18-8.12-18.65-2.76,6.17-8.18,11.9-11.41,18.1a38.57,38.57,0,0,0-3.07-8.85c-2.2-4-6.23-6.07-8.71-9.77-2.2,6.43-3.45,14-6.11,20.15-6.88-8.86-8.64-18.86-19.44-25.78.26,7.12-4.83,15.47-7.45,22.13-2.48-3.21-3.2-7.19-5.72-10.39-3.76-4.79-10-7.84-14-12.46-4.06,7-7.61,16-8.71,23.76-2.78-9-11.07-14.44-16.93-21.64-.25,8.21-6,15.59-8.36,23.37a180.15,180.15,0,0,0-4.67,20.65c-.63,3.45-1.26,6.9-2,10.28-7.91,38.12-10.31,57.41-11.34,64.92,0,0-6.44,47-2,99.18.38,4.5,1.39,12.67,3.42,29,2.61,21,3.41,25.22,5.77,30.62,2.63,6,7.89,15.06,19.36,24.38-7.74-21.43-4-30.82.91-35.45,13-12.34,40,3.34,72-11.91,5-2.37,16.68-8.14,23.05-19.64,5.69-10.29,4.25-20.35,3.42-28-4.55-42.33-7.55-70.25,6.26-82,12.45-10.59,33.24-3.52,37.33-14,2.53-6.48-4.46-11.67-2.13-21,1.95-7.85,9.08-13,14.5-16,39.52-.87,61,.09,71,2.2,2.65.55,11.15,2.32,19.49-1a19,19,0,0,0,6.37-4.23c6.61-6.42,11.72-14.07,18-20.67C478,2354,490.47,2346,504.85,2338.66a186.07,186.07,0,0,0-30.42,7.09A176.26,176.26,0,0,0,435,2364.09Z"/><path d="M442.69,2450.81c-1.3,2.15-2.1,5.78-2.33,9.37-.43,6.7.55,16.34,5.08,19.78,8.43,6.39,8.21-21.45,4-27.81C446.54,2447.78,444.25,2448.22,442.69,2450.81Z"/><path class="cls-7" d="M467.8,2548.75c-5.37,2.49-8.69,2.38-10.76,1.76a10.48,10.48,0,0,0-2-.51,11.66,11.66,0,0,0-7.46,2c-2.55,1.52-7.93,2.46-20.27,0,6.14,6.31,11.34,7.8,14.94,8,4.09.23,5-1.26,10.41-1.19,8.3.12,12.19,4.24,14.39,2.1C468.93,2559.05,468.08,2551.83,467.8,2548.75Z"/><path class="cls-8" d="M468.29,2547.14c-2.81,2.84-9.69.94-13.75,2.38,3.76,5.56,1,28.1,12.16,22.43C477.56,2566.45,468.06,2555.28,468.29,2547.14Z"/><path class="cls-7" d="M329.74,2440.72c-4.53-1.07-9.82-1.12-14.72,1.87-13.22,8-17.51,34.48-11.43,52.29,7.4,21.65,28.49,25.7,30.89,26.12a44.56,44.56,0,0,1-15-12.73,51.8,51.8,0,0,1-10.65-28.15c-.23-3.07-1.43-19.27,6.05-29a35,35,0,0,1,6.88-6.6A26.56,26.56,0,0,1,329.74,2440.72Z"/><path class="cls-9" d="M336.3,2457.74c.44-4.45-4.11-5.86-6-6.36-2.36-.63-4.6-.28-7.23,2.33-3.62,3.59-8.19,12.66-6.79,18.91.92-2.9,1.8-7.41,3.73-9,2.57-2.13,6.84.33,8.86,1.25-.05,1.64,1.82,3.78,2.83,3.2.45-.26,1.6-2.85,2-3.63C334.61,2462.27,335.29,2459.34,336.3,2457.74Z"/><path d="M468.38,2462.82c-24.48-3.07-126.5-39.57-158.32-24.09-9.48,4.61-15.38,9-13.81,16.67l8.65,1.36c-1.18-5.7,4.59-11.16,11-14.29,26.06-12.69,123.14,22.11,153.77,26.34"/><rect x="464.71" y="2427" width="6.29" height="78" rx="2.5" ry="2.5" transform="translate(294.11 -37.97) rotate(6.77)"/><path class="cls-5" d="M300.71,2873.64c-1.63-.73-9.82-4.23-18.22-1.83-8.19,2.34-10.94,8.67-12.08,11.28-5.18,11.9,3.34,24.41,5.78,28,2.2,3.22,11.56,17,23,17.47,7.79.34,12.42-5.59,15.41-3.71,2.81,1.76-1.5,6.79,1.5,13.71,3.18,7.36,12.22,11.26,14.17,12.1a36.47,36.47,0,0,0,19.92,2.3c3.39-.43,11.64-1.49,15.77-6,6.18-6.77,2.6-20.75-10.27-33.33a39.83,39.83,0,0,0,8.56,9.65c3.66,3,7.81,6.42,12.87,7,7.17.86,14.36-4.15,16.88-9.56,6.21-13.36-12.1-37.92-34.33-43.26a42.07,42.07,0,0,0-15.91-.64q-.07-3.64-.16-7.3-1-38-4.73-74.56c-5.61-1.07-11.42,2.07-17,2.17a57.74,57.74,0,0,1-11.09-1.1c-3.4-.6-6.14,0-9.26-.67-.25,2.69-.62,7.06-.88,12.46-.76,15.63.11,24.57.34,40.17C301.08,2853.84,301.11,2862.69,300.71,2873.64Z"/><path class="cls-10" d="M385,2752c.57-3.12,5.65-33.71-16-56-18.33-18.87-48.14-23.91-74-12a87.63,87.63,0,0,0-33,37,91.63,91.63,0,0,0-8,37c-.1,10.48-.38,37.82,15,47,7.29,4.35,13.48,1.87,28.56,0,45.24-5.6,59.39,8.09,73.95-2.55C377.84,2797.82,387.62,2786.13,385,2752Z"/><path class="cls-3" d="M408.42,3110.78c7.16,6.45-143,6.45-135.85,0-15.81,6.45-22.89-.64-14.25-14.25-8.64,4.95-8.64-99,0-94.05-8.64-13.62-1.56-20.71,14.25-14.25-7.14-6.46,143-6.46,135.85,0,15.82-6.46,22.91.63,14.25,14.25,8.66-5,8.66,99,0,94.05C431.33,3110.14,424.24,3117.23,408.42,3110.78Z"/><path class="cls-11" d="M454.18,2699.65l-.18-1,1-.19"/><path class="cls-12" d="M456.75,2698.14l13.26-2.55"/><path class="cls-11" d="M470.9,2695.42l1-.19q.12.46.24,1"/><path class="cls-13" d="M472.59,2698.14c1.39,5.8,3,13.43,4.28,22.52,1.22,8.64,1.85,16.21,2.19,22.29.37,6.83.38,11.88.39,13.36.06,9,.84,25.88,3.87,60.18"/><path class="cls-11" d="M483.41,2817.5l.09,1-.95.33"/><path class="cls-14" d="M480.75,2819.45l-24.4,8.41"/><path class="cls-11" d="M455.45,2828.17l-.95.33c.06-.32.12-.65.17-1"/><path class="cls-15" d="M455,2825.57c1.35-7.9,2.65-17.12,3.6-27.45a363,363,0,0,0,1.47-37.79,360.25,360.25,0,0,0-5.72-59.7"/><path class="cls-8" d="M460.06,2704.64l14.66-2.64c2.49,16.67,4.54,34.71,5.85,54,1.4,20.69,1.76,40.1,1.43,58l-21,6c1.15-7.34,1.86-13.46,2.3-17.83a357.87,357.87,0,0,0,.83-60.5C463.52,2731.89,462.37,2719.23,460.06,2704.64Z"/></g><g id="brian_sidder_forfra"><path class="cls-5" d="M156.23,1639.32c-4.38,2.82-10.5,6.58-19.85,11.64-12.45,6.73-28.36,17.89-42.6,19-11.29.92-34.07-6-34.48-19.2-.19-6.42,1.21-14.08,4.64-19.59,2.06-3.32,4.07-4.63,7.48-6.18,1-.43,2.44-.06,4.16-.89,2.46-1.17,10.43-3.61,12.64-5.23a640,640,0,0,1,96-58.19c4.12,5.86,2.8,15.28,5.39,22a60.2,60.2,0,0,0,6.8,12.38c2.45,3.57,3,7.31,5.37,10.52a158.7,158.7,0,0,0-15.94,11c-7.2,5.63-9.26,8.26-17.52,14.4C163.56,1634.59,159.8,1637,156.23,1639.32Z"/><path class="cls-5" d="M508.7,1630.33c4,3.34,9.59,7.84,18.24,14,11.51,8.23,25.89,21.29,39.88,24.22,11.09,2.33,29-2.35,31-15.44,1-6.34.57-14.11-2.14-20-1.64-3.55-3.47-5.1-6.66-7.07-.88-.55-2.41-.36-4-1.4-2.29-1.47-4.33-4.18-6.31-6.06a639.87,639.87,0,0,0-88-69.75c-4.82,5.3-4.69,14.81-8.1,21.21a60.06,60.06,0,0,1-8.31,11.42c-2.86,3.24-3.89,6.88-6.63,9.77a160.16,160.16,0,0,1,14.44,12.87c6.44,6.49,8.16,9.36,15.58,16.49C502,1624.72,505.45,1627.6,508.7,1630.33Z"/><path class="cls-3" d="M174.49,1839.06c-7.32,21-9.88,45.66-16.07,67.9-3.17,11.4-13.77,35.93-9.37,48.06,1.15,3.18,8.63,8.33,11.85,10.12,23.08,12.85,62.32,20.12,88.77,23.78,9.18,1.27,18,1.17,27.33,1.15,4.73,0,25.55,3.1,30.06.07,7.89-5.3,2.55-30.22,3-38.91.73-15.31,5.35-29.59,7.93-43.77,13.13,28.45,51.71,36.45,47.51,71,21.78,5.65,53.58,3.2,76.17,1.08,16.44-1.54,32.87-4.49,49.51-6,14.47-1.29,29.68-9.07,43.36-9.44-9.13-15.93-13-34.29-18.4-51.58-8.89-28.63-28.67-58.77-46.34-83.16-18.86,16.58-57.82,11.67-82,13.3-32,2.17-64.09,1-96.12,2.31-16.2.67-32.51,2.19-48.88,2.24-23.22.06-48-3.3-70.69-2.4C174.17,1844.94,176.23,1844.87,174.49,1839.06Z"/><path class="cls-4" d="M430.09,1526.91c12.8-11.53,37.58-9.66,54.54-6.34,29.84,5.83,50.07,35.23,77.14,47.47-3,7-14.1,15.79-19.72,23-10.32,13.27-19.81,26.89-29.06,40.44-10.67,15.64-23.67,28.29-34.94,43-17.65,23.12-42.57-11.6-50.64-29.92-9.86-22.39-12.42-43.7-11.5-67.58C416.55,1560.36,416.17,1534.52,430.09,1526.91Z"/><path class="cls-4" d="M505,1811.35c.69-24.73.05-38.06-.16-52.6-.3-21,.18-41.21-1.51-62-1.08-13.45-.7-27.65-.9-41.08-.32-22-3.35-40.38-11.85-59.88-7-16.19-15.82-32.25-24.23-47.8-7.46-13.8-12.6-28-19.42-42.15-3.11-6.42-3.48-13.16-10.07-11-4.8,1.55-10.86,8.25-15.33,11.44-17.12,12.23-36.41,20.89-56.11,26.8-32.95,9.89-69.17,8.1-102.86,6.69-12.61-.53-26.06.52-38.38-2.89-7.37-2-14-6.63-21.38-8.59.68.34,1.31.78-.31-.71-14.92,35.41-28.09,73-43.75,107.38-12.35,27.12-18.75,55.94-19.94,86.82,0,0,1.83,105.76,4.68,120l2.85,14.26s11.41,4.76,84.61,7.61,89.37,5.7,146.41,1.9,65.6-4.75,89.36-8.56,38-5.7,37.08-15.21S505,1811.35,505,1811.35Z"/><path class="cls-16" d="M198.87,1530.35c5,30.38,26.82,42.6,44.68,47,28.84,7.16,59.69,14.92,89.46,11.46,14.29-1.67,28.44-9.6,42.67-16.52A173,173,0,0,0,411.91,1549c8.67-7.28,52.61-54.7,37.55-73-3.37-4.09-13.34-3.71-17.76-4.51-12.33-2.23-23.12,1.78-35.5,4.33-16,3.3-31.88,7.13-48.05,9.54-15.7,2.34-30.66.53-46.24.55-23.7,0-51.52,3.89-75,16.31-9.27,4.9-29.14,10.89-34.54,24.83C192.79,1529.59,193.82,1531.41,198.87,1530.35Z"/><path class="cls-17" d="M201,1513.62c4.81,30.18,26.14,42.28,43.59,46.65,28.17,7.06,58.3,14.71,87.4,11.21,14-1.68,27.82-9.59,41.73-16.5a169.42,169.42,0,0,0,35.46-23.23c8.48-7.25,51.51-54.47,36.82-72.6-3.29-4.06-13-3.66-17.34-4.44-12.05-2.2-22.6,1.8-34.71,4.37-15.62,3.31-31.17,7.15-47,9.57-15.35,2.36-30,.58-45.19.64-23.16.08-50.36,4-73.35,16.36-9.08,4.89-28.5,10.87-33.81,24.74C195.09,1512.87,196.1,1514.68,201,1513.62Z"/><polyline class="cls-11" points="296.57 1621.7 296.56 1620.7 297.56 1620.69"/><line class="cls-18" x1="299.57" y1="1620.65" x2="375.18" y2="1619.26"/><polyline class="cls-11" points="376.19 1619.24 377.19 1619.22 377.2 1620.22"/><line class="cls-19" x1="377.24" y1="1622.19" x2="377.75" y2="1652.69"/><polyline class="cls-11" points="377.76 1653.67 377.78 1654.67 376.78 1654.69"/><line class="cls-20" x1="374.86" y1="1654.73" x2="337.46" y2="1655.41"/><polyline class="cls-11" points="336.5 1655.43 335.5 1655.45 335.52 1656.45"/><line class="cls-21" x1="335.55" y1="1658.48" x2="335.67" y2="1665.58"/><polyline class="cls-11" points="335.69 1666.59 335.7 1667.59 336.7 1667.57"/><line class="cls-22" x1="338.68" y1="1667.54" x2="373.23" y2="1666.9"/><polyline class="cls-11" points="374.22 1666.88 375.22 1666.87 375.24 1667.87"/><line class="cls-23" x1="375.27" y1="1669.82" x2="375.78" y2="1700.17"/><polyline class="cls-11" points="375.8 1701.15 375.81 1702.15 374.81 1702.17"/><line class="cls-22" x1="372.84" y1="1702.2" x2="338.28" y2="1702.84"/><polyline class="cls-11" points="337.3 1702.86 336.3 1702.87 336.31 1703.87"/><line class="cls-24" x1="336.35" y1="1705.8" x2="337.04" y2="1747.14"/><polyline class="cls-11" points="337.06 1748.1 337.07 1749.1 336.07 1749.12"/><line class="cls-25" x1="334.16" y1="1749.15" x2="300.68" y2="1749.76"/><polyline class="cls-11" points="299.73 1749.78 298.73 1749.8 298.71 1748.8"/><line class="cls-26" x1="298.68" y1="1746.78" x2="296.59" y2="1622.71"/><path class="cls-8" d="M303.44,1627.64l67.1-1.23.36,21.32-42.28.78.44,26.27,39.52-.73.35,21.16-39.51.72.77,46.23-24.82.45Z"/><path class="cls-5" d="M538.79,1659.66c-3.32-1-7.87-2.4-14.46-4.89-5.76-2.17-14.35-5.63-25.08-10.72,0,2.74-.3,12.61-7.93,19.9a26.35,26.35,0,0,1-7.55,4.94c-10.65,4.68-25.26,3-34.81-5.36-5.9-5.18-11.26-14.15-9.25-19.69,2.36-6.5,3.94-8.35,3.94-8.35,1.43-1.82,2-2.71,1.88-3.39-.35-1.57-2.72-2.33-3.39-2.54-6.85-2.23-18.24-11.44-22-15.41-5.11-5.36-10.07-15.61-6.51-25.39,2.79-7.65,9.86-14.75,16.78-14.77,13.67,0,28.2,11.76,36.36,20.7-2.28-1.85-2.79-9.25-3-12-.24-3.87,0-9.81,2.14-13.08,3.42-5.32,9.66-10.25,16.28-10,18.56.84,32.61,20.16,34,37.07.47,5.54-1.66,13.07-4.29,18.37,2.48.52,5,1.06,7.48,1.63a424.2,424.2,0,0,1,70.89,22.84c-1.14,4.6-6.44,8-8.71,12.28a39.76,39.76,0,0,0-3.24,8.79c-.73,2.77-2.36,4.68-2.95,7.26a104.45,104.45,0,0,0-12.42-3.23c-5.95-1.16-8.17-1.05-14.83-2.52C544.34,1661.28,541.48,1660.45,538.79,1659.66Z"/><path class="cls-4" d="M207.51,1557.64c6.51-23.71-33.49-19-45-15.32-22.09,7.12-36.16,20.4-50.72,39.32-13.46,17.49-25.7,31.28-9.28,52.23,7.11,9.07,30.66,24.92,42.55,28.61,14.72,4.57,30.41-4.42,37.5-18.16C197.08,1616.19,202.63,1581.43,207.51,1557.64Z"/><path class="cls-6" d="M433.39,1214.31a1.39,1.39,0,0,1-1,1c-3.45-4.07-2.37-12.65-3.34-18a100.11,100.11,0,0,1-1.9,18.62,51,51,0,0,0-.94-12.34c-1.9,5.84-.81,12.28-2.23,18.44-1.7-5.09-2.4-11.27-4.38-15.93-3.83,9-2.46,18.23-3.93,27.65-1.69-2.21-2-5.93-3-8.61-1.81-5-4.72-9.3-6.61-14.19s-2.4-10.49-4-15.53c-1.16,14.27,1.33,30.27-1.58,44.23-6.37-8.53-10.95-21.42-14.19-31.67-3.84,3.59-6.12,14.65-7.08,19.61-1.18,6.07-1.13,13.18-1,19.42-4.71-13.43-13.76-25.12-18.58-38.61-2.33,6.09-5.26,12.13-6.79,18.6s-.43,13.06-2.34,19.28c-4.79-5.74-14.34-24.4-16.31-31.63-3.76,4.71-2.81,9-4.83,14.61-1.31,3.68-1.46,9.6-3.88,12.63-5-6.54-7.48-14.54-10.45-22.09-3.4,6.94-.16,15.45-2.9,22.29-5.9-8-7.44-19.07-12.49-27.3-4.57,7.4-10.87,13.78-15.09,21.37-3,5.38-2,10.77-4.29,16.08-3.55-6.51-10-12.78-11.86-20.06-3.4,8.17-9.25,15.12-9.63,24.4a77.37,77.37,0,0,0-12.73-21.45c-2.42,5.29-7,9.48-9.18,14.87-1.43,3.62-1.16,7.64-2.56,11.25-3.72-6-9.93-13.12-11.29-20.11-7.68,8.85-7,18.94-10.85,28.92-3.64-5.47-6.39-12.61-9.7-18.44-1.3,4.09-4.28,6.84-5.26,11.22a42.78,42.78,0,0,0-.65,9.23c-4.14-5.42-10-10-13.77-15.42-2,6.07-.56,13.53-2.77,19.77-4-1.3-5.34-8.28-6.73-12-1.68,5.61-.23,12.2-1.27,18-4.22-8.88-5.17-17.68-8.26-27.25,1.44,5.14.52,11.48.52,16.83,0,30.1,5.21,60.15,9.09,90.19,0,0,278-37.2,277.8-38.76s-11.92-68-11.24-67.54l-6.33-41.39m-96.3,45.12.37-.06.2,2.3Zm10-1.51.34,0,.06,1.47Zm10.54-1H358v.54Z"/><path class="cls-5" d="M529.69,1341.22c-2.89-11.13-4.36-26.8-15.71-31.66-4.07-1.74-9.07-1.24-13.41-1.42-11.13-.47-9.44-1-15.29,4.7-5.25,5.13-10.37,12.69-12.68,19.8a48.69,48.69,0,0,0-1.46,5.86c-30.71-38.38-64.41-71.69-90.81-74.29-31.18-3.08-105.08,4.43-147.42,27.4-21.72,11.79-51,34.77-64.83,78.82-3.86-6.06-9.32-11.58-13-13.79-6.86-4.15-22.34-8.56-29.52-3.93-3.26,2.1-8.89,9.55-12.33,12.74-13.84,12.84-20.7,26.56-15.45,45.84,5.94,21.8,29.51,26.25,46.87,18,3.63-1.73,8-4.26,11.82-6.48,1.46-.85,2.6-1.57,3.52-2.23-4.89,64.88-16.18,75.88,4.1,98,26.3,28.62,67.18,32.6,114.57,34.85,25.85,1.23,55.13,2.42,93.5-5.8,41.11-8.8,68.77-14.72,92-37.68,38.84-38.42,37.77-97.41,36.81-115,4.87.25,10-.34,12.76-1.32,4.89-1.75,10.79-9.11,13.5-14C533.88,1367.43,533,1353.78,529.69,1341.22Z"/><path d="M276.17,1371.68c-1.21-1-3.77-2.63-6.85-1.94a5.8,5.8,0,0,0-2,.8c-4.1,2.69-6.71,12.91-4.38,20.48a13.75,13.75,0,0,0,2.33,4.63c3.59,4.43,10.56,5.28,14.09-1.58C282.69,1387.53,281.46,1376.84,276.17,1371.68Z"/><path d="M354.19,1361.37c-2.23,2.26-3.78,6-4.41,9.61-1.19,6.79-.35,16.44,6.6,19.58,12.94,5.85,14.68-22.2,8.46-28.3C360.55,1358.05,356.87,1358.65,354.19,1361.37Z"/><path class="cls-9" d="M490,1332c2.35-8.48,8.63-10.13,15.39-6.3a15.78,15.78,0,0,1,5.78,5.38,60.09,60.09,0,0,1,5.59,10.17c4.36,11.44,2.24,26.93-11,29.7,5.19-5.62,2.13-17.76,1-24.34C505.54,1338.94,500.4,1331,490,1332Z"/><path class="cls-9" d="M162.11,1383.34c-1.14-4.87-14.38-8.74-19.85-10.26-6.83-1.89-12.77-2.59-18.62-.91-8,2.32-15.79,10.44-8.64,18.29,1-2.87,1-7.59,5.47-8.48,5.91-1.17,18.94,3.77,25,5.81.72,1.86,7,5.23,9.45,5.06,1.09-.07,2.9-2.46,3.45-3.18C159.86,1387.69,160.17,1384.67,162.11,1383.34Z"/><path class="cls-9" d="M308,1405.67c-3.14,1-5.31,3.1-7.45,5.29a61.7,61.7,0,0,0-5.77,7.28c-1.66,2.52-3.31,5.33-4.79,8a34.37,34.37,0,0,0-3.57,8.89l-.83.17a11.54,11.54,0,0,1-1.47-5.54,20.65,20.65,0,0,1,.67-5.68,29.61,29.61,0,0,1,4.8-9.89,28.61,28.61,0,0,1,7.91-7.44,17.16,17.16,0,0,1,5.07-2.17,9.14,9.14,0,0,1,5.48.18Z"/><path class="cls-9" d="M333,1400.49c2.88-1.94,6.87-1.88,10.12-.78a30.85,30.85,0,0,1,8.52,4.77l.92.68c.36.31.76.62,1.1.94a16.42,16.42,0,0,1,1.87,2.06,18.89,18.89,0,0,1,2.69,4.69,16.43,16.43,0,0,1,1.2,5.31,9.57,9.57,0,0,1-1.13,5.37l-.84-.12a26.41,26.41,0,0,0-4.6-7.25c-.87-1-1.77-2-2.68-2.91-.44-.46-.91-.86-1.35-1.26l-1.58-1.25c-2.42-1.92-4.51-3.84-6.66-5.49a20.54,20.54,0,0,0-7.44-3.89Z"/><path class="cls-27" d="M309.89,1422.1c-3.06-.54-15.08,2.77-11.8,7.29.86,1.19,2.37,1,5.88,1,5.11,0,6.52.45,9.08-.62a12.38,12.38,0,0,0,1.62-.82,5.56,5.56,0,0,0-.09-4.28C313.55,1422.69,311.26,1422.35,309.89,1422.1Z"/><path class="cls-27" d="M334.06,1420.55c-1.49.2-3.28.77-3.68,2.08a3.94,3.94,0,0,0-.08,2,6.2,6.2,0,0,0,1.71,3c.61.25,5.23,2.08,9.14.31.37-.17,3.66-1.66,3.55-3.91a2.9,2.9,0,0,0-.76-1.72C341.52,1419.52,334.44,1420.49,334.06,1420.55Z"/><path d="M474.59,1328.87a18.27,18.27,0,0,0,.81-1.73,9.26,9.26,0,0,1,.73-1.44c-.21-.11-.39-.25-.61-.35-19.5-9.19-60.33,21.84-71.17,30.52-5.14-15.24-18.75-26.46-35.12-27.15-21.43-.89-39.56,16.58-40.42,39,0,.71,0,1.42,0,2.12l-.23-.08c-3.16-.84-11.05-.65-15.55,1.83-2.07-19.63-17.65-35.32-37.1-36.13-20-.84-37.09,14.31-40,34.51-11.19-7.81-51.23-34.2-69.26-25.37-5.37,2.63-9,5.79-9.6,13.53l3.9,3a14.51,14.51,0,0,1,7.85-11.76c14.77-7.24,52.74,16.53,66.67,26.67,0,21.65,16.43,39.69,37.32,40.56,21.33.9,39.39-16.42,40.4-38.66a2.5,2.5,0,0,0,1.45-1.2c1.34-1.82,10.3-2.78,12.83-1.85a2.5,2.5,0,0,0,1.9,1.39c3.06,18.45,18.13,32.85,36.75,33.63,21.42.9,39.55-16.58,40.41-39a41.8,41.8,0,0,0-.72-9.54c14.36-11.87,52-38.61,67.64-31.22.24.11.19.15.42.28Zm-201.67,84.19c-19.56-.82-34.84-18.11-34.06-38.54s17.34-36.39,36.91-35.57,34.83,18.11,34.05,38.54S292.48,1413.88,272.92,1413.06Zm93.32-6.69c-19.56-.82-34.84-18.11-34.05-38.54s17.34-36.4,36.9-35.58,34.84,18.12,34.05,38.55S385.8,1407.19,366.24,1406.37Z"/><path class="cls-7" d="M360.52,1458.22a64.06,64.06,0,0,1-16.41,5.37c.16,1.9.42,3.83.42,5.7.36.43-.37,4.21-.43,5.74-.1,2.69-.88,3.39-2.17,5.65-1.54,2.69-1.33,2.63-4.58,3.29a27.26,27.26,0,0,1-7.38.62c-2.87-.15-4.44-.16-5.9-2.78a18.75,18.75,0,0,1-1.93-8.11,36.15,36.15,0,0,1,.37-6l-2.68.56c-.1,2.67-.21,5.34-.52,8-.28,2.4.07,5.42-.76,7.67-6.13.16-12.59.76-18.58.1-.45-4-1.75-7.91-2.13-12-7.24,1-18.31,2-24.18-2.33,4,6.66,12.52,9.9,17.95,15.23,3.41,3.34,6.62,7.08,10.88,9.44,7.64,4.24,21.28,5.21,29.82,1.94,2.62-1,4.23-2.45,6.85-3.63,1.77-.8,5.51-.72,6.92-1.7,2-1.41.66-.53,1.74-2.71,1.7-3.43,1.86-6.4,4.78-9.62,2.49-2.74,5.18-4.95,7.07-8.19a75.76,75.76,0,0,0,5.19-10.3c.9-2.36.88-4.67,1.35-7C365.23,1455.38,362.47,1457.22,360.52,1458.22Z"/><path class="cls-27" d="M366.21,1453.08a4.48,4.48,0,0,0,.38-1.51A11.92,11.92,0,0,0,366.21,1453.08Z"/><path class="cls-8" d="M322.14,1473.7a18.75,18.75,0,0,0,1.93,8.11c1.46,2.62,3,2.63,5.9,2.78a27.26,27.26,0,0,0,7.38-.62c3.25-.66,3-.6,4.58-3.29,1.29-2.26,2.07-3,2.17-5.65.06-1.53.79-5.31.43-5.74,0-1.87-.26-3.8-.42-5.7-5.58,1.15-11.25,1.94-16.6,3-1.66.33-3.33.69-5,1A36.15,36.15,0,0,0,322.14,1473.7Z"/><path class="cls-8" d="M318.55,1483.86c.83-2.25.48-5.27.76-7.67.31-2.64.42-5.31.52-8-5.36,1.13-10.75,2.24-16.19,2.88-1.21.15-3.28.51-5.8.87.38,4.09,1.68,8,2.13,12C306,1484.62,312.42,1484,318.55,1483.86Z"/><path class="cls-5" d="M100.94,1678.18c3.13,1.27,7.51,2.91,14.2,4.92,5.83,1.75,14.71,4.17,26.43,6.49-1.24,1.28-7.34,7.77-8,16.49-.62,8.48,4.38,13.25,6.44,15.21,9.41,9,24.08,5.24,28.28,4.18,3.78-1,19.89-5,24.31-15.64,3-7.2-1-13.58,1.81-15.75,2.62-2,5.87,3.74,13.4,3.3,8-.46,14.76-7.61,16.23-9.15a36.49,36.49,0,0,0,9-17.93c.76-3.33,2.6-11.44-.22-16.86-4.23-8.13-18.6-9.58-34.83-1.8a39.79,39.79,0,0,0,12-4.73c4.08-2.4,8.71-5.14,11-9.67,3.26-6.44,1-14.92-3.19-19.14-10.41-10.43-39.77-1.66-52.41,17.39a41.88,41.88,0,0,0-6.07,14.73c-2.29-.8-4.6-1.58-6.91-2.36q-36-12.13-71.66-21.16c-2.92,4.91-2,11.44-3.8,16.73a57.77,57.77,0,0,1-4.83,10c-1.74,3-2.13,5.76-3.81,8.47a84.13,84.13,0,0,1,11.4,5.1c5.15,2.8,6.63,4.33,12.54,7.3C95.7,1676.06,98.39,1677.15,100.94,1678.18Z"/><path class="cls-2" d="M314.75,2024.05c7.18-37.32-24-62-49.42-83.74C229,1909.33,189.8,1896,146,1886c-36.64-8.36-45.46,28-41.46,63.09,2.73,23.82,12.23,37.53,32.6,49.45a767,767,0,0,0,83.34,42.16,414.68,414.68,0,0,0,44.95,16.29c21.44,6.34,17.16,5.48,27.58-4.17C300.16,2046.11,308,2032.64,314.75,2024.05Z"/><path class="cls-2" d="M363.68,2018.92c-7-38.74,24.28-64.73,49.75-87.5,36.4-32.54,75.65-46.78,119.48-57.58,36.63-9,45.27,28.76,41.1,65.25-2.83,24.8-12.39,39.13-32.78,51.7a766.57,766.57,0,0,1-83.44,44.57,405.8,405.8,0,0,1-45,17.33c-21.45,6.79-17.17,5.86-27.53-4.1C378.15,2041.74,370.37,2027.8,363.68,2018.92Z"/></g><g id="Brian_sidder_bagfra"><path class="cls-17" d="M122.26,591.39c-3.92.08-9.32.12-17.23-.18-10.52-.4-25.24.37-34-3.34-7-2.94-19-11.55-12.63-18.26a34.52,34.52,0,0,1,12.44-8.37c2.85-1,10.27-1.08,13-.83.76.07,1.43.71,2.83.82a52.51,52.51,0,0,0,6.66-.49,617.11,617.11,0,0,1,84.28-.08c-.56,4.15-6,8.46-7.91,12.61a30.21,30.21,0,0,0-2.26,8.21c-.38,2.52-1.92,4.55-2.17,6.86-6.17,0-11.22.35-14.64.67-7,.64-9.45,1.33-17.27,1.9C128.84,591.24,125.46,591.32,122.26,591.39Z"/><path class="cls-5" d="M143.23,559.32c-4.38,2.82-10.5,6.58-19.85,11.64-12.45,6.73-28.36,17.89-42.6,19-11.29.92-34.07-6-34.48-19.2-.19-6.42,1.21-14.08,4.64-19.59C53,547.9,55,546.59,58.42,545c.95-.43,2.44-.06,4.16-.89C65,543,73,540.54,75.22,538.92a640,640,0,0,1,96-58.19c4.12,5.86,2.8,15.28,5.39,22a60.2,60.2,0,0,0,6.8,12.38c2.45,3.57,3,7.31,5.37,10.52a158.7,158.7,0,0,0-15.94,11c-7.2,5.63-9.26,8.26-17.52,14.4C150.56,554.59,146.8,557,143.23,559.32Z"/><path class="cls-4" d="M219.11,482.29c10.38-22.28-29.85-24.36-41.83-22.62-23,3.34-39.06,14.09-56.57,30.31-16.2,15-30.57,26.56-17.87,49.95,5.5,10.14,26.07,29.69,37.18,35.32,13.75,7,30.72.71,40-11.65C199.05,538.29,210.33,504.93,219.11,482.29Z"/><path class="cls-17" d="M522.32,590.39c3.93.08,9.33.12,17.23-.18,10.52-.4,25.24.37,34-3.34,6.95-2.94,13.4-11.55,7-18.26a34.52,34.52,0,0,0-12.44-8.37,14.9,14.9,0,0,0-7.4-.83c-.76.07-1.42.71-2.83.82a52.22,52.22,0,0,1-6.65-.49,617.26,617.26,0,0,0-84.29-.08c.56,4.15,6,8.46,7.91,12.61a29.86,29.86,0,0,1,2.26,8.21c.38,2.52,1.92,4.55,2.17,6.86,6.17,0,11.23.35,14.64.67,7,.64,9.46,1.33,17.27,1.9C515.74,590.24,519.12,590.32,522.32,590.39Z"/><path class="cls-5" d="M495.7,550.33c4,3.34,9.59,7.84,18.24,14,11.51,8.23,25.89,21.29,39.88,24.22,11.09,2.33,29-2.35,31-15.44,1-6.34.57-14.11-2.14-20-1.64-3.55-3.47-5.1-6.66-7.07-.88-.55-2.41-.36-4-1.4-2.29-1.47-4.33-4.18-6.31-6.06a639.87,639.87,0,0,0-88-69.75c-4.82,5.3-4.69,14.81-8.1,21.21a60.06,60.06,0,0,1-8.31,11.42c-2.86,3.24-3.89,6.88-6.63,9.77a160.16,160.16,0,0,1,14.44,12.87c6.44,6.49,8.16,9.36,15.58,16.49C489,544.72,492.45,547.6,495.7,550.33Z"/><path class="cls-4" d="M430,464.34c-10.38-22.28,29.85-24.36,41.83-22.62,23,3.34,39.06,14.09,56.57,30.31,16.2,15,30.57,26.56,17.87,50-5.5,10.14-26.07,29.69-37.18,35.32-13.75,7-30.72.72-40-11.65C450,520.34,438.74,487,430,464.34Z"/><path class="cls-3" d="M177.19,759.91c.89,3.21-3.51,12.45-4.32,15.93-1.4,6-2.78,12.07-3.73,18.15-1.66,10.57-4.65,22-4.47,32.68.17,10.39,6.56,21.62,11.74,30.39,16.88,28.51,52.09,29.33,81.69,33.92,22.56,3.51,45.24,6.33,68,8.07a491,491,0,0,0,61.74.65c14.68-.67,29.86.52,44.52-.73,14.33-1.23,28.29-3.12,42.06-7.47,10.75-3.39,33.14-11.07,38.76-22,9.36-18.16,2.32-42.36-5.48-59.29-2.49-5.41-35.11-60.87-35.22-60.77-18.87,17.95-57.83,12.63-82,14.41-32,2.35-64.09,1.06-96.13,2.49-16.2.72-32.51,2.38-48.88,2.43-23.22.07-47.95-3.57-70.69-2.6C176.87,766.27,178.93,766.2,177.19,759.91Z"/><path class="cls-4" d="M507.68,731.4c.69-24.73.05-38.07-.16-52.6-.3-21,.17-41.22-1.51-62-1.09-13.45-.7-27.65-.9-41.08-.32-22-3.36-40.39-11.85-59.89C486.2,499.62,477.44,483.56,469,468c-7.46-13.79-12.59-28-19.42-42.14-3.1-6.42-3.47-13.17-10.07-11-4.8,1.55-10.85,8.26-15.33,11.45-17.12,12.23-36.41,20.89-56.11,26.8-32.95,9.88-69.17,8.1-102.87,6.69-12.61-.53-26.06.52-38.39-2.89-7.36-2-14-6.63-21.37-8.59.67.34,1.3.78-.31-.71-14.93,35.41-28.09,73-43.76,107.38-12.35,27.13-18.75,55.95-19.94,86.83,0,0,1.83,105.77,4.68,120L149,776.08s11.41,4.75,84.62,7.6S323,789.39,380,785.58s65.6-4.75,89.37-8.55,38-5.71,37.08-15.21S507.68,731.4,507.68,731.4Z"/><path class="cls-5" d="M532.42,261.23c-2.89-11.13-4.36-26.8-15.71-31.66-4.07-1.74-9.07-1.24-13.41-1.42-11.13-.47-9.44-1-15.29,4.7-5.25,5.13-10.37,12.69-12.68,19.81a48.51,48.51,0,0,0-1.46,5.85c-30.71-38.39-64.42-71.69-90.82-74.29-31.19-3.08-105.09,4.43-147.43,27.4-21.73,11.79-51,34.77-64.84,78.82-3.86-6.06-9.32-11.57-13-13.78-6.86-4.15-22.34-8.56-29.52-3.94-3.27,2.1-8.89,9.55-12.34,12.74-13.84,12.84-20.7,26.56-15.44,45.85,5.94,21.79,29.51,26.25,46.87,18,3.63-1.73,8-4.26,11.82-6.48,1.46-.86,2.61-1.57,3.52-2.23-4.89,64.88-16.18,75.88,4.1,98,26.3,28.62,67.19,32.6,114.58,34.85,25.85,1.23,55.14,2.42,93.51-5.8,41.11-8.8,68.77-14.72,92-37.68,38.84-38.43,37.77-97.42,36.81-115,4.87.26,10-.34,12.76-1.31,4.89-1.75,10.79-9.11,13.5-14C536.61,287.44,535.68,273.79,532.42,261.23Z"/><path class="cls-6" d="M436.11,134.31a1.76,1.76,0,0,1-.4.74,1.5,1.5,0,0,1-.56.31c-3.45-4.07-2.37-12.65-3.34-18a98.44,98.44,0,0,1-1.9,18.62,51,51,0,0,0-.94-12.34c-1.9,5.84-.8,12.28-2.22,18.44-1.71-5.09-2.41-11.27-4.39-15.93-3.83,9-2.45,18.24-3.92,27.65-1.7-2.21-2.05-5.93-3-8.61-1.81-4.95-4.72-9.29-6.61-14.19s-2.4-10.49-4-15.53c-1.16,14.27,1.33,30.27-1.58,44.24-6.37-8.53-10.95-21.43-14.19-31.68-3.84,3.59-6.12,14.65-7.08,19.61-1.19,6.07-1.13,13.19-1,19.42-4.71-13.43-13.76-25.11-18.58-38.61-2.33,6.09-5.26,12.14-6.79,18.6s-.43,13.07-2.34,19.28c-4.8-5.74-14.35-24.4-16.32-31.63-3.75,4.72-2.8,9-4.82,14.61-1.32,3.68-1.47,9.6-3.88,12.64-5-6.55-7.49-14.55-10.45-22.1-3.41,6.94-.17,15.45-2.91,22.29-5.9-8-7.44-19.07-12.49-27.29-4.57,7.39-10.87,13.77-15.09,21.36-3,5.38-2,10.77-4.29,16.08-3.55-6.51-10-12.78-11.86-20.06-3.4,8.17-9.25,15.12-9.63,24.41a77.42,77.42,0,0,0-12.73-21.46c-2.42,5.29-7,9.48-9.18,14.88-1.44,3.62-1.16,7.63-2.56,11.25-3.72-6-9.93-13.13-11.3-20.12-7.68,8.86-6.94,18.95-10.84,28.92-3.64-5.46-6.39-12.6-9.71-18.44-1.29,4.09-4.28,6.85-5.26,11.22a42.19,42.19,0,0,0-.64,9.23c-4.14-5.41-10.05-9.94-13.78-15.41-2,6.07-.55,13.52-2.77,19.76-4-1.29-5.34-8.27-6.72-12-1.69,5.6-.24,12.2-1.28,18-4.22-8.87-5.17-17.67-8.26-27.24,1.45,5.14.53,11.48.53,16.83,0,22.31,2.85,44.48,5.87,66.55.77,5.65,1.84,11.33,2.33,17,.37,4.21-.82,6.16-1.05,9.95-.41,6.9,2.92,13.34,3.24,20.16.84,18.26,3,33.77,13.47,48.67,6.05,8.65,12.77,16.3,19.22,24.58s11.76,17.27,19.64,24.08c10.89,9.41,23.85,10.45,35.92,12.09,23,3.12,50.57-6.41,64.08-2.45,8.87,2.6,21.16,9.38,33,29.16-.15-8.62,1.07-24.43,12-36.13,4.92-5.26,10.19-8,18.3-12.11,4.19-2.15,10.68-4.45,32-11.48,3.88-2.36,5.38-3.48,11.1-9,4.65-4.53,8.34-12.14,11.5-18.06,6.91-13,9.76-27.23,15.34-40.65,3.68-8.86,4.3-17.44,3.38-27.15a88.72,88.72,0,0,0-4.31-19c-3.88-11-7.82-19.09-9.12-30.75-.87-7.83-2.71-15.67-4.05-23.43-1.81-10.55-3-16.63-4.4-26-.79-5.11-1.38-9.31-1.77-12.11C439.39,153.92,436.36,134.27,436.11,134.31Zm-96,45.37.36-.06.21,2.31Zm10-1.51.34,0,.06,1.48Zm10.55-1h.14l0,.54Z"/></g></g></svg>
